<?xml version="1.0" encoding="utf-8"?>
<!-- Generator: Adobe Illustrator 24.1.2, SVG Export Plug-In . SVG Version: 6.00 Build 0)  -->
<svg version="1.1" id="Layer_1" xmlns="http://www.w3.org/2000/svg" xmlns:xlink="http://www.w3.org/1999/xlink" x="0px" y="0px"
	 viewBox="0 0 2560 900" style="enable-background:new 0 0 2560 900;" xml:space="preserve">
<style type="text/css">
	.st0{fill:none;stroke:#000000;stroke-linecap:round;stroke-linejoin:round;stroke-miterlimit:10;}
	.st1{fill:#FFFFFF;stroke:#000000;stroke-linecap:round;stroke-linejoin:round;stroke-miterlimit:10;}
	.st2{fill:none;stroke:#FFFFFF;stroke-linecap:round;stroke-linejoin:round;stroke-miterlimit:10;}
	.st3{fill:#FFFFFF;}
	.st4{fill:none;stroke:#000000;stroke-linecap:round;stroke-linejoin:round;}
	.st5{clip-path:url(#SVGID_2_);fill:none;stroke:#000000;stroke-linecap:round;stroke-linejoin:round;stroke-miterlimit:10;}
	.st6{fill:none;stroke:#000000;stroke-miterlimit:10;}
	.st7{clip-path:url(#SVGID_4_);}
	.st8{clip-path:url(#SVGID_6_);}
	.st9{clip-path:url(#SVGID_8_);}
	.st10{clip-path:url(#SVGID_10_);}
	.st11{clip-path:url(#SVGID_12_);}
	.st12{fill:#FDFFFF;}
	.st13{fill:#F9F1A5;stroke:#000000;stroke-linecap:round;stroke-linejoin:round;}
	.st14{fill:#F9BC93;}
	.st15{fill:#F9EDF9;}
	.st16{fill:#E5D5CC;}
	.st17{fill:#F4B5CA;}
	.st18{fill:#DCF4C9;}
	.st19{clip-path:url(#SVGID_14_);}
	.st20{fill:#E2E2E2;}
	.st21{opacity:0.8;fill:none;stroke:#E6E6E6;stroke-miterlimit:10;}
	.st22{opacity:0.8;fill:none;stroke:#FFFFFF;stroke-miterlimit:10;}
</style>
<g>
	
		<image style="overflow:visible;opacity:0.15;" width="844" height="669" xlink:href="8A5BC7C87A911AE4.png"  transform="matrix(1 0 0 1 404 -289)">
	</image>
	<g>
		
			<image style="overflow:visible;" width="1584" height="1224" xlink:href="../hero/05.png"  transform="matrix(0.4997 -1.691999e-02 1.691998e-02 0.4997 419.8717 -249.4242)">
		</image>
	</g>
</g>
<g>
	<path class="st0" d="M-3033.1,41.3h-36.5c-14,0-25.4,30.8-25.4,68.9s11.4,68.9,25.4,68.9h36.5"/>
	<g>
		<path class="st1" d="M-2797,31.2c16.1,0,29.1,35.4,29.1,79s-13,79-29.1,79"/>
		<path class="st1" d="M-3026.3,189.2c-16.1,0-29.1-35.4-29.1-79s13-79,29.1-79h229.3c-16.1,0-29.1,35.4-29.1,79s13,79,29.1,79
			H-3026.3z"/>
	</g>
	<polyline class="st1" points="-2810.7,179.1 -2762.1,179.1 -2762.1,41.3 -2810.7,41.3 	"/>
	<ellipse class="st1" cx="-2763" cy="110.2" rx="25.4" ry="68.9"/>
	<path class="st1" d="M-2692.6,83l-68-9.3c-4.2,0-7.6,16.2-7.6,36.1s3.4,36.1,7.6,36.1l68-9.3"/>
	<ellipse class="st1" cx="-2692.6" cy="109.8" rx="5.6" ry="26.8"/>
	<ellipse class="st1" cx="-2937.2" cy="110.4" rx="55.7" ry="26.1"/>
	<g>
		<g>
			<path d="M-2996.7,189.4c-8.4,0-16.8,0-25.3,0c-24.8-49.8-24.8-108.3,0-158c8.4,0,16.8,0,25.3,0
				C-3021.5,81.1-3021.5,139.6-2996.7,189.4z"/>
			<g>
				<path class="st2" d="M-3001.7,30.5c-4.6,9.5-19,9.5-22.7,19.2c-3.4,9.8,11,9.8,8.4,19.9c-2.2,10.1-16.6,10.1-18,20.3
					c-1,10.2,13.4,10.2,13.2,20.5c0.2,10.3-14.2,10.3-13.2,20.5c1.4,10.2,15.8,10.2,18,20.3c2.6,10-11.8,10-8.4,19.9
					c3.8,9.7,18.2,9.8,22.7,19.2"/>
			</g>
		</g>
	</g>
	<g>
		<g>
			<path d="M-2824.3,189.4c-8.4,0-16.8,0-25.3,0c-24.8-49.8-24.8-108.3,0-158c8.4,0,16.8,0,25.3,0
				C-2849.1,81.1-2849.1,139.6-2824.3,189.4z"/>
			<g>
				<path class="st2" d="M-2829.3,30.5c-4.6,9.5-19,9.5-22.7,19.2c-3.4,9.8,11,9.8,8.4,19.9c-2.2,10.1-16.6,10.1-18,20.3
					c-1,10.2,13.4,10.2,13.2,20.5c0.2,10.3-14.2,10.3-13.2,20.5c1.4,10.2,15.8,10.2,18,20.3c2.6,10-11.8,10-8.4,19.9
					c3.8,9.7,18.2,9.8,22.7,19.2"/>
			</g>
		</g>
	</g>
	<path class="st1" d="M-2895.4,152.5c-11.5,2.2-24.1,3.5-37.4,3.5c-16.7,0-32.4-2-46.1-5.4"/>
	<path class="st1" d="M-2978.9,70.2c13.7-3.5,29.5-5.4,46.1-5.4c13.2,0,25.9,1.2,37.4,3.5"/>
	<polygon class="st0" points="-2937.2,90.1 -2932.1,103.7 -2917.3,104.6 -2928.3,113.7 -2924.9,127.9 -2937.2,119.3 -2949.4,127.9 
		-2946,113.7 -2957,104.6 -2942.2,103.7 	"/>
	<path class="st0" d="M-2931.2,107.4c0,3.3-2.7,6-6,6s-6-2.7-6-6"/>
	<path class="st0" d="M-3026.3,189.2c-16.1,0-29.1-35.4-29.1-79s13-79,29.1-79h229.3c-16.1,0-29.1,35.4-29.1,79s13,79,29.1,79
		H-3026.3z"/>
</g>
<g>
	<line class="st0" x1="-1211.9" y1="250.1" x2="-1211.9" y2="0.1"/>
	<line class="st0" x1="-1211.9" y1="251.1" x2="-1211.9" y2="250.1"/>
	<circle class="st0" cx="-1211.9" cy="311.1" r="60"/>
	<path class="st0" d="M-1220.4,281.6c0-4.7,8.5-30.5,8.5-30.5s8.5,25.8,8.5,30.5c0,4.7-3.8,8.5-8.5,8.5
		C-1216.6,290.1-1220.4,286.3-1220.4,281.6z"/>
	<path class="st0" d="M-1201.8,281.1c-2.6-3.9-10.1-30-10.1-30s21.5,16.6,24.2,20.5c2.6,3.9,1.6,9.2-2.3,11.8
		S-1199.1,285-1201.8,281.1z"/>
	<path class="st0" d="M-1235.9,271.7c2.6-3.9,24-20.6,24-20.6s-7.3,26.2-9.9,30.1c-2.6,3.9-7.9,4.9-11.8,2.3
		S-1238.5,275.6-1235.9,271.7z"/>
	<path class="st0" d="M-1211.9,251.1c0,0-21,17.2-25.4,18.9c-4.4,1.7-9.3-0.5-11-4.9c-0.1-0.4-0.3-0.7-0.3-1.1"/>
	<line class="st0" x1="-1233.6" y1="283.5" x2="-1267.9" y2="333.1"/>
	<path class="st0" d="M-1174.9,264.1c-0.1,0.4-0.2,0.7-0.3,1.1c-1.7,4.4-6.6,6.6-11,4.9c-4.4-1.7-25.4-18.9-25.4-18.9"/>
	<line class="st0" x1="-1211.9" y1="290.1" x2="-1211.9" y2="371.1"/>
	<line class="st0" x1="-1190" y1="283.4" x2="-1156.9" y2="334.1"/>
	<circle class="st0" cx="-1235.4" cy="185.1" r="15.5"/>
	<circle class="st0" cx="-1188.4" cy="164.6" r="15.5"/>
	<line class="st0" x1="-1188.4" y1="164.6" x2="-1211.9" y2="164.6"/>
	<line class="st0" x1="-1211.9" y1="185.1" x2="-1235.4" y2="185.1"/>
</g>
<g>
	<g>
		<polygon class="st0" points="-2535.9,230.6 -2518.3,277.9 -2466.6,281 -2505,312.9 -2493,362.5 -2535.9,332.4 -2578.8,362.5 
			-2566.8,312.9 -2605.2,281 -2553.5,277.9 		"/>
		<path class="st0" d="M-2515.1,290.9c0,11.5-9.3,20.8-20.8,20.8s-20.8-9.3-20.8-20.8"/>
	</g>
	<line class="st0" x1="-2535.9" y1="375.3" x2="-2535.9" y2="444"/>
	<line class="st0" x1="-2471.9" y1="338" x2="-2412.5" y2="381.6"/>
	<line class="st0" x1="-2659.3" y1="200.2" x2="-2588.4" y2="252.3"/>
	<line class="st0" x1="-2481.9" y1="252.3" x2="-2411.4" y2="201.8"/>
	<line class="st0" x1="-2660.4" y1="380" x2="-2601.7" y2="338"/>
	<line class="st0" x1="-2535.9" y1="213.8" x2="-2535.9" y2="0"/>
	<circle class="st0" cx="-2535.9" cy="222.2" r="8.4"/>
</g>
<line class="st1" x1="-711.7" y1="64.7" x2="-608.7" y2="64.7"/>
<path class="st0" d="M-692.8,59.1c0-9.9,8.1-18,18-18c9.9,0,18,8.1,18,18h-54c0-5,4-9,9-9C-696.8,50.1-692.8,54.1-692.8,59.1"/>
<g>
	<line class="st1" x1="-1581.7" y1="118.7" x2="-1411.7" y2="118.7"/>
	<path class="st0" d="M-1411.5,108.7c0-23.9,19.4-43.3,43.3-43.3c23.9,0,43.3,19.4,43.3,43.3h-129.9c0-11.9,9.7-21.6,21.6-21.6
		S-1411.5,96.8-1411.5,108.7"/>
	<path class="st0" d="M-1333.3,139.2c0-4.7,8.5-30.5,8.5-30.5s8.5,25.8,8.5,30.5c0,4.7-3.8,8.5-8.5,8.5S-1333.3,143.9-1333.3,139.2z
		"/>
</g>
<g>
	<polygon class="st0" points="-793.8,813.7 -788.4,827.9 -772.8,828.9 -784.4,838.5 -780.8,853.5 -793.8,844.4 -806.7,853.5 
		-803.1,838.5 -814.7,828.9 -799.1,827.9 	"/>
	<path class="st0" d="M-787.5,831.9c0,3.5-2.8,6.3-6.3,6.3s-6.3-2.8-6.3-6.3"/>
</g>
<circle class="st1" cx="-1202.9" cy="578.4" r="23.9"/>
<path class="st1" d="M-786.3,628.6c3.3,11.4,5,23.4,5,35.8c0,71.3-57.8,129.2-129.2,129.2c-60.2,0-110.8-41.2-125.1-97"/>
<g>
	<g id="XMLID_2_">
		<g>
			<path class="st3" d="M-603.6,600.2c7.7,36.4-129.4,96-306.1,133.2c-176.7,37.1-326.1,37.7-333.8,1.3
				c-7.7-36.4,129.4-96,306.1-133.2C-760.7,564.3-611.3,563.8-603.6,600.2z M-916.5,701c105.5-22.2,187.3-57.8,182.7-79.5
				s-93.8-21.4-199.3,0.8c-105.5,22.2-187.3,57.8-182.8,79.5C-1111.2,723.5-1022,723.1-916.5,701z"/>
		</g>
		<g>
			<path class="st0" d="M-603.6,600.2c7.7,36.4-129.4,96-306.1,133.2c-176.7,37.1-326.1,37.7-333.8,1.3
				c-7.7-36.4,129.4-96,306.1-133.2C-760.7,564.3-611.3,563.8-603.6,600.2z"/>
			<path class="st0" d="M-733.8,621.4c4.6,21.7-77.2,57.3-182.7,79.5c-105.5,22.2-194.7,22.5-199.3,0.8
				c-4.6-21.7,77.2-57.3,182.8-79.5C-827.6,600-738.3,599.7-733.8,621.4z"/>
		</g>
	</g>
</g>
<path class="st1" d="M-1035.6,696.6c-2.6-10.3-4-21.1-4-32.2c0-71.3,57.8-129.2,129.2-129.2c58.9,0,108.7,39.5,124.2,93.4"/>
<path class="st4" d="M-803.5,592c76.9-6.6,130.7-0.4,134.7,18.9c6.1,29-103,76.5-243.7,106.1c-140.7,29.6-259.7,30.1-265.8,1.1
	c-4.5-21.4,53.8-52.9,141.3-79.8"/>
<path class="st1" d="M-1000.1,571.3L-1000.1,571.3c48.5,37.5,115.6,39.7,166.5,5.6l10.9-7.3"/>
<path class="st1" d="M-979.8,773.4l106.3-23.9c17.8-4,36.4-0.9,51.9,8.6h0"/>
<path class="st1" d="M-1039.7,664.4L-1039.7,664.4c60.9,9.8,123.4,3.3,180.9-18.9l69.1-26.7"/>
<g>
	<defs>
		<circle id="SVGID_1_" cx="-1202.9" cy="578.4" r="23.9"/>
	</defs>
	<clipPath id="SVGID_2_">
		<use xlink:href="#SVGID_1_"  style="overflow:visible;"/>
	</clipPath>
	<ellipse class="st5" cx="-1211.5" cy="578.4" rx="20" ry="29.7"/>
</g>
<circle class="st0" cx="-772.8" cy="358.1" r="2.6"/>
<circle class="st0" cx="-1012.2" cy="824.7" r="2.6"/>
<circle class="st0" cx="-1056.2" cy="387.6" r="13"/>
<g>
	<path class="st6" d="M-811.2,509.7l-6.4,6.4c-2.8,2.8-7.5,1.3-8.3-2.6l-4.3-22.8"/>
	<path class="st6" d="M-817.1,477.7l22.8,4.3c3.9,0.7,5.3,5.5,2.6,8.3l-6.4,6.4"/>
	<path class="st6" d="M-835.6,484.7l-5.7-11c-1.9-4.6,2.7-9.2,7.3-7.3l10.5,5.2"/>
	<path class="st1" d="M-823.7,471.7c0.9,0.4,1.7,1,2.4,1.7l23.2,23.2l-13.1,13.1l-23.2-23.2c-1.1-1.1-1.9-2.4-2.3-3.8"/>
	<path class="st1" d="M-836.8,477.7c0.4-1.6,1.2-3.1,2.4-4.3v0c1.4-1.4,3-2.2,4.8-2.5"/>
	<polyline class="st0" points="-798.1,496.6 -788.3,506.4 -797.7,505 -783.3,524.3 -802.4,510.4 -800.9,520.2 -811.2,509.7 	"/>
	<line class="st0" x1="-818.5" y1="502.4" x2="-805.4" y2="489.3"/>
	<line class="st0" x1="-826.1" y1="494.9" x2="-813" y2="481.8"/>
	<line class="st0" x1="-799.2" y1="508.6" x2="-819.5" y2="488.3"/>
</g>
<polygon class="st1" points="-2968,754.3 -2954,807.3 -2943,807.3 -2956,756.3 "/>
<path class="st1" d="M-2921,780.3l-6-25l13-5l5.4,30c0.9,4.8-2.6,9.4-7.5,9.8l-51.9,4.3l-1.4-13.2l50.4-3.8"/>
<g>
	<polygon class="st0" points="-2684.4,812.3 -2701.3,810.5 -2662.3,753.1 -2645.4,754.9 	"/>
	<polygon class="st0" points="-2586.3,812.3 -2569.4,810.5 -2597,753.1 -2613.9,754.9 	"/>
</g>
<circle class="st1" cx="-2942" cy="679.3" r="85"/>
<path class="st1" d="M-2574.6,616.7c-17.2-6.5-36.9-2.9-54.3,8c-16-22.3-38.8-35.3-60.7-31.8c-33.7,5.3-52.7,47.2-42.6,93.4
	c10.2,46.3,45.7,79.5,79.3,74.2c2.6-0.4,5.1-1.1,7.5-1.9c1.6,0.8,3.3,1.6,5.1,2.3c31.8,12.1,72.3-10.4,90.5-50.2
	C-2531.8,670.8-2542.8,628.7-2574.6,616.7z"/>
<line class="st0" x1="-3068.5" y1="830.3" x2="-2515.5" y2="830.3"/>
<g>
	<polygon class="st0" points="-2897.6,541.3 -2898.3,565.1 -2921,574.3 -2899,582.8 -2896.8,606.8 -2882.2,586.8 -2858.5,593.8 
		-2871.3,573.5 -2859,553.4 -2882.6,559.8 	"/>
	<path class="st0" d="M-2897.8,571.4c1.7,5.1,7.3,7.9,12.5,6.2c5.1-1.7,7.9-7.3,6.2-12.5"/>
</g>
<g>
	<g>
		<path class="st1" d="M-2994,700.1c-5.8-5.5-5.8-12.9-5.8-12.9"/>
		<path class="st1" d="M-2951.7,687.2c0,0,0,18.9-24,18.9c-4,0-7.4-0.5-10.2-1.4"/>
		<path class="st1" d="M-2999.8,687.2c0,0,0-18.9,24-18.9"/>
		<path class="st0" d="M-3008,682.5c0,2.6,2.1,4.7,4.7,4.7l5.2,1c13.9,2.7,28.3,2.6,42.2-0.2l4.1-0.8"/>
	</g>
	<g>
		<path class="st1" d="M-2943.2,687.2c0,0,0,18.9,24,18.9c24,0,24-18.9,24-18.9"/>
		<path class="st1" d="M-2895.2,687.2c0,0,0-18.9-24-18.9c-22.6,0-24,18.9-24,18.9"/>
		<path class="st0" d="M-2887,682.5c0,2.6-2.1,4.7-4.7,4.7h-51.5"/>
		<g>
			<defs>
				<path id="SVGID_3_" d="M-2895.2,687.2c0,0,0,18.9-24,18.9c-22.6,0-24-18.9-24-18.9H-2895.2z"/>
			</defs>
			<clipPath id="SVGID_4_">
				<use xlink:href="#SVGID_3_"  style="overflow:visible;"/>
			</clipPath>
			<circle class="st7" cx="-2919.7" cy="687.2" r="11.7"/>
		</g>
	</g>
</g>
<path class="st1" d="M-2708.3,798.3l15,7l19-4l-7.2,16c-0.8,1.9,0.6,4,2.6,3.9l22.7-0.6c8.3-0.2,15.9,4.9,18.9,12.7l0,0h-79
	l-1.7-11.6c-0.2-1.3,0.8-2.4,2.1-2.4l0,0c0.9,0,1.8-0.6,2-1.5L-2708.3,798.3z"/>
<g>
	<g>
		
			<rect x="-2828.2" y="753.8" transform="matrix(0.9945 0.1048 -0.1048 0.9945 67.029 299.8036)" class="st0" width="17" height="68"/>
		
			<rect x="-2772.8" y="753.8" transform="matrix(-0.9945 0.1048 -0.1048 -0.9945 -5430.7373 1860.9579)" class="st0" width="17" height="68"/>
	</g>
	<path class="st1" d="M-2731.5,587.9c22.8,18.1,37.3,46.2,36.9,77.6c-0.6,52.6-43.5,95.6-96.1,96.3c-54.5,0.8-98.9-43.2-98.9-97.5
		c0-31.2,14.6-59,37.4-76.8c12.5-9.8,19.6-24.9,19.6-40.8l0-14.9v-23.7c0-22.7,18.6-41.7,41.3-41.3c22,0.4,39.7,18.4,39.7,40.5v24.5
		v14.9C-2751.5,562.8-2744,577.9-2731.5,587.9z"/>
	<g>
		<g>
			<path class="st1" d="M-2796.9,673.2c0,0,0,21.6-27.4,21.6s-27.4-21.6-27.4-21.6"/>
			<path class="st1" d="M-2851.8,673.2c0,0,0-21.6,27.4-21.6c25.8,0,27.4,21.6,27.4,21.6"/>
			<path class="st0" d="M-2861.1,667.8c0,3,2.4,5.4,5.4,5.4h58.8"/>
			<g>
				<defs>
					<path id="SVGID_5_" d="M-2851.8,673.2c0,0,0,21.6,27.4,21.6c25.8,0,27.4-21.6,27.4-21.6H-2851.8z"/>
				</defs>
				<clipPath id="SVGID_6_">
					<use xlink:href="#SVGID_5_"  style="overflow:visible;"/>
				</clipPath>
				<circle class="st8" cx="-2823.8" cy="673.2" r="13.4"/>
			</g>
		</g>
		<g>
			<path class="st1" d="M-2787.1,673.2c0,0,0,21.6,27.4,21.6s27.4-21.6,27.4-21.6"/>
			<path class="st1" d="M-2732.2,673.2c0,0,0-21.6-27.4-21.6c-25.8,0-27.4,21.6-27.4,21.6"/>
			<path class="st0" d="M-2722.9,667.8c0,3-2.4,5.4-5.4,5.4h-58.8"/>
			<g>
				<defs>
					<path id="SVGID_7_" d="M-2732.2,673.2c0,0,0,21.6-27.4,21.6c-25.8,0-27.4-21.6-27.4-21.6H-2732.2z"/>
				</defs>
				<clipPath id="SVGID_8_">
					<use xlink:href="#SVGID_7_"  style="overflow:visible;"/>
				</clipPath>
				<circle class="st9" cx="-2760.2" cy="673.2" r="13.4"/>
			</g>
		</g>
	</g>
	<g>
		<g>
			<path class="st1" d="M-2636.3,687.2c0,0,0,18.9-24,18.9s-24-18.9-24-18.9"/>
			<path class="st1" d="M-2684.4,687.2c0,0,0-18.9,24-18.9c22.6,0,24,18.9,24,18.9"/>
			<path class="st0" d="M-2692.6,682.5c0,2.6,2.1,4.7,4.7,4.7h51.5"/>
			<g>
				<defs>
					<path id="SVGID_9_" d="M-2684.4,687.2c0,0,0,18.9,24,18.9c22.6,0,24-18.9,24-18.9H-2684.4z"/>
				</defs>
				<clipPath id="SVGID_10_">
					<use xlink:href="#SVGID_9_"  style="overflow:visible;"/>
				</clipPath>
				<circle class="st10" cx="-2659.9" cy="687.2" r="11.7"/>
			</g>
		</g>
		<g>
			<path class="st1" d="M-2627.8,687.2c0,0,0,18.9,24,18.9c24,0,24-18.9,24-18.9"/>
			<path class="st1" d="M-2579.7,687.2c0,0,0-18.9-24-18.9c-22.6,0-24,18.9-24,18.9"/>
			<path class="st0" d="M-2571.6,682.5c0,2.6-2.1,4.7-4.7,4.7h-51.5"/>
			<g>
				<defs>
					<path id="SVGID_11_" d="M-2579.7,687.2c0,0,0,18.9-24,18.9c-22.6,0-24-18.9-24-18.9H-2579.7z"/>
				</defs>
				<clipPath id="SVGID_12_">
					<use xlink:href="#SVGID_11_"  style="overflow:visible;"/>
				</clipPath>
				<circle class="st11" cx="-2604.3" cy="687.2" r="11.7"/>
			</g>
		</g>
	</g>
	<path class="st0" d="M-2752,387.8c-22.4,0-40.5,18.1-40.5,40.5v38.5"/>
	<path class="st0" d="M-2776.5,712.1c0,5.5-6.9,10-15.5,10c-8.6,0-15.5-4.5-15.5-10"/>
	<path class="st0" d="M-2803.3,712.1c0-4,5-7.3,11.3-7.3c6.2,0,11.3,3.3,11.3,7.3"/>
	<path class="st0" d="M-2825,708.1l7.7,1.8c17.3,4.1,35.3,3.9,52.5-0.4l5.8-1.4"/>
	<path class="st0" d="M-2642.9,715.7c0-4.2,5.3-7.7,11.9-7.7s11.9,3.4,11.9,7.7"/>
	<path class="st0" d="M-2622.3,716.8c0,3.1-3.9,5.6-8.7,5.6c-4.8,0-8.7-2.5-8.7-5.6"/>
	<path class="st0" d="M-2656.3,713.3l5.9,1.4c13.3,3.1,27.1,3,40.4-0.3l4.4-1.1"/>
	<g>
		<path class="st1" d="M-2811.5,822.8l-46,4v2.7c0,2.8,2.4,5.1,5.3,4.8l40.7-3.5V822.8z"/>
		<line class="st0" x1="-2849.5" y1="825.9" x2="-2845.5" y2="833.8"/>
		<polygon class="st1" points="-2837.5,824.8 -2832.5,786.8 -2825.5,792.8 -2807.5,787.8 -2811.5,822.8 		"/>
		<polygon class="st0" points="-2811.5,830.8 -2822.5,831.8 -2822.5,834.8 -2811.5,834.8 		"/>
		<polyline class="st0" points="-2808.5,792.8 -2822.5,798.8 -2826.5,823.8 		"/>
		<polyline class="st0" points="-2833.5,794.8 -2829.5,798.8 -2833.5,824.8 		"/>
	</g>
	<g>
		<path class="st1" d="M-2773.5,822.8l46,4v2.7c0,2.8-2.4,5.1-5.3,4.8l-40.7-3.5V822.8z"/>
		<line class="st0" x1="-2735.4" y1="825.9" x2="-2739.5" y2="833.8"/>
		<polygon class="st1" points="-2747.5,824.8 -2752.5,786.8 -2759.5,792.8 -2777.5,787.8 -2773.5,822.8 		"/>
		<polygon class="st0" points="-2773.5,830.8 -2762.5,831.8 -2762.5,834.8 -2773.5,834.8 		"/>
		<polyline class="st0" points="-2776.5,792.8 -2762.5,798.8 -2758.5,823.8 		"/>
		<polyline class="st0" points="-2751.5,794.8 -2755.5,798.8 -2751.5,824.8 		"/>
	</g>
	<path class="st0" d="M-2824,437.3l-15.6-15.6c-6.1-6.1-6.1-15.9,0-21.9l0,0c6.1-6.1,15.9-6.1,21.9,0l15.6,15.6
		c6.1,6.1,6.1,15.9,0,21.9h0C-2808.1,443.3-2817.9,443.3-2824,437.3z"/>
	<line class="st0" x1="-2821.3" y1="418" x2="-2792.5" y2="447.8"/>
	<line class="st0" x1="-2814.3" y1="425" x2="-2814.3" y2="403"/>
	<g>
		<g>
			<circle class="st0" cx="-2771.5" cy="490.8" r="1"/>
			<circle class="st0" cx="-2765.5" cy="490.8" r="1"/>
		</g>
		<circle class="st0" cx="-2768.5" cy="495.8" r="1"/>
	</g>
</g>
<circle class="st1" cx="-2643.5" cy="564.8" r="21.5"/>
<path class="st1" d="M-2580,539.3l-12.2,8.5c-13.4,9.3-23,23.2-27,39l-9.7,37.9"/>
<line class="st1" x1="-2643.5" y1="564.8" x2="-2623" y2="600.3"/>
<path class="st1" d="M-2989,716.3l4.8,1c3.4,0.7,7,1,10.5,0.7l10.3-0.9c6.9-0.6,13.8-0.3,20.6,0.9l7.7,1.4c3.2,0.6,6.4,0.7,9.6,0.4
	l6.5-0.6"/>
<path d="M-2946,717.3c0,2.8-3.5,5.1-7.9,5.1c-4.3,0-7.9-2.3-7.9-5.1"/>
<path class="st0" d="M-2945,725.5c-1.9,1.7-5,2.8-8.5,2.8s-6.6-1.1-8.5-2.8"/>
<path class="st1" d="M-2559.6,798.3l-15,7l-19-4l7.2,16c0.8,1.9-0.6,4-2.6,3.9l-22.7-0.6c-8.3-0.2-15.9,4.9-18.9,12.7l0,0h79
	l1.7-11.6c0.2-1.3-0.8-2.4-2.1-2.4l0,0c-0.9,0-1.8-0.6-2-1.5L-2559.6,798.3z"/>
<line class="st1" x1="-2591" y1="811.3" x2="-2581" y2="811.3"/>
<line class="st1" x1="-2591" y1="814.3" x2="-2581" y2="814.3"/>
<line class="st1" x1="-2687" y1="811.3" x2="-2677" y2="811.3"/>
<line class="st1" x1="-2687" y1="814.3" x2="-2677" y2="814.3"/>
<line class="st1" x1="-2717" y1="830.3" x2="-2639" y2="830.3"/>
<line class="st1" x1="-2629" y1="830.3" x2="-2551" y2="830.3"/>
<line class="st1" x1="-2693" y1="833.3" x2="-2693" y2="830.3"/>
<line class="st1" x1="-2571" y1="833.3" x2="-2571" y2="830.3"/>
<path class="st1" d="M-2701.1,601.3c0.7-0.3,1.4-0.7,2.2-1"/>
<path class="st1" d="M-2710,607.3c0,0,1.9-1.9,5.3-4"/>
<g>
	<g>
		<circle class="st0" cx="-2914" cy="614.3" r="1"/>
		<circle class="st0" cx="-2908" cy="614.3" r="1"/>
	</g>
	<circle class="st0" cx="-2911" cy="619.3" r="1"/>
</g>
<path class="st1" d="M-2952.3,616.2l-0.6-0.2c-0.6-0.3-1.3,0.1-1.5,0.7l-0.2,0.6c-0.3,1-1.7,1.1-2.1,0.1l-0.2-0.6
	c-0.3-0.6-1-0.9-1.6-0.6l-0.5,0.3c-0.9,0.5-2-0.4-1.6-1.4l0.2-0.6c0.3-0.6-0.1-1.3-0.7-1.5l-0.6-0.2c-1-0.3-1.1-1.7-0.1-2.1l0.6-0.2
	c0.6-0.3,0.9-1,0.6-1.6l-0.3-0.5c-0.5-0.9,0.4-2,1.4-1.6l0.6,0.2c0.6,0.3,1.3-0.1,1.5-0.7l0.2-0.6c0.3-1,1.7-1.1,2.1-0.1l0.2,0.6
	c0.3,0.6,1,0.9,1.6,0.6l0.5-0.3c0.9-0.5,2,0.4,1.6,1.4l-0.2,0.6c-0.3,0.6,0.1,1.3,0.7,1.5l0.6,0.2c1,0.3,1.1,1.7,0.1,2.1l-0.6,0.2
	c-0.6,0.3-0.9,1-0.6,1.6l0.3,0.5C-2950.4,615.6-2951.3,616.6-2952.3,616.2z"/>
<circle class="st1" cx="-2956" cy="611.5" r="3"/>
<path class="st1" d="M-2956,807.3h24l-1,7.4c-0.5,4,2.6,7.6,6.7,7.6h27.1c2.9,0,5.3,2.4,5.3,5.3v2.7h-61L-2956,807.3z"/>
<path class="st1" d="M-2990,830.3v-52l23-1v24l-7.4-1c-4-0.5-7.6,2.6-7.6,6.7v18.3"/>
<path class="st0" d="M-2985,822.3h12c4.4,0,8,3.6,8,8l0,0"/>
<path class="st1" d="M-2990,778.3v-0.5c0-1.9-1.6-3.5-3.5-3.5l0,0c-1.9,0-3.5,1.6-3.5,3.5v53c0,2.5,2,4.5,4.5,4.5h28
	c1.4,0,2.5-1.1,2.5-2.5l0,0c0-1.4-1.1-2.5-2.5-2.5h-25.5V778.3z"/>
<path class="st1" d="M-2889,832.8L-2889,832.8c0,1.4-1.1,2.5-2.5,2.5h-66c-1.4,0-2.5-1.1-2.5-2.5l0,0c0-1.4,1.1-2.5,2.5-2.5h66
	C-2890.1,830.3-2889,831.4-2889,832.8z"/>
<line class="st1" x1="-2973" y1="794.3" x2="-2973" y2="805.3"/>
<line class="st1" x1="-2938" y1="813.3" x2="-2928" y2="813.3"/>
<line class="st1" x1="-2639" y1="573.3" x2="-2623.5" y2="557.8"/>
<g>
	<rect x="-2971" y="496.3" class="st1" width="49" height="98"/>
	<line class="st1" x1="-2971" y1="574.3" x2="-2922" y2="574.3"/>
	<line class="st1" x1="-2901" y1="594.3" x2="-2995" y2="594.3"/>
</g>
<g>
	<g>
		<g id="art_2_">
			<rect x="-2501" y="-454" class="st12" width="792" height="612"/>
			<polyline class="st13" points="-2281.6,-382 -2285.1,-385.5 -2275.9,-394.7 -2272.5,-391.3 			"/>
			
				<rect x="-2276.6" y="-390.4" transform="matrix(0.7071 -0.7071 0.7071 0.7071 -397.0074 -1715.017)" class="st13" width="15.7" height="24.2"/>
			<path class="st13" d="M-2288.4-395.7l4.9,8.6l6-6l-8.6-4.9c-0.7-0.4-1.5-0.2-2,0.3l0,0C-2288.6-397.2-2288.7-396.4-2288.4-395.7z
				"/>
			<path class="st4" d="M-2279.4-377.9c1.4-1.4,3.4,0.7,4.8-0.7c1.4-1.4-0.6-3.4,0.7-4.8c1.4-1.4,3.4,0.6,4.8-0.8
				c1.4-1.4-0.6-3.4,0.7-4.8"/>
			<path class="st4" d="M-2262.6-367.3l-6.4-6.4c-1.3-1.3-1.3-3.5,0-4.8c0,0,0,0,0,0l0,0c1.3-1.3,3.5-1.3,4.8,0l6.4,6.4"/>
			<path class="st14" d="M-2355.2-86h71.2v-29.4c0,0,9.4-54.9,20.9-83l0,0c3.2-7.9,6.6-15.6,9.9-22.8c4.7-10.3,9.3-19.6,13.2-27.4
				c0.9-1.8,1.8-3.4,2.6-5c6.2-11.9,9.4-25.2,9.5-38.6c5.7,1.7,9.7,6.8,10.2,12.8l-0.2,1.9c-1.1,11.1,6.9,21,18,22.2
				c11.1,1.1,21-6.9,22.2-18c0.1-1.4,0.1-2.7,0-4.1l-0.2-1.9c0.4-6,4.6-11.2,10.4-12.8c0,7,1.5,13.9,4.5,20.2
				c3,6.3,7.3,11.9,12.6,16.3l0.1,0.1c9.1,7.4,18.7,14,28.9,19.8c13.4,7.6,27.7,13.7,42.5,18.2c17.7,5.4,36,8.4,54.5,8.9
				c2,0.1,4.1,0.1,6.1-0.4l127.6,1h35c11.6,0,21-9.4,21-21c0-1.1-0.1-2.1-0.2-3.2c-1.6-10.4-10.8-17.8-21.3-17.8h-68l0,0h-27.6
				c-34-0.4-61.1-28.3-60.7-62.3c0.4-33.4,27.4-60.3,60.7-60.7h109.9c11-0.2,20.2,8.5,20.4,19.6c0.2,11-8.5,20.2-19.6,20.4
				c-0.3,0-0.6,0-0.9,0h-109.5c-11,0-20.5,8.2-21.4,19.1c-1.1,12.4,8.7,22.9,20.9,22.9h27.4l0,0h68.8c33.8,0,61.3,27.5,61.3,61.3
				c0,1,0,2.1-0.1,3.1c-1.3,25-17.6,46.7-41.3,54.9l0,0c7.7,11.9,12.1,25.6,12.7,39.8c0.7,16.6-3.8,32.9-12.8,46.9
				c12.8,4.7,19.4,19,14.7,31.8c-3.6,9.7-12.8,16.2-23.2,16.2h-169c0-1.3,0.1-2.7,0.2-4h-91.3c-3.9,2.6-8.4,4-13.1,4H-2408
				c0.3-27.7,22.8-50,50.5-50L-2355.2-86z"/>
			<path class="st14" d="M-2246.6-61c2.2-3.8,4.9-7.4,8.1-10.5c9.3-9.3,21.9-14.5,35-14.5h42.5v-62.3c0.4-23.9-18.6-43.5-42.3-43.9
				c-23.7-0.4-43.3,18.7-43.7,42.6c0,0.4,0,0.9,0,1.3v87L-2246.6-61z"/>
			<path class="st14" d="M-2075.2-294.9c0.2,0.4,0.2,0.9,0,1.3l-27-16.2c1.8-2.8,3.3-5.8,4.4-8.9l15.8,9.4L-2075.2-294.9z"/>
			<path class="st14" d="M-2102.2-310l27,16.2c-0.2,0.5-0.8,0.8-1.3,0.8h-16.6l-15.7-9.4C-2106.3-304.6-2104.1-307.2-2102.2-310z"/>
			<path class="st14" d="M-2089.8-325.5l7.8,16.2l-15.8-9.4c1.1-3.4,1.8-6.9,1.9-10.4l0,0L-2089.8-325.5z"/>
			<path class="st14" d="M-2097.4-341.3l7.5,15.8l-6.1-3.7l0,0c0-0.5,0-1.1,0-1.6C-2096-334.3-2096.5-337.9-2097.4-341.3
				L-2097.4-341.3z"/>
			<path class="st14" d="M-2093.2-293h-19.3l-5.5-3.3l-0.1-0.1c3.3-1.6,6.4-3.6,9.2-6L-2093.2-293z"/>
			<path class="st15" d="M-2149.8-331c-0.2,8.8,6.7,16.1,15.5,16.3c9,0.2,16.5-7.1,16.3-16.3c0,0,0,0,0,0H-2149.8z M-2181.5-307
				l-3-32h1.9l0,0c0.7-2,1.5-3.9,2.4-5.9c4.4-9.3,10.8-17.6,18.8-24.1h27.9c20.7,0,37.5,16.8,37.5,37.5v0.2c0,0.5,0,1.1,0,1.6
				c-0.3,7-2.5,13.7-6.5,19.5c-3.9,6-9.5,10.7-16,13.7c-4.7,2.2-9.8,3.3-15,3.5h-30.9c-1.4,0-2.7,0.2-4,0.6
				c-5.9,1.7-10.1,6.9-10.5,13L-2181.5-307z"/>
			<path class="st14" d="M-2118-296.3l5.5,3.3h-20.4c5.1-0.1,10.2-1.3,14.9-3.4L-2118-296.3z"/>
			<path d="M-2133-331v9.9c-0.1,0.4-0.5,0.8-0.9,0.8c-0.4,0-0.8-0.4-1.1-0.8v-9.9H-2133z"/>
			<path class="st16" d="M-2144-388.2l9.4,19.2h-12.7c6.8,0,3.3-18.8,3.3-18.8l0,0C-2144-387.9-2144-388.1-2144-388.2z"/>
			<path class="st14" d="M-2162-369h-0.8c10.4,0.3,19-8.1,19.2-18.5l0,0c0,0,3.5,18.8-3.3,19.5h-15V-369z"/>
			<path class="st15" d="M-2197.8-86l-5.9-1c-13.2,0.6-25.8,5.8-35.2,15.1c-3.2,3.1-5.9,6.7-8.1,10.5l0-0.2v-87
				c0-23.9,19.7-42.9,43.5-42.6c23.4,0.4,42.2,19.2,42.5,42.6V-86H-2197.8z"/>
			<path class="st14" d="M-2226.4-362.7c-2.1-2.3-4.4-4.4-6.7-6.3h70.6c-8,6.5-14.4,14.8-18.8,24.1c-0.9,1.9-1.7,3.9-2.4,5.9l0,0
				h-28.3l0,0C-2215.2-347.8-2220.1-355.8-2226.4-362.7z"/>
			<path class="st15" d="M-2177.9-279.4l0.2,1.9c1.1,11.1-6.9,21-18,22.2c-11.1,1.1-21-6.9-22.2-18c-0.1-1.4-0.1-2.7,0-4.1l0.2-1.9
				l2.5-27.4c0.2,9.4,7.9,17,17.4,17l0,0c9.5,0,17.2-7.5,17.4-17L-2177.9-279.4z"/>
			<path class="st15" d="M-2183.6-338.4l2.9,31.7c-0.2,9.5-7.9,17-17.4,17l0,0v-30.6L-2183.6-338.4z"/>
			<polygon class="st17" points="-2183.4,-338 -2197.9,-319.9 -2212.3,-338 -2212.2,-338 -2183.5,-338 			"/>
			<path class="st15" d="M-2198-320.3v30.5c-9.5,0-17.2-7.6-17.4-17l2.9-31.6L-2198-320.3z"/>
			<path class="st15" d="M-2227.9-362.6c6.4,6.8,11.3,14.9,14.4,23.6h1.9h-0.1l-3,31.9l-2.6,27.6c-0.6-7.6-6.9-13.5-14.6-13.5h-30.9
				c-5.2-0.1-10.3-1.3-15-3.5c-6.5-3-12-7.7-16-13.7c-1.9-2.8-3.3-5.8-4.4-9c-1.1-3.4-1.8-6.9-1.9-10.5c0-0.5,0-1.2,0-1.8
				c0-20.6,16.6-37.3,37.1-37.5h28.2C-2232.3-367-2230-364.9-2227.9-362.6z M-2277.8-331c-0.2,8.8,6.7,16.1,15.5,16.3
				c9,0.2,16.5-7.1,16.3-16.3c0,0,0,0,0,0H-2277.8L-2277.8-331z"/>
			<path class="st14" d="M-2233.6-368l-15.1-1c-6.8,0.3-3.3-18.5-3.3-18.5l0,0c0.2,10.4,8.7,18.8,19.2,19.5H-2233.6z"/>
			<path class="st16" d="M-2248.7-369h-12.7l9.4-19.1c0,0.1,0,0.2,0,0.4l0,0C-2252-387.8-2255.5-369-2248.7-369z"/>
			<path d="M-2261-331v9.9c0,0.4-0.4,0.8-0.8,0.8c-0.4,0-0.8-0.4-1.2-0.8v0v-9.9H-2261z"/>
			<path class="st14" d="M-2262.8-293h-20.4l5.5-3.3l0.1-0.1C-2273-294.3-2268-293.1-2262.8-293z"/>
			<path class="st14" d="M-2277.7-296.4l-0.1,0.1l-5.5,3.3h-19.3l15.7-9.4C-2284.1-300-2281-298-2277.7-296.4z"/>
			<path class="st14" d="M-2286.9-302.4l-15.7,9.4h-16.6c-0.6,0-1.1-0.3-1.3-0.8l27-16.2C-2291.6-307.2-2289.4-304.6-2286.9-302.4z"
				/>
			<path class="st14" d="M-2293.5-309.8l-27,16.2c-0.2-0.4-0.2-0.9,0-1.3l6.9-14.4l15.8-9.4
				C-2296.8-315.6-2295.4-312.6-2293.5-309.8z"/>
			<path class="st14" d="M-2297.9-318.8l-15.8,9.4l7.7-16.2l6.1-3.7C-2299.6-325.6-2299-322.1-2297.9-318.8z"/>
			<path class="st14" d="M-2298.6-341.3L-2298.6-341.3c-1,3.4-1.5,6.9-1.4,10.5c0,0.5,0,1.1,0,1.6l-6.1,3.7L-2298.6-341.3z"/>
			<path class="st18" d="M-2303.4-174.7c19,19.1,19,49.9,0,69l-20.6-20.6v-58.4l0.2-0.6C-2315.2-182.6-2307.9-179.2-2303.4-174.7z"
				/>
			<path class="st18" d="M-2324.4-126.4l20.6,20.6c-19.1,19-49.9,19-69,0c-8.6-8.5-13.3-27.2-16-45.2h39.9L-2324.4-126.4z"/>
			<path class="st18" d="M-2323.8-185.3l-0.2,0.6v58.4l-24.6-24.6l-43.3-43.3C-2391.8-194.1-2351.4-193.8-2323.8-185.3z"/>
			<path class="st18" d="M-2348.9-151h-39.9c-2-14.3-3.2-28.8-3.4-43.3L-2348.9-151z"/>
			<g>
				<defs>
					<path id="SVGID_13_" d="M-2246.6-61c2.2-3.8,4.9-7.4,8.1-10.5c9.3-9.3,21.9-14.5,35-14.5h42.5v-62.3
						c0.4-23.9-18.6-43.5-42.3-43.9c-23.7-0.4-43.3,18.7-43.7,42.6c0,0.4,0,0.9,0,1.3v87L-2246.6-61z M-2355.4-87h71.4v-28.4
						c0,0,9.4-54.9,20.9-83l0,0c3.2-7.9,6.6-15.6,9.9-22.8c4.7-10.3,9.3-19.6,13.2-27.4c0.9-1.8,1.8-3.4,2.6-5
						c6.2-11.9,9.4-25.2,9.5-38.6c5.7,1.7,9.7,6.8,10.2,12.8l-0.2,1.9c-1.1,11.1,6.9,21,18,22.2c11.1,1.1,21-6.9,22.2-18
						c0.1-1.4,0.1-2.7,0-4.1l-0.2-1.9c0.4-6,4.6-11.2,10.4-12.8c0,7,1.5,13.9,4.5,20.2c3,6.3,7.3,11.9,12.6,16.3l0.1,0.1
						c9.1,7.4,18.7,14,28.9,19.8c13.4,7.6,27.7,13.7,42.5,18.2c17.7,5.4,36,8.4,54.5,8.9c2,0.1,4.1,0.1,6.1,0.6h127.6h35
						c11.6,0,21-9.4,21-21c0-1.1-0.1-2.1-0.2-3.2c-1.6-10.4-10.8-17.8-21.3-17.8h-68l0,0h-27.6c-34-0.4-61.1-28.3-60.7-62.3
						c0.4-33.4,27.4-60.3,60.7-60.7h109.9c11-0.2,20.2,8.5,20.4,19.6c0.2,11-8.5,20.2-19.6,20.4c-0.3,0-0.6,0-0.9,0h-109.5
						c-11,0-20.5,8.2-21.4,19.1c-1.1,12.4,8.7,22.9,20.9,22.9h27.4l0,0h68.8c33.8,0,61.3,27.5,61.3,61.3c0,1,0,2.1-0.1,3.1
						c-1.3,25-17.6,46.7-41.3,54.9l0,0c7.7,11.9,12.1,25.6,12.7,39.8c0.7,16.6-3.8,32.9-12.8,46.9c12.8,4.7,19.4,19,14.7,31.8
						c-3.6,9.7-12.8,16.2-23.2,16.2h-169c0-1.3,0.1-2.7,0.2-4h-91.3c-3.9,2.6-8.4,4-13.1,4h-291c0.3-27.7,22.8-49.9,50.5-49.9
						L-2355.4-87z"/>
				</defs>
				<clipPath id="SVGID_14_">
					<use xlink:href="#SVGID_13_"  style="overflow:visible;"/>
				</clipPath>
				<g class="st19">
					
						<image style="overflow:visible;enable-background:new    ;" width="21333" height="5492" xlink:href="8A5BC7C87A911AE3.png"  transform="matrix(-1.000000e-02 0 0 -1.000000e-02 -2058.6699 -252.08)">
					</image>
				</g>
			</g>
			<path class="st4" d="M-2283.5-86.5h-74.5c-27.7,0-50.2,22.3-50.5,50h156"/>
			<path class="st4" d="M-1971.3-86.4c-7.8-12.6-11.9-27.2-11.9-42c0-1.4,0-2.7,0.1-4c0.8-17.2,7.2-33.6,18.2-46.9"/>
			<path class="st4" d="M-1835.8-84.9L-1835.8-84.9c12.8,4.7,19.4,18.9,14.7,31.8c-3.6,9.7-12.8,16.2-23.2,16.2"/>
			<polyline class="st4" points="-2142.5,-86.5 -2142.5,-96.6 -2142.5,-132.5 			"/>
			<path class="st4" d="M-2092.5-128.5v67c0,13.8-11.2,25-25,25c0,0,0,0,0,0h-137.6c0.1-8.7,2.4-17.3,6.8-24.8
				c2.3-3.9,5-7.4,8.2-10.6c9.5-9.4,22.2-14.6,35.5-14.6h62.1"/>
			<path class="st4" d="M-2161.5-86.5v-62c0.4-23.7-18.6-43.3-42.3-43.7c-23.7-0.4-43.3,18.6-43.7,42.3c0,0.4,0,0.9,0,1.3v87"/>
			<path class="st4" d="M-1881.5-86.5h-82.6c-26,0.3-47.6,20.3-49.8,46.2c-0.1,1.2-0.2,2.5-0.2,3.8h170.6"/>
			<polyline class="st4" points="-2013.5,-40.5 -2019.5,-40.5 -2047.8,-40.5 -2104.5,-40.5 			"/>
			<path class="st4" d="M-1841.5-179.4c2.1,2.5,4.1,5.2,5.9,8c7.7,11.9,12.1,25.6,12.7,39.8c0.7,16.5-3.8,32.9-12.8,46.8"/>
			<path class="st4" d="M-2262.6-198.4c3.2-7.9,6.6-15.6,9.9-22.8c4.7-10.3,9.3-19.6,13.2-27.4c0.9-1.8,1.8-3.4,2.6-5
				c6.2-11.9,9.4-25.2,9.5-38.6v-0.4"/>
			<path class="st4" d="M-2284.5-86.5v-28.9c0-23.8,9.8-54.9,21.3-83"/>
			<path class="st4" d="M-2386.3-54c-2.1,5.5-3.2,11.3-3.2,17.2"/>
			<path class="st4" d="M-2377.1-54c-2.1,5.5-3.2,11.3-3.2,17.2"/>
			<path class="st4" d="M-2230.7-54c-2.1,5.5-3.2,11.3-3.2,17.2"/>
			<path class="st4" d="M-2221.6-54c-2.1,5.5-3.2,11.3-3.2,17.2"/>
			<path class="st4" d="M-1992.9-54c-2.1,5.5-3.1,11.3-3.2,17.2"/>
			<path class="st4" d="M-1983.8-54c-2.1,5.5-3.2,11.3-3.2,17.2"/>
			<path class="st4" d="M-1883.5-250.5h-68.4c-33.7-0.4-60.7-28.1-60.2-61.8c0.4-33.1,27.1-59.8,60.2-60.2h110.1
				c11-0.2,20.2,8.5,20.4,19.6c0.2,11-8.5,20.2-19.6,20.4c-0.3,0-0.6,0-0.9,0h-109.5c-11,0-20.5,8.2-21.4,19.1
				c-1.1,12.4,8.7,22.9,20.9,22.9h68.3"/>
			<path class="st4" d="M-1924.5-250.5h68.2c11.4,0,21.1,8.8,21.5,20.2c0.5,11.6-8.5,21.3-20.1,21.8c-0.3,0-0.6,0-0.9,0h-35
				l-127.4-0.1c-2,0-4.1,0-6.1-0.1c-18.5-0.5-36.8-3.5-54.4-8.9c-14.8-4.5-29-10.6-42.4-18.2c-10.2-5.8-19.8-12.4-28.9-19.8
				l-0.1-0.1c-5.4-4.4-9.7-10-12.6-16.3c-3-6.3-4.5-13.2-4.5-20.2"/>
			<path class="st4" d="M-1924.5-290.5h68.9c33.8,0,61.2,27.4,61.3,61.3c0,1,0,2.1-0.1,3.1c-1.3,25-17.6,46.7-41.3,54.9"/>
			<path class="st4" d="M-2177.9-279.5l0.2,1.9c1.1,11.1-6.9,21-18,22.2c-11.1,1.1-21-6.9-22.2-18c-0.1-1.4-0.1-2.7,0-4.1l0.2-1.9
				l2.5-27.4l2.9-31.6h28.9l2.9,31.7L-2177.9-279.5z"/>
			<polyline class="st4" points="-2212.3,-338.4 -2197.9,-320.3 -2183.4,-338.4 			"/>
			<path class="st4" d="M-2261.5-292.5h-1c-5.1-0.1-10.2-1.3-14.9-3.4c-6.4-3-11.9-7.7-15.8-13.6c-1.8-2.8-3.3-5.8-4.4-8.9
				c-1.1-3.4-1.8-6.9-1.9-10.4c0-0.5,0-1.1,0-1.6c0-20.8,16.8-37.8,37.6-38h0.4"/>
			<line class="st4" x1="-2281.5" y1="-331.5" x2="-2279.5" y2="-331.5"/>
			<path class="st4" d="M-2298.1-341l-7.5,15.8l-7.7,16.2l-6.9,14.4c-0.2,0.4-0.2,0.9,0,1.3c0.3,0.5,0.8,0.8,1.3,0.8h87
				c7.6,0,13.9,5.8,14.4,13.4c0,0.4,0,0.6,0,0.6"/>
			<path class="st4" d="M-2233.3-368.7c-10.5,0-19-8.4-19.2-18.8c0-0.1,0-0.2,0-0.4l-9.4,19.2"/>
			<polyline class="st4" points="-2262.5,-368.5 -2261.5,-368.5 -2248.8,-368.5 -2233.6,-368.5 -2232.9,-368.5 -2202.6,-368.5 
				-2197.5,-368.5 			"/>
			<path class="st4" d="M-2252.1-387.5c0,0-3.5,18.8,3.3,18.8"/>
			<path class="st4" d="M-2233.6-368.8L-2233.6-368.8c2.4,2,4.7,4.1,6.8,6.4c6.4,6.9,11.4,15,14.6,23.9"/>
			<path class="st4" d="M-2273.1-342c6.2-6.2,16.3-6.2,22.5,0c0,0,0,0,0,0"/>
			<line class="st4" x1="-2243.5" y1="-331.5" x2="-2242.5" y2="-331.5"/>
			<polyline class="st4" points="-2261.5,-331.5 -2245.9,-331.5 -2243.5,-331.5 			"/>
			<polyline class="st4" points="-2279.5,-331.5 -2277.8,-331.5 -2257.5,-331.5 			"/>
			<path class="st4" d="M-2133.5-292.5h1.1c5.1-0.1,10.2-1.3,14.9-3.4c6.4-3,11.9-7.7,15.8-13.6c3.8-5.8,6-12.5,6.3-19.4
				c0-0.5,0-1.1,0-1.6c0-21-17-38-38-38"/>
			<path class="st4" d="M-2096.9-341l7.5,15.8l7.8,16.2l6.9,14.4c0.2,0.4,0.2,0.9,0,1.3c-0.2,0.5-0.8,0.8-1.3,0.8h-87
				c-1.4,0-2.7,0.2-4,0.6c-5.8,1.7-10,6.8-10.4,12.8c0,0.3,0,0.6,0,0.6"/>
			<path class="st4" d="M-2162.6-368.7c10.4,0,19-8.4,19.1-18.8c0-0.1,0-0.2,0-0.4l9.4,19.2"/>
			<polyline class="st4" points="-2133.5,-368.5 -2133.9,-368.5 -2134.2,-368.5 -2146.9,-368.5 -2162.1,-368.5 -2162.8,-368.5 
				-2197.5,-368.5 			"/>
			<path class="st4" d="M-2143.6-387.5c0,0,3.5,18.8-3.3,18.8"/>
			<path class="st4" d="M-2162.1-368.8L-2162.1-368.8c-8.1,6.6-14.6,14.9-19,24.4c-0.9,1.9-1.7,3.9-2.4,6"/>
			<path class="st4" d="M-2149.8-331.1c-0.2,8.8,6.7,16.1,15.5,16.3s16.1-6.7,16.3-15.5c0-0.3,0-0.5,0-0.8"/>
			<path class="st4" d="M-2122.6-342c-6.2-6.2-16.3-6.2-22.5,0c0,0,0,0,0,0"/>
			<line class="st4" x1="-2151.5" y1="-331.5" x2="-2153.5" y2="-331.5"/>
			<polyline class="st4" points="-2131.5,-331.5 -2149.8,-331.5 -2149.8,-331.5 -2151.5,-331.5 			"/>
			<polyline class="st4" points="-2115.5,-331.5 -2118,-331.5 -2133.5,-331.5 			"/>
			<path class="st4" d="M-2245.9-331.1c0.2,8.8-6.7,16.1-15.5,16.3c-8.8,0.2-16.1-6.7-16.3-15.5c0-0.3,0-0.5,0-0.8"/>
			<path class="st4" d="M-2180.5-307.5c0,0,0,0.6,0,0.7c-0.2,9.5-8,17.1-17.5,17.1l0,0c-9.5,0-17.3-7.6-17.5-17.1c0-0.1,0-0.7,0-0.7
				"/>
			<path class="st4" d="M-2186.6-285.8c-6.2,6.2-16.3,6.2-22.5,0"/>
			<line class="st4" x1="-2197.5" y1="-320.5" x2="-2197.5" y2="-289.5"/>
			<line class="st4" x1="-2196.5" y1="-362.5" x2="-2168.5" y2="-362.5"/>
			<polyline class="st4" points="-2226.5,-362.5 -2226.8,-362.5 -2212.5,-362.5 			"/>
			<line class="st4" x1="-2214.5" y1="-344.5" x2="-2206.5" y2="-344.5"/>
			<line class="st4" x1="-2210.5" y1="-353.5" x2="-2175.5" y2="-353.5"/>
			<line class="st4" x1="-2196.5" y1="-344.5" x2="-2181.5" y2="-344.5"/>
			<line class="st4" x1="-2293.5" y1="-309.8" x2="-2320.5" y2="-293.6"/>
			<polyline class="st4" points="-2286.9,-302.2 -2302.5,-292.8 -2302.6,-292.8 			"/>
			<line class="st4" x1="-2297.9" y1="-318.8" x2="-2313.6" y2="-309.3"/>
			<polyline class="st4" points="-2277.8,-296.1 -2283.3,-292.8 -2283.3,-292.8 			"/>
			<line class="st4" x1="-2299.8" y1="-329.2" x2="-2305.9" y2="-325.5"/>
			<line class="st4" x1="-2102.2" y1="-309.8" x2="-2075.2" y2="-293.6"/>
			<polyline class="st4" points="-2108.9,-302.2 -2093.2,-292.8 -2093.2,-292.8 			"/>
			<line class="st4" x1="-2097.9" y1="-318.8" x2="-2082.1" y2="-309.3"/>
			<polyline class="st4" points="-2118,-296.1 -2112.5,-292.8 -2112.5,-292.8 			"/>
			<line class="st4" x1="-2095.9" y1="-329.2" x2="-2089.8" y2="-325.5"/>
			<path class="st4" d="M-2226.7-214.4c-9.1-1.4-18-3.6-26.6-6.8c-0.1,0-0.1,0-0.2-0.1"/>
			<path class="st4" d="M-2353-47.4c-2.1,4-4.8,7.5-8.1,10.5"/>
			<path class="st4" d="M-2340.3-69.4c0.9,7.6-0.5,15.2-4,22"/>
			<path class="st4" d="M-2355.2-86.4L-2355.2-86.4c3.4,5.1,5.6,10.9,6.3,17"/>
			<path class="st4" d="M-2324.8-48.4c-0.9,4-2.2,7.9-4,11.6"/>
			<path class="st4" d="M-2332-85.8c4.8,5.1,7.8,15.2,8.2,25.9"/>
			<path class="st4" d="M-2271.4-54.8c1.2,5.9,1.5,12,0.9,18c0,0.1,0,0.3,0,0.3"/>
			<path class="st4" d="M-2284.4-86.5c5.2,2.8,10.5,8.9,14.6,16.5"/>
			<path class="st4" d="M-2308.7-76.3c2,6,3,12.3,3,18.6c0,7.5-2.6,15.6-5.1,20.9"/>
			<path class="st4" d="M-2289.6-44.1c-0.5,2.3-1.2,4.5-2,6.7"/>
			<path class="st4" d="M-2299.4-85.8c5.6,5,9.8,15.8,10.9,27.2c0.1,1.5,0.2,3.1,0.1,4.6"/>
			<path class="st4" d="M-2275.7-103.4c7.2-1.7,14.7,1.1,21,6.9"/>
			<path class="st4" d="M-2273.4-86.5c8.4,0,15.9,5.8,20.7,14.7"/>
			<path class="st4" d="M-2263-123.1c7.5,2.4,13.5,9.6,15.7,18.8c0.1,0.2,0.1,0.5,0.2,0.7"/>
			<path class="st4" d="M-2284.4-115.4c2.2-2.9,5-5.3,8.3-6.9"/>
			<path class="st4" d="M-2252.7-137.4c1.7,1.7,3.1,3.6,4.3,5.6"/>
			<path class="st4" d="M-2279.1-139.6c2.6-2.2,5.8-3.7,9.2-4.2c3.7-0.5,7.5,0.1,10.9,1.8"/>
			<path class="st4" d="M-2254.6-167.6c3.3,1.8,6.2,4.4,8.4,7.5"/>
			<path class="st4" d="M-2278.1-154.2c5.7-6.3,15.1-7.8,22.5-3.6"/>
			<path class="st4" d="M-2269.8-177.8c2.6-2.1,5.6-3.4,8.9-3.9c5-0.6,10.1,0.7,14.2,3.8"/>
			<path class="st4" d="M-2247-191.8c4.5,2.2,8.2,5.7,10.8,10"/>
			<path class="st4" d="M-2263.1-198.4L-2263.1-198.4c3.2-2.7,7-4.5,11.2-5.1c6.6-1,13,1.2,18.3,5.6"/>
			<path class="st4" d="M-2107.9-209.8c9.3-4,19.1-6.6,29.1-7.7h0.3"/>
			<path class="st4" d="M-2160.6-154.2c4.3-10.6,10.4-20.5,18-29.1"/>
			<path class="st4" d="M-2123.4-218.8c6-2.5,12.4-4.1,18.9-4.8"/>
			<path class="st4" d="M-2195.5-47.4c-2.1,4-4.8,7.5-8.1,10.5"/>
			<path class="st4" d="M-2182.8-69.4c0.2,1.5,0.2,2.9,0.2,4.4c0,6.1-1.5,12.2-4.3,17.6"/>
			<path class="st4" d="M-2197.8-86.4L-2197.8-86.4c3.4,5.1,5.6,10.9,6.3,17"/>
			<path class="st4" d="M-2167.3-48.4c-0.9,4-2.2,7.9-4,11.6"/>
			<path class="st4" d="M-2174.5-85.8c4.8,5.1,7.8,15.2,8.2,25.9"/>
			<path class="st4" d="M-2113.5-54.8c1.2,5.7,1.5,11.5,0.9,17.3"/>
			<path class="st4" d="M-2126.9-86.5c5.2,2.8,10.5,8.9,14.6,16.5"/>
			<path class="st4" d="M-2151.3-76.3c2,6,3,12.3,3,18.6c0,7.5-2.6,15.6-5.1,20.9"/>
			<path class="st4" d="M-2141.9-85.8c5.6,5,9.8,15.8,10.9,27.2c0.1,1.5,0.2,3.1,0.1,4.6"/>
			<path class="st4" d="M-2115.9-86.5c8.4,0,15.9,5.8,20.7,14.7"/>
			<path class="st4" d="M-1961.6-47.4c-2.1,4-4.8,7.5-8.1,10.5"/>
			<path class="st4" d="M-1948.8-69.4c0.2,1.5,0.2,2.9,0.2,4.4c0,6.1-1.5,12.2-4.3,17.6"/>
			<path class="st4" d="M-1963.8-86.4L-1963.8-86.4c3.4,5.1,5.6,10.9,6.3,17"/>
			<path class="st4" d="M-1933.4-48.4c-0.9,4-2.2,7.9-4,11.6"/>
			<path class="st4" d="M-1863-48.4c-0.9,4-2.2,7.9-4,11.6"/>
			<path class="st4" d="M-1940.5-85.8c4.8,5.1,7.8,15.2,8.2,25.9"/>
			<path class="st4" d="M-1885-54.5c-0.7,6.1-2.3,12-4.7,17.6"/>
			<path class="st4" d="M-1893-86.5l0.2,0.1c5.2,2.8,10.4,8.9,14.5,16.4"/>
			<path class="st4" d="M-1917.3-76.3c2,6,3,12.3,3,18.6c0,7.5-2.6,15.6-5.1,20.9"/>
			<path class="st4" d="M-1851-76.3c2,6,3,12.3,3,18.6c0,7.5-2.6,15.6-5.1,20.9"/>
			<path class="st4" d="M-1908-85.8c5.6,5,9.8,15.8,10.9,27.2c0.1,1.5,0.2,3.1,0.2,4.6"/>
			<path class="st4" d="M-1881.9-86.5c8.4,0,15.9,5.8,20.7,14.7"/>
			<path class="st4" d="M-2324.2-185.3c8.6,2.7,15.9,6.1,20.4,10.6c19.7,18.4,20.8,49.3,2.4,69s-49.3,20.8-69,2.4
				c-0.8-0.8-1.6-1.6-2.4-2.4c-8.6-8.5-13.3-27.2-16-45.2c-2-14.3-3.2-28.8-3.4-43.3C-2392.2-194.1-2351.8-193.8-2324.2-185.3z"/>
			<polyline class="st4" points="-2392.2,-194.1 -2348.9,-150.8 -2324.4,-126.2 -2303.8,-105.6 -2285.2,-87.1 			"/>
			<line class="st4" x1="-2324.5" y1="-126.5" x2="-2324.5" y2="-184.5"/>
			<line class="st4" x1="-2348.5" y1="-150.5" x2="-2388.5" y2="-150.5"/>
			<path class="st4" d="M-2213.6-245.6c-8.9-0.3-17.7-1.3-26.4-2.9"/>
			<path class="st4" d="M-2150.3-255.7L-2150.3-255.7c-6,4-17.6,7.3-32.2,9"/>
			<path class="st4" d="M-2163-272c-2.5,0.5-5.4,1-8.6,1.4"/>
			<path class="st4" d="M-2221.5-269.9c-3.3-0.3-6.4-0.6-9.3-1l0,0"/>
			<path class="st4" d="M-2233.6-231.9c-4.1-1-8.1-2.3-12.1-3.9"/>
			<path class="st4" d="M-2200.2-228.2c-6.5,0-13-0.4-19.4-1.2"/>
			<path class="st4" d="M-2139.1-246.7c-5.7,6.3-18.1,11.4-34.1,14.1"/>
			<path class="st4" d="M-2121.3-235.8c-6.8,4.6-14,8.6-21.5,12"/>
			<path class="st4" d="M-2047.8-40.6c-13.4-12.9-21.1-30.7-21.1-49.3"/>
			<path class="st4" d="M-2150.6-107.7c-0.3-2.8-0.4-5.7-0.4-8.5c0-10.6,2.1-21.2,6.2-31"/>
			<path class="st4" d="M-2017.5-150.8c8.5-9,19-15.8,30.6-20"/>
			<path class="st4" d="M-2019.5-40.6c-22.3-25.3-26.8-61.6-11.3-91.6"/>
			<path class="st4" d="M-1876.8-208.4c0.1,1.1,0.1,2.2,0.1,3.3c0,37.9-30.7,68.6-68.6,68.6"/>
			<path class="st4" d="M-1983.5-132.5h0.4c6.8-2.6,13.9-4.1,21.1-4.4"/>
			<path class="st4" d="M-2014.4-79.7c-3.8-20.7,2-42,15.8-57.8"/>
			<path class="st4" d="M-2210.5-211.6c0,0,29.8,6.9,54.3-5.4"/>
			<path class="st4" d="M-2137.6-209.8c0,0-27.8,10.3-38.2,28.5l0,0"/>
			<path class="st4" d="M-1825.5-206.5c9.1,4.7,12.7,15.8,8.2,24.9c0,0.1-0.1,0.2-0.2,0.3"/>
			<path class="st4" d="M-1817.8-238.3c9.8-3.1,20.2,2.2,23.5,11.9c0,0.1,0,0.1,0.1,0.2"/>
			<path class="st4" d="M-1834.9-223.2c9.9-3.1,20.4,2.3,23.5,12.1c0,0,0,0,0,0"/>
			<path class="st4" d="M-1853.2-208.4c10.3,0,18.7,8.4,18.7,18.7c0,0,0,0.2,0,0.2"/>
			<path class="st4" d="M-2024.3-208.6l-12.7,8.3c-8,5.3-16.4,10-25,14.1"/>
			<path class="st4" d="M-2071.6-202.2l-8.7,5.2c-5.6,3.4-11.5,6.3-17.6,8.9l-28.7,11.8"/>
			<path class="st4" d="M-2108.7-106.7c5.7,0,11.4,1.8,16,5.2c0.2,0.1,0.3,0.2,0.5,0.4"/>
			<path class="st4" d="M-2142.6-96.6l1.2-0.4c8.4-2.4,17.1-3.3,25.8-2.6"/>
			<path class="st4" d="M-2048.5-167.2c-21.1,7.9-35.4,27.6-36.5,50.1"/>
			<path class="st4" d="M-1999.2-199l-1.8,2.6c-5.8,8.7-13.9,15.6-23.4,20"/>
			<path class="st4" d="M-1946.9-168.7c16.8,0,31.7-10.8,37-26.8"/>
			<path class="st4" d="M-1983.9-103.8c-5.7,4.6-9.1,11.6-9.1,19"/>
			<path class="st4" d="M-1823.1-123.1c0,1.4-0.1,2.9-0.4,4.3c-3,15-21.3,26.5-43.4,26.5"/>
			<path class="st4" d="M-1968.6-197.9c8-6.4,19.8-10.5,33-10.5"/>
			<path class="st4" d="M-1932.6-265c-0.3-1.9-0.5-3.8-0.5-5.7c0-7.2,2.3-14.2,6.5-20"/>
			<path class="st4" d="M-1902-273.8c0.5-6.1,2.7-11.9,6.4-16.8"/>
			<path class="st4" d="M-1869.8-265c-1.1-6.5-0.3-13.2,2.4-19.3"/>
			<path class="st4" d="M-1912.3-251.2c-3.4-6-5.2-12.7-5.1-19.6"/>
			<path class="st4" d="M-1882.1-251.2c-3.4-6-5.2-12.7-5.1-19.6"/>
			<path class="st4" d="M-1974.3-283.3c3-4.5,7.1-8,11.9-10.4"/>
			<path class="st4" d="M-1980-257.4c-0.3-1.9-0.4-3.7-0.4-5.6c0-3.4,0.4-6.7,1.3-10"/>
			<path class="st4" d="M-1920.1-360.6c0-4.3,1-8.5,2.7-12.4"/>
			<path class="st4" d="M-1939.7-332.8c-5.4-9.1-6.1-20.2-1.9-29.8"/>
			<path class="st4" d="M-1856.5-332.8c-7.4-8.1-10.1-19.5-7.2-30"/>
			<path class="st4" d="M-1899.3-339.5c-3.8-7.2-4.7-15.5-2.5-23.3"/>
			<path class="st4" d="M-1988-323.8c5.9,1,11.3,3.7,15.7,7.8"/>
			<path class="st4" d="M-2012.9-316.1c3.4-3.2,7.4-5.6,11.9-6.9"/>
			<path class="st4" d="M-1998.3-302.2c1.6-1.1,3.2-2.1,5-2.9c4.8-2.2,10.2-2.9,15.4-2.3"/>
			<path class="st4" d="M-2004.1-343.6c7.3-5.1,17-5.7,24.9-1.5c4.7,2.4,8.4,6.3,10.7,11"/>
			<path class="st4" d="M-1959.6-351.2c1.3,3.7,2.1,7.5,2.4,11.4"/>
			<path class="st4" d="M-1972.4-369.3c4.2,3.1,7.6,7.1,10,11.7"/>
			<path class="st4" d="M-1956-253.9c-1.6-4-2.4-8.2-2.4-12.5c0-5,1.1-10,3.3-14.6"/>
			<path class="st4" d="M-1884.4-349.2c-0.8-9.4,2-18.1,7.4-23.8"/>
			<path class="st4" d="M-1879.4-332.8c-1-1.7-1.8-3.6-2.5-5.4c-0.2-0.5-0.4-1.1-0.6-1.6"/>
			<path class="st4" d="M-1993.6-277.1c2.2-6.4,6.1-12.1,11.2-16.5"/>
			<path class="st4" d="M-1834.6-244.9c6.2-7.9,15.7-12.5,25.7-12.5"/>
			<path class="st4" d="M-1851.5-257.4c2.2-10.7,9.3-19.7,19.1-24.2"/>
			<path class="st4" d="M-1882.4-92.3c-2.7,2.1-5.4,4-8.3,5.8"/>
			<path class="st4" d="M-1851.8-134.7c-4.9,14.6-13.5,27.7-25,38"/>
			<path class="st4" d="M-1828.5-155.8c-1.4,9-4.3,17.7-8.4,25.7"/>
			<path class="st4" d="M-1850.3-183.3c1.9,7.1,2.8,14.4,2.8,21.8"/>
			<path class="st4" d="M-1871.6-131.8c-10.9,22.9-31.4,39.9-55.9,45"/>
			<path class="st4" d="M-1870.5-208.4c1.9,4,3.5,8.2,4.7,12.4"/>
			<path class="st4" d="M-1880.3-152.9c-12.8,29-41.1,49.2-74,49.2c-6.2,0-12.3-0.7-18.3-2.1"/>
			<path class="st4" d="M-2119.6-148.7c12.3-13.5,27.1-24.4,43.6-32.1l2.8-1.3"/>
			<path class="st4" d="M-2115.3-115.4c9.1,0,17.1,2.2,21.8,5.5"/>
			<path class="st4" d="M-2142.4-118.3c4.8-2.9,12.3-4.8,20.7-4.8"/>
			<polygon class="st13" points="-1920.4,-330 -1915.1,-315.7 -1899.5,-314.8 -1911.1,-305.1 -1907.5,-290.1 -1920.4,-299.2 
				-1933.3,-290.1 -1929.7,-305.1 -1941.3,-314.8 -1925.7,-315.7 			"/>
			<path class="st4" d="M-1914.1-311.8c0,3.5-2.8,6.3-6.3,6.3s-6.3-2.8-6.3-6.3"/>
		</g>
		<g id="copy_1_">
			<text transform="matrix(1 0 0 1 -2415.895 61.258)" style="fill:#43AAA5; font-family:'Futura-Bold'; font-size:90px;">F</text>
			<text transform="matrix(1 0 0 1 -2366.5752 61.258)" style="fill:#43AAA5; font-family:'Futura-Bold'; font-size:90px;">ind </text>
			
				<text transform="matrix(1 0 0 1 -2185.6753 61.258)" style="fill:#43AAA5; font-family:'Futura-Bold'; font-size:90px; letter-spacing:1;">t</text>
			<text transform="matrix(1 0 0 1 -2150.0352 61.258)" style="fill:#43AAA5; font-family:'Futura-Bold'; font-size:90px;">he </text>
			<text transform="matrix(1 0 0 1 -2001.4551 61.258)" style="fill:#43AAA5; font-family:'Futura-Bold'; font-size:90px;">St</text>
			<text transform="matrix(1 0 0 1 -1907.9451 61.258)" style="fill:#43AAA5; font-family:'Futura-Bold'; font-size:90px;">ar</text>
			<text transform="matrix(1 0 0 1 -2411.7351 104.138)" style="fill:#43AAA5; font-family:'Futura-Bold'; font-size:28px;">A SEA</text>
			<text transform="matrix(1 0 0 1 -2320.4551 104.138)" style="fill:#43AAA5; font-family:'Futura-Bold'; font-size:28px;">R</text>
			
				<text transform="matrix(1 0 0 1 -2300.4351 104.138)" style="fill:#43AAA5; font-family:'Futura-Bold'; font-size:28px; letter-spacing:1;">C</text>
			<text transform="matrix(1 0 0 1 -2280.3052 104.138)" style="fill:#43AAA5; font-family:'Futura-Bold'; font-size:28px;">H &amp; </text>
			<text transform="matrix(1 0 0 1 -2211.7651 104.138)" style="fill:#43AAA5; font-family:'Futura-Bold'; font-size:28px;">C</text>
			<text transform="matrix(1 0 0 1 -2192.2151 104.138)" style="fill:#43AAA5; font-family:'Futura-Bold'; font-size:28px;">O</text>
			<text transform="matrix(1 0 0 1 -2165.7551 104.138)" style="fill:#43AAA5; font-family:'Futura-Bold'; font-size:28px;">L</text>
			<text transform="matrix(1 0 0 1 -2150.7251 104.138)" style="fill:#43AAA5; font-family:'Futura-Bold'; font-size:28px;">OR A</text>
			<text transform="matrix(1 0 0 1 -2070.7551 104.138)" style="fill:#43AAA5; font-family:'Futura-Bold'; font-size:28px;">D</text>
			<text transform="matrix(1 0 0 1 -2049.2251 104.138)" style="fill:#43AAA5; font-family:'Futura-Bold'; font-size:28px;">VENTURE </text>
			<text transform="matrix(1 0 0 1 -1898.0251 104.138)" style="fill:#43AAA5; font-family:'Futura-Bold'; font-size:28px;">B</text>
			<text transform="matrix(1 0 0 1 -1878.2551 104.138)" style="fill:#43AAA5; font-family:'Futura-Bold'; font-size:28px;">OOK</text>
		</g>
	</g>
</g>
<g>
	
		<image style="overflow:visible;opacity:0.15;" width="945" height="811" xlink:href="8A5BC7C87A911AEC.png"  transform="matrix(1 0 0 1 -280 -257)">
	</image>
	<g>
		
			<image style="overflow:visible;" width="1584" height="1224" xlink:href="../hero/07.png"  transform="matrix(0.486 -0.1173 0.1173 0.486 -264.0261 -58.5728)">
		</image>
	</g>
</g>
<g>
	
		<image style="overflow:visible;opacity:0.15;" width="862" height="693" xlink:href="8A5BC7C87A911AED.png"  transform="matrix(1 0 0 1 1752 -136)">
	</image>
	<g>
		
			<image style="overflow:visible;" width="1584" height="1224" xlink:href="../hero/08.png"  transform="matrix(0.4989 -3.253678e-02 3.253679e-02 0.4989 1767.9269 -71.5823)">
		</image>
	</g>
</g>
<g>
	
		<image style="overflow:visible;opacity:0.15;" width="863" height="696" xlink:href="8A5BC7C87A911AE5.png"  transform="matrix(1 0 0 1 976 -130)">
	</image>
	<g>
		
			<image style="overflow:visible;" width="1584" height="1224" xlink:href="../hero/03.png"  transform="matrix(0.4988 3.410560e-02 -3.410584e-02 0.4988 1033.6787 -117.0565)">
		</image>
	</g>
</g>
<g>
	<g>
		
			<image style="overflow:visible;opacity:0.15;" width="870" height="706" xlink:href="FF43DFF9B6F8E343.png"  transform="matrix(1 0 0 1 145 173)">
		</image>
		<g>
			
				<image style="overflow:visible;" width="1584" height="1224" xlink:href="../hero/09.png"  transform="matrix(0.4984 -4.056730e-02 4.056701e-02 0.4984 160.8549 250.5284)">
			</image>
		</g>
	</g>
	<g>
		
			<image style="overflow:visible;opacity:0.15;" width="868" height="701" xlink:href="FF43DFF9B6F8E347.png"  transform="matrix(1 0 0 1 1536 191)">
		</image>
		<g>
			
				<image style="overflow:visible;" width="1584" height="1224" xlink:href="../hero/18.png"  transform="matrix(0.4986 3.789247e-02 -3.789284e-02 0.4986 1598.3276 203.5288)">
			</image>
		</g>
	</g>
</g>
<g>
	<g>
		
			<image style="overflow:visible;opacity:0.15;" width="852" height="672" xlink:href="FF43DFF9B6F8E342.png"  transform="matrix(1 0 0 1 854 42)">
		</image>
		<g>
			
				<image style="overflow:visible;" width="1584" height="1224" xlink:href="../hero/01_cover.png"  transform="matrix(0.5 0 0 0.5 884 67)">
			</image>
		</g>
	</g>
	<g>
		
			<image style="overflow:visible;opacity:0.15;" width="823" height="35" xlink:href="FF43DFF9B6F8E35F.png"  transform="matrix(1 0 0 1 869 669)">
		</image>
		<g>
			<polygon class="st20" points="1677,684 885,684 884,679 1676,679 			"/>
		</g>
	</g>
	<line class="st21" x1="892" y1="68" x2="892" y2="680"/>
	<line class="st22" x1="893" y1="68" x2="893" y2="680"/>
</g>
<line class="st21" x1="884" y1="684" x2="1677" y2="684"/>
</svg>
