<?xml version="1.0" encoding="utf-8"?>
<!-- Generator: Adobe Illustrator 24.1.2, SVG Export Plug-In . SVG Version: 6.00 Build 0)  -->
<svg version="1.1" id="Layer_1" xmlns="http://www.w3.org/2000/svg" xmlns:xlink="http://www.w3.org/1999/xlink" x="0px" y="0px"
	 viewBox="0 0 48 48" style="enable-background:new 0 0 48 48;" xml:space="preserve">
<style type="text/css">
	.st0{fill:none;stroke:#000000;stroke-width:3;stroke-miterlimit:10;}
</style>
<path d="M37,5c3.3,0,6,2.7,6,6v26c0,3.3-2.7,6-6,6H11c-3.3,0-6-2.7-6-6V11c0-3.3,2.7-6,6-6H37 M37,2H11c-5,0-9,4-9,9v26c0,5,4,9,9,9
	h26c5,0,9-4,9-9V11C46,6,42,2,37,2z"/>
<circle class="st0" cx="24" cy="24" r="10"/>
<path d="M36,10c-1.1,0-2,0.9-2,2s0.9,2,2,2s2-0.9,2-2S37.1,10,36,10z"/>
</svg>
