<?xml version="1.0" encoding="utf-8"?>
<!-- Generator: Adobe Illustrator 24.1.2, SVG Export Plug-In . SVG Version: 6.00 Build 0)  -->
<svg version="1.1" id="Layer_1" xmlns="http://www.w3.org/2000/svg" xmlns:xlink="http://www.w3.org/1999/xlink" x="0px" y="0px"
	 viewBox="0 0 48 48" style="enable-background:new 0 0 48 48;" xml:space="preserve">
<style type="text/css">
	.st0{fill:none;stroke:#000000;stroke-width:3;stroke-linecap:square;stroke-miterlimit:10;}
	.st1{fill:none;stroke:#000000;stroke-width:3;stroke-miterlimit:10;}
</style>
<path d="M24,5c10.5,0,19,8.5,19,19s-8.5,19-19,19S5,34.5,5,24S13.5,5,24,5 M24,2L24,2C11.8,2,2,11.8,2,24l0,0c0,12.2,9.8,22,22,22
	l0,0c12.2,0,22-9.8,22-22l0,0C46,11.8,36.2,2,24,2z"/>
<path class="st0" d="M8.4,34.4C12.6,30.3,18.2,28,24,28l0,0c5.8,0,11.4,2.3,15.5,6.4"/>
<path class="st1" d="M39.5,12c-4.1,4.1-9.7,6.4-15.6,6.4l0,0c-5.8,0-11.4-2.3-15.5-6.4"/>
<line class="st1" x1="24" y1="3.5" x2="24" y2="44.5"/>
</svg>
