<?xml version="1.0" encoding="utf-8"?>
<!-- Generator: Adobe Illustrator 24.1.2, SVG Export Plug-In . SVG Version: 6.00 Build 0)  -->
<svg version="1.1" id="Layer_1" xmlns="http://www.w3.org/2000/svg" xmlns:xlink="http://www.w3.org/1999/xlink" x="0px" y="0px"
	 viewBox="0 0 48 48" style="enable-background:new 0 0 48 48;" xml:space="preserve">
<style type="text/css">
	.st0{fill:none;stroke:#000000;stroke-width:3;stroke-linejoin:round;}
	.st1{fill:none;stroke:#000000;stroke-width:3;stroke-miterlimit:10;}
</style>
<path class="st0" d="M2.9,36.2c9.8,8.3,24.4,7.1,32.7-2.7c3.6-4.2,5.5-9.5,5.5-15L41,16c-0.5-4.7-4.6-8.7-9-8.7
	c-4.5,0.1-8.1,3.8-8,8.3c0,0.1,0,0.2,0,0.3V16c0.1,1.3,0.6,2.5,1.4,3.5l2.6,3.2c-8.4-0.8-16-5-21.1-11.7C6.3,13.8,6.5,19.5,8,25.2
	v0.1c0.8,2.8,2.2,5.5,4.2,7.7l1.4,1.6"/>
<line class="st1" x1="46" y1="10.7" x2="39.1" y2="14.1"/>
</svg>
