<?xml version="1.0" encoding="utf-8"?>
<!-- Generator: Adobe Illustrator 24.1.2, SVG Export Plug-In . SVG Version: 6.00 Build 0)  -->
<svg version="1.1" id="Layer_1" xmlns="http://www.w3.org/2000/svg" xmlns:xlink="http://www.w3.org/1999/xlink" x="0px" y="0px"
	 viewBox="0 0 48 48" style="enable-background:new 0 0 48 48;" xml:space="preserve">
<style type="text/css">
	.st0{fill:none;stroke:#000000;stroke-width:3;stroke-miterlimit:10;}
</style>
<path d="M37,6c3.3,0,6,2.7,6,6v23c0,3.3-2.7,6-6,6H11c-3.3,0-6-2.7-6-6V12c0-3.3,2.7-6,6-6H37 M37,3H11c-5,0-9,4-9,9v23c0,5,4,9,9,9
	h26c5,0,9-4,9-9V12C46,7,42,3,37,3z"/>
<path class="st0" d="M44.5,9.6L26.1,28c-1.2,1.2-3.1,1.2-4.2,0L3.6,9.8"/>
</svg>
