<svg xmlns="http://www.w3.org/2000/svg" xmlns:xlink="http://www.w3.org/1999/xlink" viewBox="0 0 792 612"><defs><style>.cls-1,.cls-4,.cls-5{fill:none;}.cls-2{clip-path:url(#clip-path);}.cls-3{fill:#fff;}.cls-3,.cls-4{stroke:#000;}.cls-3,.cls-4,.cls-5{stroke-linecap:round;stroke-linejoin:round;}.cls-5{stroke:#fff;}.cls-6{font-size:14px;}.cls-6,.cls-9{font-family:Futura-Medium, Futura;font-weight:500;letter-spacing:0.02em;}.cls-7{letter-spacing:0.03em;}.cls-8{letter-spacing:0.02em;}.cls-9{font-size:8px;}.cls-10{letter-spacing:-0.06em;}.cls-11{letter-spacing:-0.06em;}.cls-12{letter-spacing:0.06em;}.cls-13{letter-spacing:0em;}</style><clipPath id="clip-path"><circle class="cls-1" cx="616.53" cy="805.47" r="138.44"/></clipPath></defs><g id="art"><g class="cls-2"><circle class="cls-3" cx="658.37" cy="660.15" r="50.8"/></g><path class="cls-4" d="M246.16,233.22H207.69c-14.77,0-26.75,32.5-26.75,72.6s12,72.61,26.75,72.61h38.47"/><path class="cls-3" d="M495.14,222.55c17,0,30.69,37.28,30.69,83.27s-13.74,83.27-30.69,83.27"/><path class="cls-3" d="M253.34,389.09c-16.94,0-30.68-37.28-30.68-83.27s13.74-83.27,30.68-83.27h241.8c-16.94,0-30.68,37.28-30.68,83.27s13.74,83.27,30.68,83.27Z"/><polyline class="cls-3" points="480.69 378.43 531.93 378.43 531.93 233.22 480.69 233.22"/><ellipse class="cls-3" cx="530.9" cy="305.82" rx="26.75" ry="72.6"/><path class="cls-3" d="M605.15,277.1l-71.74-9.82c-4.4,0-8,17-8,38.07s3.56,38.07,8,38.07l71.74-9.83"/><ellipse class="cls-3" cx="605.15" cy="305.35" rx="5.91" ry="28.24"/><ellipse class="cls-3" cx="347.29" cy="306" rx="58.77" ry="27.48"/><path d="M284.51,389.32H257.86a186.66,186.66,0,0,1,0-166.64h26.65A186.6,186.6,0,0,0,284.51,389.32Z"/><path class="cls-5" d="M278.86,221.74c-4.83,10-19.23,10-23.19,20.27-3.58,10.38,10.82,10.39,8.11,20.95-2.32,10.64-16.72,10.65-18.17,21.41C244.55,295.15,259,295.16,258.76,306c.19,10.83-14.21,10.84-13.15,21.63,1.45,10.75,15.85,10.77,18.17,21.4,2.71,10.57-11.69,10.58-8.12,21,4,10.27,18.36,10.28,23.2,20.28"/><path d="M466.31,389.32H439.67a186.66,186.66,0,0,1,0-166.64h26.64A186.66,186.66,0,0,0,466.31,389.32Z"/><path class="cls-5" d="M460.67,221.74c-4.84,10-19.24,10-23.2,20.27-3.57,10.38,10.83,10.39,8.12,20.95-2.32,10.64-16.72,10.65-18.17,21.41-1.06,10.78,13.34,10.79,13.14,21.62.2,10.83-14.2,10.84-13.14,21.63,1.45,10.75,15.85,10.77,18.17,21.4,2.7,10.57-11.7,10.58-8.12,21,4,10.27,18.36,10.28,23.2,20.28"/><path class="cls-3" d="M391.33,350.44a207.68,207.68,0,0,1-39.42,3.66,201.43,201.43,0,0,1-48.65-5.71"/><path class="cls-3" d="M303.26,263.61a201.43,201.43,0,0,1,48.65-5.71,207.68,207.68,0,0,1,39.42,3.66"/><polygon class="cls-4" points="347.29 284.66 352.62 298.91 368.23 299.87 356.62 309.5 360.23 324.48 347.29 315.38 334.35 324.48 337.97 309.5 326.36 299.87 341.97 298.91 347.29 284.66"/><path class="cls-4" d="M353.59,302.85a6.3,6.3,0,1,1-12.59,0"/><path class="cls-4" d="M253.34,389.09c-16.94,0-30.68-37.28-30.68-83.27s13.74-83.27,30.68-83.27h241.8c-16.94,0-30.68,37.28-30.68,83.27s13.74,83.27,30.68,83.27Z"/></g><g id="copy"><text class="cls-6" transform="translate(424 482.4)">This book belongs <tspan class="cls-7" x="123.58" y="0">t</tspan><tspan class="cls-8" x="127.78" y="0">o</tspan></text><text class="cls-9" transform="translate(81.94 499.85)">A Self Publication 2<tspan class="cls-10" x="74.37" y="0">0</tspan><tspan class="cls-11" x="78.85" y="0">1</tspan><tspan x="83.3" y="0">9©</tspan></text><text class="cls-6" transform="translate(81.94 482.4)">A<tspan class="cls-12" x="10.65" y="0">r</tspan><tspan x="16.67" y="0">t </tspan><tspan class="cls-13" x="25.38" y="0">b</tspan><tspan class="cls-8" x="33.8" y="0">y Mat Helme</tspan></text><line class="cls-4" x1="424" y1="539.73" x2="746" y2="539.73"/></g></svg>