<svg xmlns="http://www.w3.org/2000/svg" xmlns:xlink="http://www.w3.org/1999/xlink" viewBox="0 0 792 612"><defs><style>.cls-1,.cls-2,.cls-7,.cls-8{fill:none;}.cls-2,.cls-3{stroke:#000;}.cls-2,.cls-3,.cls-7,.cls-8{stroke-linecap:round;stroke-linejoin:round;}.cls-3,.cls-4{fill:#fff;}.cls-5{clip-path:url(#clip-path);}.cls-6{clip-path:url(#clip-path-2);}.cls-7,.cls-8{stroke:#dddede;stroke-width:0.5px;}.cls-8{stroke-dasharray:4 8;}</style><clipPath id="clip-path"><path class="cls-1" d="M296.66,313.67s0,33.18-42.18,33.18c-39.6,0-42.17-33.18-42.17-33.18Z"/></clipPath><clipPath id="clip-path-2"><path class="cls-1" d="M605.73,198.26s0,50.26,63.89,50.26c60,0,63.89-50.26,63.89-50.26Z"/></clipPath></defs><g id="art"><polyline class="cls-2" points="72.81 501.42 504.92 501.42 504.92 575"/><path class="cls-2" d="M535,37c.26,2.59,6.46,50.78,50.59,71.72a86.44,86.44,0,0,0,32.06,8.17"/><polygon class="cls-2" points="428 106.64 433.32 120.9 448.94 121.85 437.32 131.49 440.94 146.47 428 137.37 415.06 146.47 418.68 131.49 407.06 121.85 422.68 120.9 428 106.64"/><path class="cls-2" d="M434.29,124.84a6.29,6.29,0,0,1-12.58,0"/><line class="cls-2" x1="428" y1="150.33" x2="428" y2="171.08"/><line class="cls-2" x1="447.33" y1="139.05" x2="465.25" y2="152.23"/><line class="cls-2" x1="390.75" y1="97.45" x2="412.14" y2="113.18"/><line class="cls-2" x1="444.3" y1="113.18" x2="465.61" y2="97.93"/><line class="cls-2" x1="390.4" y1="151.74" x2="408.14" y2="139.05"/><line class="cls-2" x1="428" y1="101.55" x2="428" y2="37"/><circle class="cls-2" cx="428" cy="104.1" r="2.55"/><polygon class="cls-3" points="268.33 488.94 226.95 488.94 226.95 447.87 250.34 447.87 250.34 474.98 268.33 488.94 268.33 488.94"/><rect class="cls-3" x="236.09" y="453.19" width="8.91" height="10.6" rx="4.46" transform="translate(481.08 916.98) rotate(180)"/><rect class="cls-3" x="239.35" y="457.23" width="15.45" height="2.52" rx="1.26" transform="translate(494.15 916.98) rotate(-180)"/><path class="cls-3" d="M239.35,489.09a11.74,11.74,0,0,0-11.73-11.74"/><circle class="cls-3" cx="220.53" cy="447.24" r="6.42"/><rect class="cls-3" x="222.63" y="488.94" width="50.02" height="12.48" transform="translate(495.28 990.36) rotate(-180)"/><path class="cls-4" d="M272.65,500.94c-2.78,0-2.78-11.52-5.55-11.52s-2.78,11.52-5.56,11.52-2.78-11.52-5.55-11.52-2.78,11.52-5.56,11.52-2.78-11.52-5.56-11.52-2.78,11.52-5.55,11.52-2.78-11.52-5.56-11.52-2.78,11.52-5.56,11.52-2.79-11.52-5.57-11.52"/><path class="cls-2" d="M272.65,500.94c-2.78,0-2.78-11.52-5.55-11.52s-2.78,11.52-5.56,11.52-2.78-11.52-5.55-11.52-2.78,11.52-5.56,11.52-2.78-11.52-5.56-11.52-2.78,11.52-5.55,11.52-2.78-11.52-5.56-11.52-2.78,11.52-5.56,11.52-2.79-11.52-5.57-11.52"/><rect class="cls-3" x="236.09" y="467.58" width="8.91" height="10.6" rx="4.46" transform="translate(481.08 945.76) rotate(180)"/><rect class="cls-3" x="239.35" y="471.62" width="15.45" height="2.52" rx="1.26" transform="translate(494.15 945.76) rotate(180)"/><rect class="cls-3" x="234.46" y="397.48" width="8.91" height="50.4" transform="translate(477.84 845.35) rotate(-180)"/><rect class="cls-3" x="118.81" y="228.74" width="210.65" height="174.67" rx="73.02"/><polyline class="cls-3" points="218.88 402.25 218.88 447.87 227.79 447.87 227.79 402.35"/><path class="cls-3" d="M283.65,374.87a5.35,5.35,0,1,0-10.69,0"/><path class="cls-3" d="M271.16,374.87a5.35,5.35,0,0,0,10.69,0"/><path class="cls-2" d="M285.72,374.87h-13a8,8,0,0,1-8-8h0"/><polygon class="cls-3" points="251.12 488.94 209.74 488.94 209.74 447.87 233.13 447.87 233.13 474.98 251.12 488.94 251.12 488.94"/><rect class="cls-3" x="218.88" y="453.19" width="8.91" height="10.6" rx="4.46" transform="translate(446.66 916.98) rotate(180)"/><rect class="cls-3" x="222.14" y="457.23" width="15.45" height="2.52" rx="1.26" transform="translate(459.73 916.98) rotate(-180)"/><path class="cls-3" d="M222.14,489.09a11.74,11.74,0,0,0-11.73-11.74"/><circle class="cls-3" cx="203.32" cy="447.24" r="6.42"/><rect class="cls-3" x="205.42" y="488.94" width="50.02" height="12.48" transform="translate(460.86 990.36) rotate(-180)"/><path class="cls-2" d="M255.44,500.94c-2.78,0-2.78-11.52-5.55-11.52s-2.78,11.52-5.56,11.52-2.78-11.52-5.55-11.52-2.78,11.52-5.56,11.52-2.78-11.52-5.56-11.52-2.78,11.52-5.55,11.52-2.78-11.52-5.56-11.52-2.78,11.52-5.56,11.52-2.79-11.52-5.57-11.52"/><rect class="cls-3" x="218.88" y="467.58" width="8.91" height="10.6" rx="4.46" transform="translate(446.66 945.76) rotate(180)"/><rect class="cls-3" x="222.14" y="471.62" width="15.45" height="2.52" rx="1.26" transform="translate(459.73 945.76) rotate(180)"/><path class="cls-3" d="M212.31,313.67s0,33.18,42.17,33.18,42.18-33.18,42.18-33.18"/><path class="cls-3" d="M296.66,313.67s0-33.18-42.18-33.18c-39.6,0-42.17,33.18-42.17,33.18"/><path class="cls-2" d="M311,305.35a8.32,8.32,0,0,1-8.32,8.32H212.31"/><g class="cls-5"><circle cx="296.66" cy="313.67" r="28.22"/></g><path class="cls-2" d="M223,218.46a20.09,20.09,0,0,0,0-28.4c-7.84-7.84-41.12-12.72-41.12-12.72s4.88,33.28,12.72,41.12A20.09,20.09,0,0,0,223,218.46Z"/><line class="cls-2" x1="233.13" y1="228.61" x2="181.86" y2="177.34"/><line class="cls-2" x1="205.21" y1="200.69" x2="205.21" y2="182.22"/><line class="cls-2" x1="215.5" y1="210.98" x2="190.17" y2="210.98"/><polygon class="cls-2" points="233.13 228.74 235.65 228.74 235.65 171.08 230.43 171.08 230.43 177.02 233.13 177.02 233.13 228.74"/><path class="cls-3" d="M626.75,85.56C617,117,508.07,219,430.74,237.53h0v13.21l67.92,22.05a87.46,87.46,0,0,1,58.19,63.43l23.08,99.59a87.47,87.47,0,0,0,55,62.32L754,542"/><path class="cls-2" d="M653,345a26.26,26.26,0,1,1-52.51,0"/><path class="cls-2" d="M610.5,345A26.26,26.26,0,1,1,663,345"/><path class="cls-2" d="M584,345H673.6a26.64,26.64,0,0,0,26.64-26.63V299.62"/><path class="cls-2" d="M547,274.24H600.5V248.76h0A26.76,26.76,0,0,1,573.74,222V208.46"/><path class="cls-3" d="M733.51,198.26s0,50.26-63.89,50.26-63.89-50.26-63.89-50.26"/><path class="cls-3" d="M605.73,198.26s0-50.26,63.89-50.26c60,0,63.89,50.26,63.89,50.26"/><path class="cls-2" d="M584,185.66a12.6,12.6,0,0,0,12.6,12.6H733.51"/><g class="cls-6"><circle cx="605.73" cy="241.35" r="42.75"/></g><path class="cls-2" d="M606,37c.26,2.59,5.85,50.78,50,71.72,32.63,15.48,71.44,9.8,99-15.72"/><path class="cls-3" d="M755,341c-42.35,24.95-67.06,70.41-66,119.2,1.61,73.67,62.33,110.65,66,112.8"/><path d="M567.8,274.24a5.95,5.95,0,0,0,11.89,0"/><line class="cls-2" x1="445.93" y1="501.42" x2="445.93" y2="575"/></g><g id="diecut"><line class="cls-7" x1="36" x2="36" y2="2"/><line class="cls-8" x1="36" y1="10" x2="36" y2="606"/><line class="cls-7" x1="36" y1="610" x2="36" y2="612"/></g><g id="frame"><path d="M755,37V575H72.94V37H755m1-1H71.94V576H756V36Z"/></g></svg>