<svg xmlns="http://www.w3.org/2000/svg" xmlns:xlink="http://www.w3.org/1999/xlink" viewBox="0 0 792 612"><defs><style>.cls-1,.cls-10,.cls-3,.cls-9{fill:none;}.cls-2{fill:#fff;}.cls-2,.cls-3{stroke:#000;}.cls-10,.cls-2,.cls-3,.cls-9{stroke-linecap:round;stroke-linejoin:round;}.cls-4{clip-path:url(#clip-path);}.cls-5{clip-path:url(#clip-path-2);}.cls-6{clip-path:url(#clip-path-3);}.cls-7{clip-path:url(#clip-path-4);}.cls-8{clip-path:url(#clip-path-5);}.cls-10,.cls-9{stroke:#dddede;stroke-width:0.5px;}.cls-10{stroke-dasharray:4 8;}</style><clipPath id="clip-path"><rect class="cls-1" x="84.68" y="59.04" width="230.97" height="192.1" rx="84.75" transform="translate(85.12 -70.49) rotate(25.21)"/></clipPath><clipPath id="clip-path-2"><circle class="cls-1" cx="466.98" cy="364.92" r="57.56"/></clipPath><clipPath id="clip-path-3"><circle class="cls-1" cx="413.27" cy="171.46" r="64.73"/></clipPath><clipPath id="clip-path-4"><circle class="cls-1" cx="224.33" cy="424.31" r="150.71"/></clipPath><clipPath id="clip-path-5"><circle class="cls-1" cx="616.53" cy="175.47" r="138.44"/></clipPath></defs><g id="art"><path class="cls-2" d="M753.93,442.11h0a129.73,129.73,0,0,0-55.77-106.58l-34-23.57A14.19,14.19,0,0,0,648,312l-34,23.57a129.72,129.72,0,0,0-55.78,106.58h0A129.69,129.69,0,0,0,614,548.68l34,23.58a14.23,14.23,0,0,0,16.19,0l34-23.58A129.7,129.7,0,0,0,753.93,442.11Z"/><polygon class="cls-3" points="447.32 419.3 468.08 474.92 529 478.64 483.68 516.22 497.8 574.67 447.32 539.18 396.83 574.67 410.95 516.22 365.63 478.64 426.55 474.92 447.32 419.3"/><path class="cls-3" d="M471.87,490.29a24.55,24.55,0,0,1-49.1,0"/><line class="cls-3" x1="588.52" y1="358.6" x2="721" y2="355.76"/><line class="cls-3" x1="704.75" y1="340.62" x2="604.33" y2="342.8"/><line class="cls-3" x1="723.24" y1="525.62" x2="592.02" y2="528.45"/><line class="cls-3" x1="607.42" y1="543.6" x2="708" y2="541.41"/><rect class="cls-3" x="309.25" y="216.89" width="86.18" height="19.66" transform="translate(130.13 -128.48) rotate(25.21)"/><rect class="cls-3" x="398.25" y="275.49" width="190.53" height="35.4" transform="translate(171.88 -182.28) rotate(25.21)"/><rect class="cls-3" x="578.86" y="313.05" width="17.75" height="48.98" rx="8.88" transform="translate(199.75 -218.19) rotate(25.21)"/><line class="cls-3" x1="450.24" y1="253.25" x2="403.7" y2="270"/><line class="cls-3" x1="578.03" y1="313.41" x2="531.49" y2="330.16"/><line class="cls-3" x1="524.54" y1="288.23" x2="478" y2="304.98"/><line class="cls-3" x1="471.04" y1="263.05" x2="424.5" y2="279.79"/><line class="cls-3" x1="503.14" y1="278.16" x2="456.6" y2="294.9"/><line class="cls-3" x1="556.64" y1="303.34" x2="510.1" y2="320.09"/><line class="cls-3" x1="414.86" y1="236.6" x2="395.51" y2="236.18"/><line class="cls-3" x1="399.79" y1="268.62" x2="387.14" y2="253.97"/><rect class="cls-3" x="321.39" y="219.61" width="73.43" height="19.66" transform="translate(131.83 -130.68) rotate(25.21)"/><path class="cls-3" d="M177.32,47a83.57,83.57,0,0,1,35.81,8L269,81.36a84.29,84.29,0,0,1,40.32,112.05l-10.07,21.4a84.16,84.16,0,0,1-112.06,40.32l-55.89-26.31A84.31,84.31,0,0,1,91,116.76l10.07-21.4A84.22,84.22,0,0,1,177.32,47m0-10A94.21,94.21,0,0,0,92,91.1L82,112.5a94.22,94.22,0,0,0,45.11,125.37L183,264.18a94.17,94.17,0,0,0,125.37-45.11l10.07-21.4A94.2,94.2,0,0,0,273.28,72.31L217.39,46a93.79,93.79,0,0,0-40.07-9Z"/><g class="cls-4"><line class="cls-3" x1="53.03" y1="192.91" x2="264.77" y2="292.59"/><line class="cls-3" x1="73.71" y1="148.98" x2="285.46" y2="248.66"/><line class="cls-3" x1="94.39" y1="105.05" x2="306.14" y2="204.73"/><line class="cls-3" x1="115.07" y1="61.12" x2="326.82" y2="160.81"/><line class="cls-3" x1="135.75" y1="17.19" x2="347.5" y2="116.88"/><line class="cls-3" x1="238.28" y1="302.13" x2="337.96" y2="90.38"/><line class="cls-3" x1="194.35" y1="281.45" x2="294.03" y2="69.7"/><line class="cls-3" x1="150.42" y1="260.77" x2="250.1" y2="49.02"/><line class="cls-3" x1="106.49" y1="240.08" x2="206.18" y2="28.34"/><line class="cls-3" x1="62.56" y1="219.4" x2="162.25" y2="7.66"/></g><circle class="cls-3" cx="466.98" cy="364.92" r="57.56"/><g class="cls-5"><path class="cls-3" d="M514.4,400.26a46.28,46.28,0,0,1-13.19-80.82"/><path class="cls-3" d="M420.31,330.47a46.29,46.29,0,0,1,10.74,81.18"/></g><circle class="cls-3" cx="413.27" cy="171.46" r="64.73"/><g class="cls-6"><line class="cls-3" x1="327.82" y1="105.37" x2="327.82" y2="237.06"/><line class="cls-3" x1="356.06" y1="105.17" x2="356.06" y2="237.26"/><line class="cls-3" x1="384.3" y1="104.97" x2="384.3" y2="237.45"/><line class="cls-3" x1="412.54" y1="104.78" x2="412.54" y2="237.65"/><line class="cls-3" x1="440.78" y1="104.58" x2="440.78" y2="237.85"/><line class="cls-3" x1="469.02" y1="104.38" x2="469.02" y2="238.04"/><line class="cls-3" x1="497.26" y1="104.19" x2="497.26" y2="238.24"/><line class="cls-3" x1="345.74" y1="254.28" x2="481.06" y2="254.28"/><line class="cls-3" x1="345.74" y1="226.72" x2="481.06" y2="226.72"/><line class="cls-3" x1="345.74" y1="199.16" x2="481.06" y2="199.16"/><line class="cls-3" x1="345.74" y1="171.6" x2="481.06" y2="171.6"/><line class="cls-3" x1="345.74" y1="144.05" x2="481.06" y2="144.05"/><line class="cls-3" x1="345.74" y1="116.49" x2="481.06" y2="116.49"/><line class="cls-3" x1="345.74" y1="88.93" x2="481.06" y2="88.93"/></g><circle class="cls-3" cx="224.33" cy="424.31" r="150.71"/><line class="cls-3" x1="117.76" y1="317.74" x2="330.9" y2="530.88"/><line class="cls-3" x1="117.32" y1="531.33" x2="330.46" y2="318.19"/><g class="cls-7"><path class="cls-3" d="M207.17,262A102.64,102.64,0,0,1,62,407.15"/><path class="cls-3" d="M240,585.12A102.64,102.64,0,0,1,385.14,440"/></g><g class="cls-8"><circle class="cls-2" cx="658.37" cy="30.15" r="50.8"/><circle class="cls-2" cx="480.98" cy="114.52" r="50.8"/><circle class="cls-2" cx="580.39" cy="321.53" r="50.8"/><circle class="cls-2" cx="752" cy="242.68" r="50.8"/></g><circle class="cls-3" cx="616.53" cy="175.47" r="138.44"/><line class="cls-2" x1="644.65" y1="79.07" x2="589.55" y2="271.56"/><line class="cls-2" x1="708.02" y1="217.22" x2="528" y2="133.71"/><circle class="cls-2" cx="616.53" cy="175.47" r="50.8"/><rect class="cls-3" x="588.08" y="439.11" width="136" height="6" rx="3" transform="translate(213.97 1098.19) rotate(-90)"/><rect class="cls-2" x="638.08" y="389.61" width="36" height="6" rx="3"/><rect class="cls-2" x="638.08" y="414.36" width="36" height="6" rx="3"/><rect class="cls-2" x="638.08" y="439.11" width="36" height="6" rx="3"/><rect class="cls-2" x="638.08" y="463.86" width="36" height="6" rx="3"/><rect class="cls-2" x="638.08" y="488.61" width="36" height="6" rx="3"/></g><g id="diecut"><line class="cls-9" x1="36" x2="36" y2="2"/><line class="cls-10" x1="36" y1="10" x2="36" y2="606"/><line class="cls-9" x1="36" y1="610" x2="36" y2="612"/></g><g id="frame"><path d="M755,37V575H72.94V37H755m1-1H71.94V576H756V36Z"/></g></svg>