<svg xmlns="http://www.w3.org/2000/svg" xmlns:xlink="http://www.w3.org/1999/xlink" viewBox="0 0 792 612"><defs><style>.cls-1,.cls-2,.cls-7,.cls-8{fill:none;}.cls-2,.cls-3,.cls-5{stroke:#000;}.cls-2,.cls-3,.cls-7,.cls-8{stroke-linecap:round;stroke-linejoin:round;}.cls-3,.cls-5{fill:#fff;}.cls-4{clip-path:url(#clip-path);}.cls-5{stroke-miterlimit:10;}.cls-6{clip-path:url(#clip-path-2);}.cls-7,.cls-8{stroke:#dddede;stroke-width:0.5px;}.cls-8{stroke-dasharray:4 8;}</style><clipPath id="clip-path"><path class="cls-1" d="M627.26,299.15s0,33.17-42.18,33.17c-39.6,0-42.17-33.17-42.17-33.17Z"/></clipPath><clipPath id="clip-path-2"><rect class="cls-1" x="71.94" y="290.62" width="684.06" height="285.38"/></clipPath></defs><g id="art"><path class="cls-2" d="M447.7,163.45h92.69a44.7,44.7,0,0,1,44.7,44.7v0a0,0,0,0,1,0,0H447.7a0,0,0,0,1,0,0v-44.7A0,0,0,0,1,447.7,163.45Z"/><polygon class="cls-2" points="360.17 318.46 222.33 388.46 222.33 216.72 360.17 286.72 360.17 318.46"/><line class="cls-2" x1="222.33" y1="388.46" x2="360.17" y2="318.46"/><line class="cls-2" x1="222.33" y1="345.53" x2="360.17" y2="310.53"/><line class="cls-2" x1="222.33" y1="302.59" x2="360.17" y2="302.59"/><line class="cls-2" x1="222.33" y1="259.66" x2="360.17" y2="294.66"/><line class="cls-2" x1="222.33" y1="216.72" x2="360.17" y2="286.72"/><rect class="cls-3" x="359.17" y="207.14" width="313.1" height="190.9" rx="95.45"/><path class="cls-3" d="M542.91,299.15s0,33.17,42.17,33.17,42.18-33.17,42.18-33.17"/><path class="cls-3" d="M627.26,299.15s0-33.18-42.18-33.18c-39.6,0-42.17,33.18-42.17,33.18"/><path class="cls-2" d="M641.62,290.83a8.33,8.33,0,0,1-8.32,8.32H542.91"/><g class="cls-4"><circle cx="627.26" cy="299.15" r="28.22"/></g><path class="cls-2" d="M651.62,290.83a8.33,8.33,0,0,1-8.32,8.32H552.91"/><path class="cls-2" d="M359.17,310.63h54.47a110.91,110.91,0,0,1,78.41,32.47h0a110.84,110.84,0,0,0,78.4,32.48h67.87"/><path class="cls-2" d="M359.56,293.89h53.2a110.88,110.88,0,0,0,78.41-32.48l7.48-7.48a110.86,110.86,0,0,1,78.41-32.48h50"/><line class="cls-2" x1="427.42" y1="329.63" x2="472.19" y2="374.4"/><path class="cls-2" d="M467.28,370.45a26.44,26.44,0,0,1-37.39-37.38"/><path class="cls-2" d="M638.32,310.63h0a14.49,14.49,0,0,0,14.49,14.49h32.67"/><circle class="cls-2" cx="677.53" cy="325.12" r="7.95"/><line class="cls-2" x1="447.7" y1="163.45" x2="491.33" y2="207.08"/><line class="cls-2" x1="531.09" y1="163.45" x2="574.73" y2="207.08"/><line class="cls-2" x1="493.9" y1="163.45" x2="537.53" y2="207.08"/><line class="cls-2" x1="440.89" y1="343.1" x2="423.61" y2="360.38"/><line class="cls-2" x1="457.26" y1="359.47" x2="439.98" y2="376.75"/><circle class="cls-2" cx="178.94" cy="143.56" r="4.79"/><path class="cls-2" d="M169.94,141.26h0a2.3,2.3,0,0,0,2.3,2.3h11.49"/><path d="M174.15,143.56a4.79,4.79,0,0,0,4.79,4.8v-4.8Z"/><path class="cls-2" d="M166.54,154.5h13.73a3,3,0,0,0,3-3h0"/><circle class="cls-2" cx="212.79" cy="147.72" r="15.72"/><path class="cls-2" d="M180.73,163.45a15.73,15.73,0,0,1,0-31.45h0a15.73,15.73,0,0,1,0,31.45Z"/><circle class="cls-2" cx="244.23" cy="147.72" r="15.72"/><circle class="cls-2" cx="275.68" cy="147.72" r="15.72"/><circle class="cls-2" cx="495.81" cy="116.28" r="15.72"/><circle class="cls-2" cx="527.25" cy="116.28" r="15.72"/><circle class="cls-2" cx="558.7" cy="116.28" r="15.72"/><circle class="cls-2" cx="307.13" cy="84.72" r="15.72"/><circle class="cls-2" cx="338.57" cy="84.72" r="15.72"/><circle class="cls-2" cx="370.02" cy="84.72" r="15.72"/><circle class="cls-2" cx="401.47" cy="84.72" r="15.72"/><circle class="cls-2" cx="432.91" cy="84.72" r="15.72"/><circle class="cls-2" cx="464.36" cy="84.72" r="15.72"/><circle class="cls-2" cx="275.68" cy="116.28" r="15.72"/><circle class="cls-2" cx="464.36" cy="116.28" r="15.72"/><circle class="cls-2" cx="275.68" cy="84.72" r="15.72"/><polyline class="cls-2" points="180.73 132 259.96 132 259.96 84.72"/><line class="cls-2" x1="464.36" y1="132" x2="558.7" y2="132"/><polyline class="cls-2" points="291.4 148.47 291.4 101.19 448.64 101.19 448.64 116.28"/><line class="cls-2" x1="275.68" y1="163.45" x2="180.73" y2="163.45"/><line class="cls-2" x1="275.68" y1="69" x2="464.36" y2="69"/><polyline class="cls-2" points="480.08 84.72 480.08 100.55 558.7 100.55"/><path class="cls-5" d="M558.7,112.28H468.36V84.72a4,4,0,0,0-4-4H275.68a4,4,0,0,0-4,4v59.75H212.79a4,4,0,0,0,0,8h62.89a4,4,0,0,0,4-4V88.72H460.36v27.56a4,4,0,0,0,4,4H558.7a4,4,0,0,0,0-8Z"/><circle class="cls-2" cx="322.85" cy="208.14" r="4.99"/><circle class="cls-2" cx="122.58" cy="108.36" r="4.99"/><circle class="cls-2" cx="183.73" cy="64.01" r="8.17"/><circle class="cls-2" cx="296.39" cy="185.79" r="10.73"/><circle class="cls-2" cx="649.54" cy="514.9" r="7.69"/><circle class="cls-2" cx="608.45" cy="420.17" r="6.19"/><circle class="cls-2" cx="723.71" cy="261.62" r="4.38"/><circle class="cls-2" cx="116.39" cy="322.51" r="6.19"/><circle class="cls-2" cx="141.64" cy="273.97" r="4.38"/><circle class="cls-2" cx="196.45" cy="422.87" r="4.38"/><circle class="cls-2" cx="653.44" cy="152.82" r="4.99"/><circle class="cls-2" cx="677.53" cy="130.47" r="10.73"/><g class="cls-6"><line class="cls-3" x1="561.96" y1="453.23" x2="561.96" y2="589.8"/><path class="cls-3" d="M538.37,519.28l-33.19-33.19a23.59,23.59,0,0,1,0-33.36h0a23.59,23.59,0,0,1,33.36,0"/><path class="cls-3" d="M585.86,519.28l33.19-33.19a23.59,23.59,0,0,0,0-33.36h0a23.58,23.58,0,0,0-33.35,0"/><line class="cls-3" x1="522" y1="469.71" x2="561.8" y2="509.51"/><line class="cls-3" x1="601.92" y1="469.71" x2="562.12" y2="509.51"/><line class="cls-3" x1="561.96" y1="586.57" x2="561.96" y2="652.62"/><path class="cls-3" d="M538.37,652.62l-33.19-33.19a23.58,23.58,0,0,1,0-33.35h0a23.59,23.59,0,0,1,33.36,0"/><path class="cls-3" d="M585.86,652.62l33.19-33.19a23.58,23.58,0,0,0,0-33.35h0a23.58,23.58,0,0,0-33.35,0"/><line class="cls-3" x1="522" y1="603.06" x2="561.8" y2="642.85"/><line class="cls-3" x1="601.92" y1="603.06" x2="562.12" y2="642.85"/><path class="cls-3" d="M585.86,585.82l33.19-33.19a23.58,23.58,0,0,0,0-33.35h0a23.58,23.58,0,0,0-33.35,0"/><path class="cls-3" d="M538.37,585.82l-33.19-33.19a23.58,23.58,0,0,1,0-33.35h0a23.59,23.59,0,0,1,33.36,0"/><line class="cls-3" x1="522" y1="536.24" x2="561.8" y2="576.03"/><line class="cls-3" x1="601.92" y1="536.24" x2="562.12" y2="576.03"/><path class="cls-3" d="M538.37,452.8A23.59,23.59,0,0,1,562,429.22h0a23.58,23.58,0,0,1,23.58,23.58"/><line class="cls-3" x1="253.17" y1="453.23" x2="253.17" y2="589.8"/><path class="cls-3" d="M229.59,519.28,196.4,486.09a23.59,23.59,0,0,1,0-33.36h0a23.58,23.58,0,0,1,33.35,0"/><path class="cls-3" d="M277.07,519.28l33.2-33.19a23.59,23.59,0,0,0,0-33.36h0a23.59,23.59,0,0,0-33.36,0"/><line class="cls-3" x1="213.22" y1="469.71" x2="253.01" y2="509.51"/><line class="cls-3" x1="293.13" y1="469.71" x2="253.33" y2="509.51"/><line class="cls-3" x1="253.17" y1="586.57" x2="253.17" y2="652.62"/><path class="cls-3" d="M229.59,652.62,196.4,619.43a23.58,23.58,0,0,1,0-33.35h0a23.58,23.58,0,0,1,33.35,0"/><path class="cls-3" d="M277.07,652.62l33.2-33.19a23.58,23.58,0,0,0,0-33.35h0a23.59,23.59,0,0,0-33.36,0"/><line class="cls-3" x1="213.22" y1="603.06" x2="253.01" y2="642.85"/><line class="cls-3" x1="293.13" y1="603.06" x2="253.33" y2="642.85"/><path class="cls-3" d="M277.07,585.82l33.2-33.19a23.58,23.58,0,0,0,0-33.35h0a23.59,23.59,0,0,0-33.36,0"/><path class="cls-3" d="M229.59,585.82,196.4,552.63a23.58,23.58,0,0,1,0-33.35h0a23.58,23.58,0,0,1,33.35,0"/><line class="cls-3" x1="213.22" y1="536.24" x2="253.01" y2="576.03"/><line class="cls-3" x1="293.13" y1="536.24" x2="253.33" y2="576.03"/><path class="cls-3" d="M229.59,452.8a23.58,23.58,0,0,1,23.58-23.58h0a23.59,23.59,0,0,1,23.59,23.58"/><line class="cls-3" x1="105.94" y1="375.93" x2="105.94" y2="512.51"/><path class="cls-3" d="M82.36,442,49.17,408.8a23.59,23.59,0,0,1,0-33.36h0a23.58,23.58,0,0,1,33.35,0"/><path class="cls-3" d="M129.84,442,163,408.8a23.57,23.57,0,0,0,0-33.36h0a23.58,23.58,0,0,0-33.35,0"/><line class="cls-3" x1="65.99" y1="392.42" x2="105.78" y2="432.22"/><line class="cls-3" x1="145.9" y1="392.42" x2="106.1" y2="432.22"/><line class="cls-3" x1="105.94" y1="509.28" x2="105.94" y2="575.33"/><path class="cls-3" d="M82.36,575.33,49.17,542.14a23.59,23.59,0,0,1,0-33.36h0a23.58,23.58,0,0,1,33.35,0"/><path class="cls-3" d="M129.84,575.33,163,542.14a23.57,23.57,0,0,0,0-33.36h0a23.58,23.58,0,0,0-33.35,0"/><line class="cls-3" x1="65.99" y1="525.76" x2="105.78" y2="565.56"/><line class="cls-3" x1="145.9" y1="525.76" x2="106.1" y2="565.56"/><path class="cls-3" d="M129.84,508.53,163,475.34A23.56,23.56,0,0,0,163,442h0a23.58,23.58,0,0,0-33.35,0"/><path class="cls-3" d="M82.36,508.53,49.17,475.34a23.58,23.58,0,0,1,0-33.35h0a23.58,23.58,0,0,1,33.35,0"/><line class="cls-3" x1="65.99" y1="458.94" x2="105.78" y2="498.74"/><line class="cls-3" x1="145.9" y1="458.94" x2="106.1" y2="498.74"/><path class="cls-3" d="M82.36,375.51a23.59,23.59,0,0,1,23.58-23.59h0a23.59,23.59,0,0,1,23.59,23.59"/><line class="cls-3" x1="399.25" y1="393.93" x2="399.25" y2="530.51"/><path class="cls-3" d="M375.67,460,342.48,426.8a23.59,23.59,0,0,1,0-33.36h0a23.58,23.58,0,0,1,33.35,0"/><path class="cls-3" d="M423.16,460l33.19-33.19a23.59,23.59,0,0,0,0-33.36h0a23.59,23.59,0,0,0-33.36,0"/><line class="cls-3" x1="359.3" y1="410.42" x2="399.1" y2="450.22"/><line class="cls-3" x1="439.21" y1="410.42" x2="399.41" y2="450.22"/><line class="cls-3" x1="399.25" y1="527.28" x2="399.25" y2="593.33"/><path class="cls-3" d="M375.67,593.33l-33.19-33.19a23.59,23.59,0,0,1,0-33.36h0a23.58,23.58,0,0,1,33.35,0"/><path class="cls-3" d="M423.16,593.33l33.19-33.19a23.59,23.59,0,0,0,0-33.36h0a23.59,23.59,0,0,0-33.36,0"/><line class="cls-3" x1="359.3" y1="543.76" x2="399.1" y2="583.56"/><line class="cls-3" x1="439.21" y1="543.76" x2="399.41" y2="583.56"/><path class="cls-3" d="M423.16,526.53l33.19-33.19a23.58,23.58,0,0,0,0-33.35h0A23.59,23.59,0,0,0,423,460"/><path class="cls-3" d="M375.67,526.53l-33.19-33.19a23.58,23.58,0,0,1,0-33.35h0a23.58,23.58,0,0,1,33.35,0"/><line class="cls-3" x1="359.3" y1="476.94" x2="399.1" y2="516.74"/><line class="cls-3" x1="439.21" y1="476.94" x2="399.41" y2="516.74"/><path class="cls-3" d="M375.67,393.51a23.59,23.59,0,0,1,23.58-23.59h0a23.59,23.59,0,0,1,23.59,23.59"/><line class="cls-3" x1="722.11" y1="393.93" x2="722.11" y2="530.51"/><path class="cls-3" d="M698.53,460,665.34,426.8a23.59,23.59,0,0,1,0-33.36h0a23.58,23.58,0,0,1,33.35,0"/><path class="cls-3" d="M746,460l33.19-33.19a23.59,23.59,0,0,0,0-33.36h0a23.59,23.59,0,0,0-33.36,0"/><line class="cls-3" x1="682.16" y1="410.42" x2="721.96" y2="450.22"/><line class="cls-3" x1="762.07" y1="410.42" x2="722.27" y2="450.22"/><line class="cls-3" x1="722.11" y1="527.28" x2="722.11" y2="593.33"/><path class="cls-3" d="M698.53,593.33l-33.19-33.19a23.59,23.59,0,0,1,0-33.36h0a23.58,23.58,0,0,1,33.35,0"/><path class="cls-3" d="M746,593.33l33.19-33.19a23.59,23.59,0,0,0,0-33.36h0a23.59,23.59,0,0,0-33.36,0"/><line class="cls-3" x1="682.16" y1="543.76" x2="721.96" y2="583.56"/><line class="cls-3" x1="762.07" y1="543.76" x2="722.27" y2="583.56"/><path class="cls-3" d="M746,526.53l33.19-33.19a23.58,23.58,0,0,0,0-33.35h0a23.59,23.59,0,0,0-33.36,0"/><path class="cls-3" d="M698.53,526.53l-33.19-33.19a23.58,23.58,0,0,1,0-33.35h0a23.58,23.58,0,0,1,33.35,0"/><line class="cls-3" x1="682.16" y1="476.94" x2="721.96" y2="516.74"/><line class="cls-3" x1="762.07" y1="476.94" x2="722.27" y2="516.74"/><path class="cls-3" d="M698.53,393.51a23.59,23.59,0,0,1,23.58-23.59h0a23.59,23.59,0,0,1,23.59,23.59"/></g><polygon class="cls-2" points="711.57 60.62 716.89 74.88 732.51 75.83 720.89 85.46 724.51 100.44 711.57 91.35 698.63 100.44 702.25 85.46 690.63 75.83 706.25 74.88 711.57 60.62"/><path class="cls-2" d="M717.86,78.81a6.29,6.29,0,1,1-12.58,0"/><line class="cls-2" x1="212.79" y1="148.47" x2="275.68" y2="148.47"/><line class="cls-2" x1="275.68" y1="84.72" x2="275.68" y2="148.47"/><line class="cls-2" x1="464.36" y1="84.72" x2="275.68" y2="84.72"/><line class="cls-2" x1="464.36" y1="116.28" x2="464.36" y2="84.72"/><line class="cls-2" x1="558.7" y1="116.28" x2="464.36" y2="116.28"/></g><g id="diecut"><line class="cls-7" x1="36" x2="36" y2="2"/><line class="cls-8" x1="36" y1="10" x2="36" y2="606"/><line class="cls-7" x1="36" y1="610" x2="36" y2="612"/></g><g id="frame"><path d="M755,37V575H72.94V37H755m1-1H71.94V576H756V36Z"/></g></svg>