<svg xmlns="http://www.w3.org/2000/svg" viewBox="0 0 792 612"><defs><style>.cls-1,.cls-3,.cls-4{fill:none;}.cls-1,.cls-2{stroke:#000;}.cls-1,.cls-2,.cls-3,.cls-4{stroke-linecap:round;stroke-linejoin:round;}.cls-2{fill:#fff;}.cls-3,.cls-4{stroke:#dddede;stroke-width:0.5px;}.cls-4{stroke-dasharray:4 8;}</style></defs><g id="art"><polygon class="cls-1" points="232.06 264.18 237.38 278.43 253 279.39 241.38 289.02 245 304 232.06 294.9 219.12 304 222.74 289.02 211.13 279.39 226.74 278.43 232.06 264.18"/><path class="cls-1" d="M238.36,282.37a6.3,6.3,0,0,1-12.59,0"/><path class="cls-1" d="M291,176V324.06a7.34,7.34,0,0,1-4.24,6.62A101,101,0,0,0,267,501"/><path class="cls-1" d="M393,501A101,101,0,0,0,375.9,332a9,9,0,0,1-4.9-8V176"/><line class="cls-1" x1="72" y1="501" x2="622.57" y2="501"/><path class="cls-1" d="M371,176H218.5A24.5,24.5,0,0,0,194,200.5h0A24.5,24.5,0,0,0,218.5,225H291"/><polyline class="cls-1" points="370 176 420 176 371 223"/><line class="cls-1" x1="291" y1="264" x2="371" y2="264"/><line class="cls-1" x1="291" y1="301" x2="371" y2="301"/><path class="cls-1" d="M230,412.6c16.67,0,16.67,28.8,33.33,28.8s16.67-28.8,33.33-28.8,16.67,28.8,33.34,28.8,16.66-28.8,33.33-28.8,16.67,28.8,33.33,28.8,16.67-28.8,33.34-28.8"/><line class="cls-1" x1="291" y1="291" x2="371" y2="278"/><line class="cls-1" x1="516" y1="250" x2="516" y2="500"/><line class="cls-1" x1="516" y1="249" x2="516" y2="250"/><circle class="cls-1" cx="516" cy="189" r="60"/><path class="cls-1" d="M524.5,218.5c0,4.69-8.5,30.5-8.5,30.5s-8.5-25.81-8.5-30.5a8.5,8.5,0,0,1,17,0Z"/><path class="cls-1" d="M505.92,219c2.63,3.88,10.08,30,10.08,30s-21.52-16.59-24.15-20.47A8.5,8.5,0,1,1,505.92,219Z"/><path class="cls-1" d="M540,228.4c-2.61,3.9-24,20.6-24,20.6s7.31-26.17,9.92-30.07A8.5,8.5,0,0,1,540,228.4Z"/><path class="cls-1" d="M516,249s21-17.24,25.37-18.94a8.51,8.51,0,0,1,11,4.86,9,9,0,0,1,.34,1.08"/><line class="cls-1" x1="537.72" y1="216.61" x2="572" y2="167"/><path class="cls-1" d="M479,236a9,9,0,0,1,.34-1.08,8.49,8.49,0,0,1,11-4.86c4.38,1.7,25.38,18.94,25.38,18.94"/><line class="cls-1" x1="516" y1="210" x2="516" y2="129"/><line class="cls-1" x1="494.11" y1="216.72" x2="461" y2="166"/><circle class="cls-1" cx="633.97" cy="425.25" r="12.75"/><line class="cls-1" x1="635" y1="437" x2="645.87" y2="420.57"/><line class="cls-1" x1="633.97" y1="440" x2="633.97" y2="412.5"/><line class="cls-1" x1="633.97" y1="438" x2="622.29" y2="420.36"/><circle class="cls-1" cx="539.5" cy="315" r="15.5"/><circle class="cls-1" cx="492.5" cy="335.5" r="15.5"/><line class="cls-1" x1="492.5" y1="335.5" x2="516" y2="335.5"/><line class="cls-1" x1="516" y1="315" x2="539.5" y2="315"/><path class="cls-2" d="M455.18,531.5H430.5a10.88,10.88,0,0,0-21.75,0H397"/><path class="cls-2" d="M755,501H644.32a10.88,10.88,0,0,0-21.75,0H610.82"/><path class="cls-2" d="M633.44,490.13V474.5a5.5,5.5,0,0,1,5.5-5.5h.56a5.5,5.5,0,0,0,5.5-5.5v-4a5.5,5.5,0,0,0-5.5-5.5h0a5.5,5.5,0,0,1-5.5-5.5V439"/><line class="cls-2" x1="652" y1="361" x2="755" y2="361"/><line class="cls-2" x1="106" y1="412" x2="209" y2="412"/><line class="cls-2" x1="73" y1="111" x2="243" y2="111"/><path class="cls-1" d="M650.56,351.68a46.68,46.68,0,1,1,93.35,0H604a23.28,23.28,0,1,1,46.56,0"/><path class="cls-1" d="M243.23,101a43.34,43.34,0,0,1,86.68,0H200a21.62,21.62,0,0,1,43.23,0"/><path class="cls-1" d="M125,406.34a18,18,0,0,1,36,0H107a9,9,0,0,1,18,0"/><path class="cls-1" d="M412,206.5c0-4.69,8.5-30.5,8.5-30.5s8.5,25.81,8.5,30.5a8.5,8.5,0,0,1-17,0Z"/><path class="cls-1" d="M321.47,131.5c0-4.69,8.5-30.5,8.5-30.5s8.5,25.81,8.5,30.5a8.5,8.5,0,0,1-17,0Z"/><path class="cls-1" d="M626,382.5c0-4.69,8.5-30.5,8.5-30.5s8.5,25.81,8.5,30.5a8.5,8.5,0,0,1-17,0Z"/><line class="cls-1" x1="683" y1="75.7" x2="683" y2="145.7"/><line class="cls-1" x1="648" y1="110.7" x2="718" y2="110.7"/><line class="cls-1" x1="658.25" y1="135.45" x2="707.75" y2="85.95"/><line class="cls-1" x1="707.75" y1="135.45" x2="658.25" y2="85.95"/><circle class="cls-2" cx="683" cy="109.86" r="14.03"/><circle class="cls-1" cx="683" cy="109.86" r="21.36"/><circle class="cls-1" cx="232" cy="260" r="4"/><line class="cls-1" x1="232" y1="258" x2="232" y2="222"/><line class="cls-1" x1="235" y1="222" x2="229" y2="228"/><line class="cls-1" x1="240" y1="222" x2="234" y2="228"/><circle class="cls-1" cx="95" cy="518" r="1"/><circle class="cls-1" cx="101" cy="518" r="1"/><circle class="cls-1" cx="98" cy="523" r="1"/><circle class="cls-1" cx="417" cy="529" r="1"/><circle class="cls-1" cx="423" cy="529" r="1"/><circle class="cls-1" cx="420" cy="534" r="1"/><circle class="cls-1" cx="631" cy="498" r="1"/><circle class="cls-1" cx="637" cy="498" r="1"/><circle class="cls-1" cx="634" cy="503" r="1"/><circle class="cls-1" cx="733" cy="554" r="1"/><circle class="cls-1" cx="739" cy="554" r="1"/><circle class="cls-1" cx="736" cy="559" r="1"/><circle class="cls-1" cx="267" cy="554" r="1"/><circle class="cls-1" cx="273" cy="554" r="1"/><circle class="cls-1" cx="270" cy="559" r="1"/></g><g id="diecut"><line class="cls-3" x1="36" x2="36" y2="2"/><line class="cls-4" x1="36" y1="10" x2="36" y2="606"/><line class="cls-3" x1="36" y1="610" x2="36" y2="612"/></g><g id="frame"><path d="M755,37V575H72.94V37H755m1-1H71.94V576H756V36Z"/></g></svg>