<svg xmlns="http://www.w3.org/2000/svg" xmlns:xlink="http://www.w3.org/1999/xlink" viewBox="0 0 792 612"><defs><style>.cls-1,.cls-10,.cls-11,.cls-4{fill:none;}.cls-2{clip-path:url(#clip-path);}.cls-3,.cls-8{fill:#fff;}.cls-3,.cls-4{stroke:#000;}.cls-10,.cls-11,.cls-3,.cls-4{stroke-linecap:round;stroke-linejoin:round;}.cls-5{clip-path:url(#clip-path-2);}.cls-6{clip-path:url(#clip-path-3);}.cls-7{clip-path:url(#clip-path-4);}.cls-9{clip-path:url(#clip-path-5);}.cls-10,.cls-11{stroke:#dddede;stroke-width:0.5px;}.cls-11{stroke-dasharray:4 8;}</style><clipPath id="clip-path"><rect class="cls-1" x="71.94" y="-339.38" width="684.06" height="285.38"/></clipPath><clipPath id="clip-path-2"><polygon class="cls-1" points="699 575 524 575 515.15 496.1 707.39 496.1 699 575"/></clipPath><clipPath id="clip-path-3"><rect class="cls-1" x="320.77" y="68.51" width="435.23" height="367.78"/></clipPath><clipPath id="clip-path-4"><path class="cls-1" d="M242.84,375s0,18.16-23.09,18.16c-21.68,0-23.08-18.16-23.08-18.16Z"/></clipPath><clipPath id="clip-path-5"><circle class="cls-1" cx="469.32" cy="232.19" r="12.99"/></clipPath></defs><g id="art"><g class="cls-2"><line class="cls-3" x1="561.96" y1="-43.43" x2="561.96" y2="22.62"/><path class="cls-3" d="M538.37,22.62,505.18-10.57a23.58,23.58,0,0,1,0-33.35h0a23.59,23.59,0,0,1,33.36,0"/><path class="cls-3" d="M585.86,22.62l33.19-33.19a23.58,23.58,0,0,0,0-33.35h0a23.58,23.58,0,0,0-33.35,0"/><line class="cls-3" x1="522" y1="-26.94" x2="561.8" y2="12.85"/><line class="cls-3" x1="601.92" y1="-26.94" x2="562.12" y2="12.85"/><line class="cls-3" x1="253.17" y1="-43.43" x2="253.17" y2="22.62"/><path class="cls-3" d="M229.59,22.62,196.4-10.57a23.58,23.58,0,0,1,0-33.35h0a23.58,23.58,0,0,1,33.35,0"/><path class="cls-3" d="M277.07,22.62l33.2-33.19a23.58,23.58,0,0,0,0-33.35h0a23.59,23.59,0,0,0-33.36,0"/><line class="cls-3" x1="213.22" y1="-26.94" x2="253.01" y2="12.85"/><line class="cls-3" x1="293.13" y1="-26.94" x2="253.33" y2="12.85"/></g><rect class="cls-4" x="494.48" y="377.73" width="234.25" height="23.78"/><line class="cls-4" x1="494.48" y1="389.62" x2="728.73" y2="389.62"/><polyline class="cls-4" points="524 575 503.82 401.51 535.61 496.1 573.91 401.51 613.71 496.1 653.16 401.51 692 496.1 718.73 401.51 699 575"/><line class="cls-4" x1="515.15" y1="496.1" x2="707.39" y2="496.1"/><line class="cls-4" x1="519.63" y1="535.55" x2="702.91" y2="535.55"/><g class="cls-5"><rect class="cls-4" x="585.81" y="507.65" width="55.79" height="55.79" transform="translate(-198.94 590.82) rotate(-45)"/><rect class="cls-4" x="507.71" y="507.65" width="55.79" height="55.79" transform="translate(-221.81 535.59) rotate(-45)"/><rect class="cls-4" x="664.1" y="507.65" width="55.79" height="55.79" transform="translate(-176.01 646.17) rotate(-45)"/></g><g class="cls-6"><path class="cls-4" d="M429.52,213.2a198.52,198.52,0,0,0-14.31,42.87"/><path class="cls-4" d="M410.87,301.15v77.59a10.88,10.88,0,0,0,10.88,10.88H811.67V297.73c0-110.68-89.72-200.4-200.4-200.4h0A200.29,200.29,0,0,0,440,193.61"/></g><rect class="cls-4" x="564.27" y="293.06" width="94.67" height="84.67"/><line class="cls-4" x1="119.18" y1="391.9" x2="72.36" y2="534"/><path class="cls-4" d="M136.63,391.9H119.18a17.44,17.44,0,0,1-17.44-17.44h0A17.44,17.44,0,0,1,119.18,357h17.45"/><path class="cls-4" d="M136.63,374.46h-7.69a9.47,9.47,0,0,1-9.47-9.47h0"/><path class="cls-4" d="M136.63,374.46h-8a9.47,9.47,0,0,0-9.47,9.46h0"/><line class="cls-4" x1="120.18" y1="357.01" x2="123.38" y2="311.88"/><path class="cls-3" d="M196.67,375s0,18.16,23.08,18.16S242.84,375,242.84,375"/><path class="cls-3" d="M242.84,375s0-18.16-23.09-18.16c-21.68,0-23.08,18.16-23.08,18.16"/><path class="cls-4" d="M250.7,370.46a4.56,4.56,0,0,1-4.56,4.55H196.67"/><g class="cls-7"><circle cx="242.84" cy="375.01" r="15.45"/></g><path class="cls-4" d="M245.7,271.36h-103a5,5,0,0,0-5,5v.17a5,5,0,0,0,5,5h36.53a5,5,0,0,1,5,5v.35a5,5,0,0,1-5,5H142.29a5,5,0,0,0-5,5h0a5,5,0,0,0,5,5H180a5,5,0,0,1,5,5h0a5,5,0,0,1-5,5H122a5,5,0,0,1-5-5V222.93a5,5,0,0,1,5-5H245.7a5,5,0,0,1,5,5v43.43A5,5,0,0,1,245.7,271.36Z"/><path class="cls-4" d="M191.62,488.7l26.94,12.19a300.34,300.34,0,0,1,33,17.93c17.88,11,41.56,9.27,57.22-5.88a46.73,46.73,0,0,0,.57-66.65L259.5,395.13a2.47,2.47,0,0,1,1.27-4.14l2.84-.58a3.09,3.09,0,0,0,1.61-5.14L264,383.92"/><path class="cls-4" d="M244.94,271.36v24.1a95,95,0,0,0,21.52,60.22c7.07,8.64,14.16,17.27,20.93,26.14l5,6.59a3.5,3.5,0,0,1-2.3,5.59l-27.81,3.87"/><polyline class="cls-4" points="191.62 498.28 202.75 493.98 215 575"/><circle class="cls-3" cx="293.34" cy="440.7" r="10.13"/><path class="cls-4" d="M303.47,440.7H283.72a8.1,8.1,0,0,1-8.1-8.1h0"/><path class="cls-8" d="M232.31,342.64a53.46,53.46,0,0,0-37.59,7.77,7.15,7.15,0,0,1-8.82-.7l-.88-.88c-2.38-2.23-2-6.21,1.5-8.62a66.34,66.34,0,0,1,45.27-10.91c4.78.53,8.69,4.31,8.42,7.66,0,.42-.05.85-.08,1.27C239.83,341.58,236.19,343.24,232.31,342.64Z"/><path class="cls-4" d="M232.31,342.64a53.46,53.46,0,0,0-37.59,7.77,7.15,7.15,0,0,1-8.82-.7l-.88-.88c-2.38-2.23-2-6.21,1.5-8.62a66.34,66.34,0,0,1,45.27-10.91c4.78.53,8.69,4.31,8.42,7.66,0,.42-.05.85-.08,1.27C239.83,341.58,236.19,343.24,232.31,342.64Z"/><path class="cls-4" d="M440,193.61l30.61,10.29a2.87,2.87,0,0,1,1.31.85,8.82,8.82,0,0,1-9,14.17c-12.12-3.17-24.61-4.7-37.06-6.15l-18.24-2.12a22.44,22.44,0,0,0-7,.21,23.57,23.57,0,1,0,9.12,46.25L436.45,252c8.93-1.7,17.66-4.27,26.46-6.57a8.82,8.82,0,0,1,8.48,14.77l-43.86,30.45a216.1,216.1,0,0,1-20.6,12.65h0a58.68,58.68,0,0,0-29.39,38.92L323,575"/><path class="cls-4" d="M370.46,190.57h0a75,75,0,0,1,53.72-2.28L440,193.61"/><circle class="cls-4" cx="469.32" cy="232.19" r="12.99"/><path class="cls-4" d="M337.22,192.77h0a70.76,70.76,0,0,1,40.93-9.3l11.85.92"/><path class="cls-4" d="M313.68,192.77h0a49.91,49.91,0,0,1,33.63-9.3l9.73.92"/><g class="cls-9"><path class="cls-4" d="M467.07,212.86A12.08,12.08,0,0,1,450,229.94"/><path class="cls-4" d="M472,251.9A12.08,12.08,0,0,1,489,234.82"/></g><line class="cls-4" x1="460.14" y1="223.01" x2="478.5" y2="241.37"/><line class="cls-4" x1="460.14" y1="241.37" x2="478.5" y2="223.01"/><path class="cls-4" d="M314.24,192.55a15.65,15.65,0,0,0,1.66-20.15,3.34,3.34,0,0,0-3.81-1.21h0a3.31,3.31,0,0,0-2.23,3.14h0a8.45,8.45,0,0,1-3,6.44l-1.13.95A40.6,40.6,0,0,0,294.53,197L246.37,311.88"/><circle class="cls-4" cx="311.77" cy="176.24" r="1.91"/><circle class="cls-4" cx="466.35" cy="253.41" r="5.21"/><path class="cls-4" d="M471.48,204.34a5.21,5.21,0,1,1-9.71-3.42"/><polygon class="cls-4" points="611.6 57.27 616.93 71.53 632.54 72.48 620.92 82.11 624.54 97.1 611.6 88 598.66 97.1 602.28 82.11 590.67 72.48 606.28 71.53 611.6 57.27"/><path class="cls-4" d="M617.9,75.47a6.3,6.3,0,0,1-12.59,0"/><rect class="cls-4" x="574.27" y="303.06" width="74.67" height="74.67"/><path d="M271.4,396.32a2.78,2.78,0,0,0-5.53.58"/></g><g id="diecut"><line class="cls-10" x1="36" x2="36" y2="2"/><line class="cls-11" x1="36" y1="10" x2="36" y2="606"/><line class="cls-10" x1="36" y1="610" x2="36" y2="612"/></g><g id="frame"><path d="M755,37V575H72.94V37H755m1-1H71.94V576H756V36Z"/></g></svg>