<svg xmlns="http://www.w3.org/2000/svg" xmlns:xlink="http://www.w3.org/1999/xlink" viewBox="0 0 792 612"><defs><style>.cls-1,.cls-10,.cls-2,.cls-9{fill:none;}.cls-2,.cls-3{stroke:#000;}.cls-10,.cls-2,.cls-3,.cls-9{stroke-linecap:round;stroke-linejoin:round;}.cls-3,.cls-5{fill:#fff;}.cls-4{clip-path:url(#clip-path);}.cls-6{clip-path:url(#clip-path-2);}.cls-7{clip-path:url(#clip-path-3);}.cls-8{clip-path:url(#clip-path-4);}.cls-10,.cls-9{stroke:#dddede;stroke-width:0.5px;}.cls-10{stroke-dasharray:4 8;}</style><clipPath id="clip-path"><path class="cls-1" d="M512.18,197.47s0,45.46,57.78,45.46c54.26,0,57.79-45.46,57.79-45.46Z"/></clipPath><clipPath id="clip-path-2"><polygon class="cls-1" points="347.22 441.82 181.23 441.82 190.88 401.51 335.3 401.51 347.22 441.82"/></clipPath><clipPath id="clip-path-3"><polygon class="cls-1" points="756 508.91 703.72 508.91 651.93 468.6 756 468.6 756 508.91"/></clipPath><clipPath id="clip-path-4"><polyline class="cls-1" points="394.37 779.04 339.41 677.82 423.38 760.64"/></clipPath></defs><g id="art"><polyline class="cls-2" points="263.07 138.76 245.55 128.64 228.02 138.76"/><polyline class="cls-2" points="298.13 138.76 280.6 128.64 263.07 138.76"/><rect class="cls-2" x="189.23" y="138.76" width="146.22" height="84.84" rx="42.42"/><rect class="cls-2" x="198.95" y="146.86" width="125.96" height="67.81" rx="33.9"/><path class="cls-2" d="M283.87,180.76a20.8,20.8,0,1,1-41.59,0"/><circle class="cls-2" cx="263.08" cy="180.76" r="11.82"/><line class="cls-2" x1="228.02" y1="147.2" x2="254.54" y2="172.59"/><line class="cls-2" x1="295.21" y1="146.86" x2="271.61" y2="172.59"/><polygon points="263.49 180.76 254.54 172.59 271.61 172.59 263.49 180.76"/><line class="cls-2" x1="263.49" y1="180.76" x2="263.49" y2="192.58"/><circle cx="228.02" cy="181.18" r="2.92"/><circle cx="298.13" cy="181.18" r="2.92"/><polygon class="cls-2" points="335.45 376.17 189.23 376.17 231.65 223.61 295.21 223.61 335.45 376.17"/><line class="cls-2" x1="250.52" y1="223.61" x2="250.52" y2="253.62"/><line class="cls-2" x1="274.16" y1="223.61" x2="274.16" y2="253.62"/><path class="cls-2" d="M217.2,275.59h-23a11,11,0,0,1-11-11h0a11,11,0,0,1,11-11h28.83Z"/><path class="cls-2" d="M308.9,275.59h23a11,11,0,0,0,11-11h0a11,11,0,0,0-11-11H303Z"/><line class="cls-2" x1="184.02" y1="261.02" x2="189.23" y2="261.02"/><line class="cls-2" x1="184.02" y1="268.19" x2="189.23" y2="268.19"/><circle class="cls-2" cx="197.31" cy="264.6" r="4.89"/><circle class="cls-2" cx="329.8" cy="264.6" r="4.89"/><line class="cls-2" x1="336.81" y1="261.02" x2="342.02" y2="261.02"/><line class="cls-2" x1="336.81" y1="268.19" x2="342.02" y2="268.19"/><line class="cls-2" x1="245.55" y1="128.64" x2="245.55" y2="138.76"/><line class="cls-2" x1="280.6" y1="128.64" x2="280.6" y2="138.76"/><polygon class="cls-2" points="262.34 239.39 267.66 253.65 283.27 254.6 271.66 264.23 275.28 279.21 262.34 270.12 249.4 279.21 253.01 264.23 241.4 254.6 257.01 253.65 262.34 239.39"/><path class="cls-2" d="M268.63,257.59a6.3,6.3,0,0,1-12.59,0"/><path class="cls-2" d="M599.89,36.55c-11.22,0-28.87,4.32-54.51,13.83h0A230.41,230.41,0,0,0,415.69,171.24l-11.77,25.95a12.37,12.37,0,0,0,11.27,17.47h70.94a8.76,8.76,0,0,1,8.5,6.67l26.65,108.58a136.69,136.69,0,0,0,49,75.45L756,549.47"/><path class="cls-2" d="M684.55,36.55V239.88A21.14,21.14,0,0,1,663.41,261h0a21.14,21.14,0,0,1-21.13-21.14V36.55"/><path class="cls-2" d="M684.55,159.9h22a37.57,37.57,0,0,1,37.58,37.57h0a37.57,37.57,0,0,1-37.58,37.58h-22"/><line class="cls-2" x1="714.35" y1="138.76" x2="714.35" y2="160.7"/><path class="cls-2" d="M714.35,235.05v99.46c0,23,18.12,41.66,41.13,41.66"/><path class="cls-2" d="M714.35,172.59h0a24.89,24.89,0,0,1-24.89,24.88h-4.91"/><path class="cls-2" d="M714.35,222.36h0a24.89,24.89,0,0,0-24.89-24.89h-4.91"/><path class="cls-2" d="M546.17,284.36a14.87,14.87,0,0,1-29.73,0"/><path class="cls-3" d="M627.75,197.47s0,45.46-57.79,45.46-57.78-45.46-57.78-45.46"/><path class="cls-3" d="M512.18,197.47S512.18,152,570,152c54.26,0,57.79,45.46,57.79,45.46"/><path class="cls-2" d="M492.51,186.08a11.39,11.39,0,0,0,11.4,11.39H627.75"/><g class="cls-4"><circle cx="512.18" cy="197.47" r="38.67"/></g><path class="cls-5" d="M608.05,143.11a110.85,110.85,0,0,0-74.48,0c-7.24,2.54-15.73.15-19.31-6.48h0c-3.58-6.6.78-15.84,10.16-19.18a138.22,138.22,0,0,1,92.78,0c9.38,3.34,13.73,12.58,10.16,19.18h0C623.78,143.26,615.29,145.65,608.05,143.11Z"/><path class="cls-2" d="M608.05,143.11a110.85,110.85,0,0,0-74.48,0c-7.24,2.54-15.73.15-19.31-6.48h0c-3.58-6.6.78-15.84,10.16-19.18a138.22,138.22,0,0,1,92.78,0c9.38,3.34,13.73,12.58,10.16,19.18h0C623.78,143.26,615.29,145.65,608.05,143.11Z"/><path class="cls-3" d="M642.28,36.55V239.88A21.15,21.15,0,0,1,621.14,261h0A21.15,21.15,0,0,1,600,239.88l-.11-203.33"/><line class="cls-3" x1="196.95" y1="376.17" x2="149.33" y2="575.13"/><line class="cls-3" x1="327.8" y1="376.17" x2="386.66" y2="575.13"/><line class="cls-3" x1="181.23" y1="441.82" x2="347.22" y2="441.82"/><line class="cls-3" x1="190.88" y1="401.51" x2="335.3" y2="401.51"/><g class="cls-6"><line class="cls-3" x1="181.23" y1="394.24" x2="181.23" y2="446.21"/><line class="cls-3" x1="193.18" y1="394.24" x2="193.18" y2="446.21"/><line class="cls-3" x1="205.12" y1="394.24" x2="205.12" y2="446.21"/><line class="cls-3" x1="217.07" y1="394.24" x2="217.07" y2="446.21"/><line class="cls-3" x1="229.01" y1="394.24" x2="229.01" y2="446.21"/><line class="cls-3" x1="240.96" y1="394.24" x2="240.96" y2="446.21"/><line class="cls-3" x1="252.9" y1="394.24" x2="252.9" y2="446.21"/><line class="cls-3" x1="264.85" y1="394.24" x2="264.85" y2="446.21"/><line class="cls-3" x1="276.79" y1="394.24" x2="276.79" y2="446.21"/><line class="cls-3" x1="288.74" y1="394.24" x2="288.74" y2="446.21"/><line class="cls-3" x1="300.68" y1="394.24" x2="300.68" y2="446.21"/><line class="cls-3" x1="312.63" y1="394.24" x2="312.63" y2="446.21"/><line class="cls-3" x1="324.57" y1="394.24" x2="324.57" y2="446.21"/><line class="cls-3" x1="336.52" y1="394.24" x2="336.52" y2="446.21"/><line class="cls-3" x1="348.46" y1="394.24" x2="348.46" y2="446.21"/></g><g class="cls-7"><line class="cls-3" x1="642.28" y1="461.33" x2="642.28" y2="513.29"/><line class="cls-3" x1="654.22" y1="461.33" x2="654.22" y2="513.29"/><line class="cls-3" x1="666.17" y1="461.33" x2="666.17" y2="513.29"/><line class="cls-3" x1="678.11" y1="461.33" x2="678.11" y2="513.29"/><line class="cls-3" x1="690.06" y1="461.33" x2="690.06" y2="513.29"/><line class="cls-3" x1="702" y1="461.33" x2="702" y2="513.29"/><line class="cls-3" x1="713.95" y1="461.33" x2="713.95" y2="513.29"/><line class="cls-3" x1="725.89" y1="461.33" x2="725.89" y2="513.29"/><line class="cls-3" x1="737.84" y1="461.33" x2="737.84" y2="513.29"/><line class="cls-3" x1="749.78" y1="461.33" x2="749.78" y2="513.29"/><line class="cls-3" x1="761.73" y1="461.33" x2="761.73" y2="513.29"/><line class="cls-3" x1="773.67" y1="461.33" x2="773.67" y2="513.29"/><line class="cls-3" x1="785.61" y1="461.33" x2="785.61" y2="513.29"/></g><line class="cls-3" x1="651.93" y1="468.6" x2="756" y2="468.6"/><line class="cls-3" x1="703.72" y1="508.91" x2="756" y2="508.91"/><line class="cls-3" x1="222.38" y1="452.37" x2="316.84" y2="452.37"/><g class="cls-8"><circle class="cls-2" cx="341.72" cy="687.91" r="75.56"/><circle class="cls-2" cx="341.72" cy="687.91" r="86.39"/><circle class="cls-2" cx="341.72" cy="687.91" r="97.21"/></g><path d="M472.81,205.15a5.95,5.95,0,0,0,11.89,0"/><line class="cls-2" x1="466.53" y1="205.15" x2="487.67" y2="205.15"/></g><g id="diecut"><line class="cls-9" x1="36" x2="36" y2="2"/><line class="cls-10" x1="36" y1="10" x2="36" y2="606"/><line class="cls-9" x1="36" y1="610" x2="36" y2="612"/></g><g id="frame"><path d="M755,37V575H72.94V37H755m1-1H71.94V576H756V36Z"/></g></svg>