<svg xmlns="http://www.w3.org/2000/svg" xmlns:xlink="http://www.w3.org/1999/xlink" viewBox="0 0 792 612"><defs><style>.cls-1,.cls-10,.cls-11,.cls-12,.cls-2{fill:none;}.cls-10,.cls-2,.cls-3{stroke:#000;}.cls-11,.cls-12,.cls-2,.cls-3{stroke-linecap:round;stroke-linejoin:round;}.cls-3,.cls-4{fill:#fff;}.cls-5{clip-path:url(#clip-path);}.cls-6{clip-path:url(#clip-path-2);}.cls-7{clip-path:url(#clip-path-3);}.cls-8{clip-path:url(#clip-path-4);}.cls-9{clip-path:url(#clip-path-5);}.cls-10{stroke-miterlimit:10;}.cls-11,.cls-12{stroke:#dddede;stroke-width:0.5px;}.cls-12{stroke-dasharray:4 8;}</style><clipPath id="clip-path"><circle class="cls-1" cx="421.7" cy="135.12" r="45.28"/></clipPath><clipPath id="clip-path-2"><circle class="cls-1" cx="639.69" cy="168.33" r="59.51"/></clipPath><clipPath id="clip-path-3"><circle class="cls-1" cx="192.87" cy="227.84" r="83.72"/></clipPath><clipPath id="clip-path-4"><circle class="cls-1" cx="699.2" cy="460.34" r="32.02"/></clipPath><clipPath id="clip-path-5"><circle class="cls-1" cx="117.76" cy="81.65" r="23.9"/></clipPath></defs><g id="art"><polygon class="cls-2" points="548.87 515.93 554.19 530.19 569.81 531.15 558.19 540.78 561.81 555.76 548.87 546.66 535.93 555.76 539.55 540.78 527.93 531.15 543.55 530.19 548.87 515.93"/><path class="cls-2" d="M555.16,534.13a6.29,6.29,0,0,1-12.58,0"/><circle class="cls-3" cx="192.87" cy="227.84" r="83.72"/><circle class="cls-3" cx="639.69" cy="168.33" r="59.51"/><circle class="cls-3" cx="421.7" cy="135.12" r="45.28"/><circle class="cls-3" cx="141.17" cy="518.63" r="32.02"/><circle class="cls-3" cx="699.2" cy="460.34" r="32.02"/><circle class="cls-3" cx="117.76" cy="81.65" r="23.9"/><path class="cls-3" d="M556.33,330.9a129.21,129.21,0,1,1-249.31,68"/><path class="cls-4" d="M739,302.44c7.65,36.41-129.38,96-306.07,133.18S106.81,473.36,99.15,437s129.38-96,306.07-133.18S731.35,266,739,302.44ZM426.13,403.22C531.62,381,613.44,345.44,608.87,323.7s-93.8-21.38-199.29.79S222.27,382.28,226.84,404,320.63,425.4,426.13,403.22Z"/><path class="cls-2" d="M739,302.44c7.65,36.41-129.38,96-306.07,133.18S106.81,473.36,99.15,437s129.38-96,306.07-133.18S731.35,266,739,302.44Z"/><path class="cls-2" d="M608.87,323.7c4.57,21.74-77.25,57.34-182.74,79.52s-194.72,22.53-199.29.79,77.24-57.34,182.74-79.52S604.3,302,608.87,323.7Z"/><path class="cls-3" d="M307,398.85a129.22,129.22,0,0,1,249.31-68"/><g class="cls-5"><path class="cls-2" d="M383.73,103.93h0a61.69,61.69,0,0,0,63.06,6.18l13.08-6.18,7.63,13-36.7,22.33a61.69,61.69,0,0,1-57,3.73l-.56-.25L377.35,156l25.2,9.12a61.71,61.71,0,0,0,53.18-5.37l12.06-7.38"/></g><path class="cls-2" d="M539.14,294.24c76.87-6.61,130.66-.35,134.71,18.9,6.09,29-103,76.47-243.73,106.05s-259.71,30.06-265.81,1.06c-4.5-21.41,53.84-52.91,141.33-79.83"/><path class="cls-3" d="M342.56,273.6h0a142.57,142.57,0,0,0,166.5,5.6l10.9-7.3"/><path class="cls-3" d="M362.88,475.72l106.33-23.94a70,70,0,0,1,51.9,8.56h0"/><g class="cls-6"><polyline class="cls-2" points="585.85 111.31 710.91 125.4 714 144.12 555.16 151.82 555.16 164.59 717.52 164.59 717.52 174.28 558.99 188.37 559.43 200.7 711.79 205.54 709.15 214.35 582.77 220.08"/></g><g class="cls-7"><path class="cls-2" d="M297.09,140.24l-4.38,7.83a227.4,227.4,0,0,0-23.34,160.65h0"/><path class="cls-2" d="M277.91,134.33l-4.68,8.38a243.37,243.37,0,0,0-25,171.92h0"/><path class="cls-2" d="M258.74,128.42l-5,8.93a259.34,259.34,0,0,0-26.62,183.19h0"/><path class="cls-2" d="M239.57,122.51l-5.3,9.48A275.26,275.26,0,0,0,206,326.45h0"/><path class="cls-2" d="M220.4,116.6l-5.61,10A291.22,291.22,0,0,0,184.9,332.36h0"/><path class="cls-2" d="M201.22,110.69l-5.91,10.58a307.19,307.19,0,0,0-31.53,217h0"/><path class="cls-2" d="M182.05,104.78l-6.21,11.13a323.06,323.06,0,0,0-33.17,228.27h0"/><path class="cls-2" d="M162.88,98.87l-6.52,11.68a339,339,0,0,0-34.81,239.54h0"/><path class="cls-2" d="M143.71,93l-6.83,12.23A355,355,0,0,0,100.43,356h0"/></g><path class="cls-2" d="M111.49,506.59h0a75.6,75.6,0,0,0,40,12.51l21.65.46"/><path class="cls-2" d="M172.18,524.15l-3.32,1.07a151.4,151.4,0,0,1-56.72,6.92h0"/><ellipse class="cls-2" cx="712.9" cy="472.19" rx="6.39" ry="3.74"/><g class="cls-8"><path class="cls-2" d="M668.22,468.44c.19.72,17.65.31,25.09.1a17.55,17.55,0,0,0,6.31-1.36L707.2,464a17.63,17.63,0,0,1,11.64-.69l11.75,3.34,8.95,8-3.74,7.7-21.62,2.28a17.66,17.66,0,0,1-13.47-4.28h0a17.58,17.58,0,0,0-11.63-4.38H661.37l-4-18.06,5.85-.25a139.53,139.53,0,0,0,65.49-19.56h0l-12.82.68a125.29,125.29,0,0,1-47.09-6.5l-1.66-.57H693a17.7,17.7,0,0,0,4.85-.68l23.82-6.8"/></g><path class="cls-3" d="M303,366.66h0A348,348,0,0,0,483.9,347.72L553,321"/><g class="cls-9"><ellipse class="cls-2" cx="109.15" cy="81.65" rx="20.04" ry="29.72"/></g><circle class="cls-2" cx="569.81" cy="60.35" r="2.59"/><circle class="cls-2" cx="330.41" cy="527" r="2.59"/><circle class="cls-2" cx="286.4" cy="89.84" r="13.04"/><path class="cls-10" d="M531.44,212l-6.37,6.37a4.91,4.91,0,0,1-8.29-2.55L512.44,193"/><path class="cls-10" d="M525.52,179.92l22.82,4.34a4.91,4.91,0,0,1,2.55,8.29l-6.38,6.37"/><path class="cls-10" d="M507,187l-5.7-11a5.54,5.54,0,0,1,7.25-7.25L519,174"/><path class="cls-3" d="M518.94,174a9.36,9.36,0,0,1,2.38,1.72l23.19,23.2L531.44,212l-23.2-23.2a9.23,9.23,0,0,1-2.3-3.8"/><path class="cls-3" d="M505.81,180a9.15,9.15,0,0,1,2.43-4.28h0a9.23,9.23,0,0,1,4.76-2.54"/><polyline class="cls-2" points="544.51 198.92 554.33 208.63 544.92 207.31 559.28 226.57 540.24 212.7 541.74 222.5 531.44 212"/><line class="cls-2" x1="524.12" y1="204.68" x2="537.2" y2="191.6"/><line class="cls-2" x1="516.57" y1="197.13" x2="529.65" y2="184.05"/><line class="cls-2" x1="543.39" y1="210.87" x2="523.11" y2="190.59"/></g><g id="diecut"><line class="cls-11" x1="36" x2="36" y2="2"/><line class="cls-12" x1="36" y1="10" x2="36" y2="606"/><line class="cls-11" x1="36" y1="610" x2="36" y2="612"/></g><g id="frame"><path d="M755,37V575H72.94V37H755m1-1H71.94V576H756V36Z"/></g></svg>