<svg xmlns="http://www.w3.org/2000/svg" xmlns:xlink="http://www.w3.org/1999/xlink" viewBox="0 0 792 612"><defs><style>.cls-1,.cls-2,.cls-7,.cls-8{fill:none;}.cls-2,.cls-3{stroke:#000;}.cls-2,.cls-3,.cls-7,.cls-8{stroke-linecap:round;stroke-linejoin:round;}.cls-3{fill:#fff;}.cls-4{clip-path:url(#clip-path);}.cls-5{clip-path:url(#clip-path-2);}.cls-6{clip-path:url(#clip-path-3);}.cls-7,.cls-8{stroke:#dddede;stroke-width:0.5px;}.cls-8{stroke-dasharray:4 8;}</style><clipPath id="clip-path"><path class="cls-1" d="M368.12,238.6s0,27.27,34.67,27.27c32.55,0,34.66-27.27,34.66-27.27Z"/></clipPath><clipPath id="clip-path-2"><polygon class="cls-1" points="540.88 575 71.94 576 73.08 375.52 482.53 375.52 540.88 575"/></clipPath><clipPath id="clip-path-3"><polyline class="cls-1" points="394.37 149.04 339.41 47.82 423.38 130.64"/></clipPath></defs><g id="art"><polygon class="cls-2" points="175.84 231.34 175.49 246.56 189.63 253.24 175.27 257.87 173.06 273.12 164.43 259.87 149.03 263.51 157.96 250.95 150.75 237.69 165.6 242.6 175.84 231.34"/><path class="cls-2" d="M174.92,250.57a6.29,6.29,0,1,1-11.68-4.67"/><path class="cls-3" d="M437.45,238.6s0,27.27-34.66,27.27-34.67-27.27-34.67-27.27"/><path class="cls-3" d="M368.12,238.6s0-27.27,34.67-27.27c32.55,0,34.66,27.27,34.66,27.27"/><path class="cls-2" d="M356.32,231.76a6.84,6.84,0,0,0,6.84,6.84h74.29"/><g class="cls-4"><circle cx="368.12" cy="238.6" r="23.2"/></g><path class="cls-2" d="M346.32,231.76a6.84,6.84,0,0,0,6.84,6.84h74.29"/><path class="cls-2" d="M336.32,231.76a6.84,6.84,0,0,0,6.84,6.84h74.29"/><path class="cls-2" d="M173,273.36l185.3-59.63h0a29.83,29.83,0,0,1,16.38-38.29l3.23-1.35"/><path class="cls-2" d="M411.64,195.79a27.25,27.25,0,0,1,34,18.24"/><circle cx="200.33" cy="294.73" r="4.57"/><path class="cls-2" d="M208.33,307.24a12,12,0,0,1-12-12"/><path class="cls-2" d="M398.65,326.64a21.76,21.76,0,0,1-21.76,21.76"/><path class="cls-2" d="M390.72,325.44a7.93,7.93,0,1,1,15.86,0"/><line class="cls-2" x1="475.66" y1="350.98" x2="540.88" y2="575"/><path class="cls-2" d="M756,251.14a44.66,44.66,0,0,0-12.67-2.31,45,45,0,0,0-36-18l-1.2,0a44.66,44.66,0,0,0,1.7-12.2A45.07,45.07,0,0,0,645.64,177a45,45,0,0,0-33-14.4c-1.48,0-2.95.08-4.4.22A45.07,45.07,0,0,0,553.9,128c-3.92-20.12-19.56-35.21-38.22-35.21-13.73,0-25.83,8.18-32.82,20.52a25.09,25.09,0,0,0-48.45,2.54,25,25,0,0,0-18.79-8.49,27.75,27.75,0,0,0-22,11.65c-2.89,4.24-5.55,11.19-2.32,20.54a21.23,21.23,0,0,0-19.74,37.57.54.54,0,0,0,.25.06.5.5,0,0,0,.43-.25c.06-.11,2.43-1.16,4.95-2.26a19.93,19.93,0,0,0,37.65.86c2.11,4.1,5.15,6.7,8.54,6.7,2.59,0,5-1.52,6.89-4.05a25.09,25.09,0,0,0,40.68,8,20.15,20.15,0,0,0,19.41,14.82,19.89,19.89,0,0,0,7.45-1.45A20.14,20.14,0,0,0,533,218.54a32,32,0,0,0,50.2,32.82,45.06,45.06,0,0,0,36.47,63,49.59,49.59,0,0,0,42.12,75.83h.65a49.63,49.63,0,0,0,61,58.64A49.82,49.82,0,0,0,754,475.33"/><polyline class="cls-3" points="394.37 149.04 339.41 47.82 423.38 130.64"/><path class="cls-3" d="M392.56,153.85a31.35,31.35,0,0,1,34-23.46"/><line class="cls-2" x1="298.93" y1="161.82" x2="138.19" y2="161.82"/><line class="cls-2" x1="240.8" y1="167.96" x2="105.16" y2="167.96"/><path class="cls-2" d="M203.37,149.56a46.68,46.68,0,1,1,93.35,0H156.81a23.28,23.28,0,0,1,46.56,0"/><g class="cls-5"><path class="cls-2" d="M73.08,625.82c87.67-51,150.13-53,192.21-44,52.56,11.28,73.71,39.9,130.13,46.78,59.79,7.29,112.88-15.47,149.58-37"/><path class="cls-2" d="M73.08,599.58c87.67-51,150.13-53,192.21-44,52.56,11.28,73.71,39.9,130.13,46.78,59.79,7.29,112.88-15.47,149.58-37"/><path class="cls-2" d="M73.08,573.34c87.67-51,150.13-53,192.21-44,52.56,11.28,73.71,39.9,130.13,46.78,59.79,7.29,112.88-15.47,149.58-37"/><path class="cls-2" d="M73.08,547.1c87.67-51,150.13-53,192.21-44C317.85,514.39,339,543,395.42,549.89c59.79,7.29,112.88-15.47,149.58-37"/><path class="cls-2" d="M73.08,520.86c87.67-51,150.13-53,192.21-44,52.56,11.28,73.71,39.9,130.13,46.78,59.79,7.29,112.88-15.47,149.58-37"/><path class="cls-2" d="M73.08,494.62c87.67-51,150.13-53,192.21-44,52.56,11.28,73.71,39.9,130.13,46.78,59.79,7.29,112.88-15.47,149.58-37"/><path class="cls-2" d="M73.08,468.38c87.67-51,150.13-53,192.21-44,52.56,11.28,73.71,39.9,130.13,46.78,59.79,7.29,112.88-15.47,149.58-37"/><path class="cls-2" d="M73.08,442.14c87.67-51,150.13-53,192.21-44,52.56,11.28,73.71,39.9,130.13,46.78,59.79,7.29,112.88-15.47,149.58-37"/></g><path class="cls-2" d="M607.61,486.33h0a14.79,14.79,0,0,1,23.44.07l7.81,10.22,6.78-9.69a14.78,14.78,0,0,1,23.44-1l.29.35a14.77,14.77,0,0,1-.87,19.95l-29.64,29.65-30-30A14.78,14.78,0,0,1,607.61,486.33Z"/><line class="cls-2" x1="633.97" y1="517.71" x2="628.23" y2="505.27"/><line class="cls-2" x1="657.14" y1="507.03" x2="651.4" y2="494.58"/><line class="cls-2" x1="600.17" y1="525.76" x2="631.1" y2="511.49"/><line class="cls-2" x1="592.99" y1="517.96" x2="605.84" y2="522.7"/><line class="cls-2" x1="601.44" y1="536.29" x2="606.18" y2="523.43"/><line class="cls-2" x1="603.71" y1="513.01" x2="616.57" y2="517.75"/><line class="cls-2" x1="612.17" y1="531.34" x2="616.91" y2="518.48"/><line class="cls-2" x1="654.39" y1="500.47" x2="685.33" y2="486.2"/><line class="cls-2" x1="672.27" y1="481.39" x2="685.13" y2="486.12"/><line class="cls-2" x1="680.73" y1="499.71" x2="685.47" y2="486.86"/><g class="cls-6"><circle class="cls-2" cx="341.72" cy="57.91" r="10.61"/><circle class="cls-2" cx="341.72" cy="57.91" r="21.44"/><circle class="cls-2" cx="341.72" cy="57.91" r="32.26"/><circle class="cls-2" cx="341.72" cy="57.91" r="43.09"/><circle class="cls-2" cx="341.72" cy="57.91" r="53.91"/><circle class="cls-2" cx="341.72" cy="57.91" r="64.74"/><circle class="cls-2" cx="341.72" cy="57.91" r="75.56"/><circle class="cls-2" cx="341.72" cy="57.91" r="86.39"/><circle class="cls-2" cx="341.72" cy="57.91" r="97.21"/></g><line class="cls-2" x1="685.58" y1="67.33" x2="685.58" y2="145.64"/><line class="cls-2" x1="646.43" y1="106.48" x2="724.73" y2="106.48"/><line class="cls-2" x1="657.9" y1="134.17" x2="713.27" y2="78.8"/><line class="cls-2" x1="713.27" y1="134.17" x2="657.89" y2="78.8"/><circle class="cls-3" cx="685.58" cy="105.55" r="15.69"/><circle class="cls-2" cx="685.58" cy="105.55" r="23.9"/><path class="cls-2" d="M485.75,318.14a58.82,58.82,0,0,1-109.08,30.55"/><path class="cls-2" d="M173,273.36h0A64.83,64.83,0,0,0,233.15,338L376.89,348.4"/><line class="cls-2" x1="215.11" y1="259.8" x2="240.8" y2="338.58"/></g><g id="diecut"><line class="cls-7" x1="36" x2="36" y2="2"/><line class="cls-8" x1="36" y1="10" x2="36" y2="606"/><line class="cls-7" x1="36" y1="610" x2="36" y2="612"/></g><g id="frame"><path d="M755,37V575H72.94V37H755m1-1H71.94V576H756V36Z"/></g></svg>