<svg xmlns="http://www.w3.org/2000/svg" viewBox="0 0 792 612"><defs><style>.cls-1,.cls-3,.cls-4{fill:none;}.cls-1,.cls-2{stroke:#000;}.cls-1,.cls-2,.cls-3,.cls-4{stroke-linecap:round;stroke-linejoin:round;}.cls-2{fill:#fff;}.cls-3,.cls-4{stroke:#dddede;stroke-width:0.5px;}.cls-4{stroke-dasharray:4 8;}</style></defs><g id="art"><path class="cls-1" d="M406.85,464.07a43.11,43.11,0,0,0-47.49-38.21l-36.48,3.95,4.59,42.42"/><path class="cls-1" d="M323.34,434.05l-40.72,4.41a57.18,57.18,0,0,1-63-50.69l-9.88-91.26a14,14,0,0,0-15.45-12.43L75.87,296.91l7.22,66.71a487.31,487.31,0,0,1-2.72,125.84l-1.48,9.7,151.86-16.45"/><path class="cls-1" d="M301.73,451.46a5.3,5.3,0,1,1,5.82,4.52A5.21,5.21,0,0,1,301.73,451.46Z"/><path class="cls-1" d="M278.93,453.93a5.29,5.29,0,1,1,5.81,4.52A5.2,5.2,0,0,1,278.93,453.93Z"/><path class="cls-1" d="M256.13,452.85a5.3,5.3,0,0,1,2.22-3.21,5.07,5.07,0,0,1,3.69-.89,5.17,5.17,0,0,1,3.31,1.87,5.34,5.34,0,0,1,1.25,3.71,4.76,4.76,0,0,1-1.85,3.51,5.63,5.63,0,0,1-7.82-1.1A4.76,4.76,0,0,1,256.13,452.85Z"/><path class="cls-1" d="M235.09,444a5.31,5.31,0,0,1,3.2-2.27,5.23,5.23,0,0,1,3.77.45,5.1,5.1,0,0,1,2.45,2.91,5.27,5.27,0,0,1-.1,3.9,4.8,4.8,0,0,1-2.95,2.66,5.6,5.6,0,0,1-4.24-.45,5.51,5.51,0,0,1-2.71-3.29A4.71,4.71,0,0,1,235.09,444Z"/><path class="cls-1" d="M218.35,428.5a5.42,5.42,0,0,1,3.79-1,5.17,5.17,0,0,1,4.71,5.28,5.42,5.42,0,0,1-1.45,3.64,4.71,4.71,0,0,1-3.67,1.48,5.64,5.64,0,0,1-5.26-5.89A4.69,4.69,0,0,1,218.35,428.5Z"/><path class="cls-1" d="M208,408.17a5.41,5.41,0,0,1,3.91.34,5.3,5.3,0,0,1,2.6,2.77,4.73,4.73,0,0,1,.34,1.92,5.08,5.08,0,0,1-.34,1.88,5.4,5.4,0,0,1-2.63,2.93,4.68,4.68,0,0,1-3.94.12,5.75,5.75,0,0,1-1.75-1.18,6.15,6.15,0,0,1-1.2-1.9,5.49,5.49,0,0,1,0-4.27A4.71,4.71,0,0,1,208,408.17Z"/><ellipse class="cls-1" cx="204.94" cy="390.82" rx="5.12" ry="5.29" transform="translate(-40.89 24.34) rotate(-6.18)"/><ellipse class="cls-1" cx="202.46" cy="368.01" rx="5.12" ry="5.29" transform="translate(-38.45 23.94) rotate(-6.18)"/><path class="cls-1" d="M199.42,339.94a5.3,5.3,0,1,1-4.52,5.82A5.21,5.21,0,0,1,199.42,339.94Z"/><path class="cls-1" d="M197,317.13a5.3,5.3,0,1,1-4.52,5.82A5.21,5.21,0,0,1,197,317.13Z"/><path class="cls-1" d="M194.48,294.33a5.29,5.29,0,1,1-4.52,5.81A5.2,5.2,0,0,1,194.48,294.33Z"/><rect class="cls-2" x="195.39" y="293.99" width="21.33" height="8.53" rx="4.27" transform="translate(-30.92 23.92) rotate(-6.18)"/><rect class="cls-2" x="295.45" y="437.23" width="21.33" height="8.53" rx="4.27" transform="translate(712.09 89.62) rotate(83.82)"/><rect class="cls-2" x="273.13" y="438.81" width="21.33" height="8.53" rx="4.27" transform="matrix(0.04, 1, -1, 0.04, 713.89, 139.96)"/><rect class="cls-2" x="252.97" y="439.46" width="21.33" height="8.53" rx="4.27" transform="translate(742.69 251.62) rotate(98.87)"/><rect class="cls-2" x="233.63" y="432.68" width="21.33" height="8.53" rx="4.27" transform="translate(741.08 375.17) rotate(112.12)"/><path class="cls-2" d="M222.81,426.66l8.94-9.17a4.26,4.26,0,0,1,6-.07h0a4.28,4.28,0,0,1,.08,6l-8.94,9.17a4.26,4.26,0,0,1-6,.07h0A4.27,4.27,0,0,1,222.81,426.66Z"/><rect class="cls-2" x="197.87" y="316.9" width="21.33" height="8.53" rx="4.27" transform="translate(-33.37 24.32) rotate(-6.18)"/><rect class="cls-2" x="200.35" y="339.81" width="21.33" height="8.53" rx="4.27" transform="translate(-35.82 24.72) rotate(-6.18)"/><rect class="cls-2" x="202.83" y="362.71" width="21.33" height="8.53" rx="4.27" transform="translate(-38.28 25.12) rotate(-6.18)"/><rect class="cls-2" x="205.31" y="385.62" width="21.33" height="8.53" rx="4.27" transform="translate(-40.73 25.52) rotate(-6.18)"/><rect class="cls-2" x="210" y="405.93" width="21.33" height="8.53" rx="4.27" transform="translate(-103.31 75.54) rotate(-15.79)"/><rect class="cls-1" x="73.17" y="492.38" width="344.22" height="29.87" transform="translate(-53.2 29.36) rotate(-6.18)"/><line class="cls-1" x1="89.41" y1="509.18" x2="92.63" y2="538.87"/><rect class="cls-2" x="73.52" y="481.41" width="339.1" height="11.09" transform="translate(-51.02 29.01) rotate(-6.18)"/><path class="cls-1" d="M85.2,295.9l7.22,66.71A487.31,487.31,0,0,1,89.7,488.45l-1.48,9.7L240.09,481.7"/><circle class="cls-2" cx="142.97" cy="361.74" r="31.58"/><polygon class="cls-1" points="140.71 340.81 147.93 355.19 164.45 354.42 153.34 365.87 158.84 381.2 144.21 373.11 131.64 384.15 133.74 367.99 120.43 359.19 136.73 356.4 140.71 340.81"/><path class="cls-1" d="M149.39,359.22a6.65,6.65,0,1,1-13.23,1.44"/><path class="cls-1" d="M464.52,394.7l-29.61,13.82-61.08-9.31,49.26-323,20.5,3.13a68.23,68.23,0,0,1,57.17,77.74Z"/><path class="cls-1" d="M487.27,94.6h89a0,0,0,0,1,0,0V334.94A68.24,68.24,0,0,1,508,403.18H487.27a0,0,0,0,1,0,0V94.6a0,0,0,0,1,0,0Z" transform="translate(1019.91 575.12) rotate(-171.33)"/><path class="cls-1" d="M373.83,399.21,228.06,377l3-19.55,13.88,1.06a127.09,127.09,0,0,0,57.45-9l84.26-34.2"/><polygon class="cls-1" points="421.57 413.99 220.42 383.31 221.54 375.98 434.91 408.52 421.57 413.99"/><polygon class="cls-1" points="539.66 432 460.67 419.95 464.52 394.7 552.47 408.12 539.66 432"/><line class="cls-1" x1="467" y1="378.42" x2="554.95" y2="391.83"/><path class="cls-2" d="M488.19,79.18h31.05a0,0,0,0,1,0,0V182.89a15.53,15.53,0,0,1-15.53,15.53h0a15.53,15.53,0,0,1-15.53-15.53V79.18a0,0,0,0,1,0,0Z" transform="translate(26.69 -74.37) rotate(8.67)"/><polygon class="cls-2" points="364.13 250.3 398.78 207.57 363.26 197.31 346.76 217.66 364.13 250.3"/><polyline class="cls-2" points="348.99 185.56 363.26 197.31 346.76 217.66 332.52 206.11 352.07 180.76"/><path class="cls-1" d="M315.16,239.28h0a44.57,44.57,0,0,0-49-39.7l-9.75,1"/><path class="cls-1" d="M179.4,243.59h0a44.56,44.56,0,0,0-49-39.69l-9.75,1"/><path class="cls-1" d="M315.92,229.34h0a44.56,44.56,0,0,1,39.7-49l9.75-1"/><circle class="cls-2" cx="314.33" cy="231.3" r="40.11" transform="translate(50.09 518.5) rotate(-83.73)"/><rect class="cls-2" x="117.97" y="186.86" width="248.67" height="5.35" transform="translate(502.99 352.88) rotate(174.04)"/><path class="cls-1" d="M173.33,254.08h0a44.56,44.56,0,0,1,39.69-49l19.51-2"/><line class="cls-1" x1="227.21" y1="203.65" x2="256.46" y2="200.6"/><polyline class="cls-1" points="398.78 207.57 400.14 220.55 378 248.85 364.13 250.3"/><path class="cls-1" d="M363,174.24l-.83-8a15.67,15.67,0,0,0-15.73-14L231.35,140.29a34.55,34.55,0,0,1-30.12-30.12l-7.18-58.83A16.31,16.31,0,0,0,176,37.11l-61.31,7.12L124.62,138a36.73,36.73,0,0,1-2.75,17.48h0A43.64,43.64,0,0,0,118.68,177L121,199.5"/><circle class="cls-1" cx="228.42" cy="95.09" r="28.52" transform="translate(108.96 311.77) rotate(-83.73)"/><circle class="cls-2" cx="225.13" cy="72.14" r="28.52" transform="matrix(0.11, -0.99, 0.99, 0.11, 128.84, 288.04)"/><path class="cls-1" d="M181.75,193.16l-.87-8.34a72.24,72.24,0,0,0-26.36-48.63h0a72.29,72.29,0,0,1-26.36-48.63l-4.62-44.25"/><polygon class="cls-1" points="157.33 83.69 167.08 82.67 154.56 57.1 157.33 83.69"/><polygon class="cls-1" points="160.11 110.29 157.33 83.69 147.58 84.71 160.11 110.29"/><circle class="cls-2" cx="314.33" cy="231.3" r="15.15"/><polygon class="cls-2" points="309.83 225.09 317.45 224.3 321.96 230.5 318.83 237.51 311.21 238.3 306.71 232.1 309.83 225.09"/><circle class="cls-2" cx="314.33" cy="231.3" r="3.57"/><circle class="cls-2" cx="163.63" cy="247.03" r="40.11" transform="translate(-99.79 382.71) rotate(-83.73)"/><circle class="cls-2" cx="163.63" cy="247.03" r="15.15"/><polygon class="cls-2" points="159.13 240.82 166.75 240.03 171.25 246.24 168.13 253.24 160.5 254.03 156 247.83 159.13 240.82"/><circle class="cls-2" cx="163.63" cy="247.03" r="3.57"/><path class="cls-2" d="M278.64,141.88h0a8.47,8.47,0,0,1,8.47,8.47V160.6a0,0,0,0,1,0,0H270.17a0,0,0,0,1,0,0V150.34A8.47,8.47,0,0,1,278.64,141.88Z" transform="translate(547.08 319.92) rotate(-176.35)"/><path class="cls-2" d="M192.25,78.31h0a8.47,8.47,0,0,1,8.47,8.47V97a0,0,0,0,1,0,0H183.78a0,0,0,0,1,0,0V86.77A8.47,8.47,0,0,1,192.25,78.31Z" transform="translate(125.02 287.98) rotate(-95.96)"/><path class="cls-2" d="M248.91,139.29h0a8.47,8.47,0,0,1,8.47,8.47V158a0,0,0,0,1,0,0H240.45a0,0,0,0,1,0,0V147.76A8.47,8.47,0,0,1,248.91,139.29Z" transform="translate(482.97 319.76) rotate(-174.68)"/><path class="cls-2" d="M215.91,130.34h0a8.47,8.47,0,0,1,8.47,8.47v10.25a0,0,0,0,1,0,0H207.44a0,0,0,0,1,0,0V138.81A8.47,8.47,0,0,1,215.91,130.34Z" transform="translate(295.6 384.2) rotate(-140.96)"/><line class="cls-1" x1="325.62" y1="187.46" x2="168.6" y2="203.35"/><path class="cls-2" d="M747,475.75V156H592V426.14A77.86,77.86,0,0,1,514.14,504H425.43a80.52,80.52,0,0,0-31.13,6.25A60.37,60.37,0,0,0,362,543H751l-1.75-18.85Q747,500,747,475.75Z"/><path class="cls-1" d="M711,156V127.5a41.5,41.5,0,0,0-83,0V156"/><line class="cls-2" x1="592" y1="170" x2="747" y2="170"/><rect class="cls-2" x="359" y="543" width="396" height="8"/><rect class="cls-2" x="359" y="551" width="396" height="8"/><rect class="cls-2" x="359" y="559" width="396" height="8"/><path class="cls-2" d="M640,567H755a0,0,0,0,1,0,0v0a8,8,0,0,1-8,8H648a8,8,0,0,1-8-8v0A0,0,0,0,1,640,567Z"/><path class="cls-2" d="M619,575H367a8,8,0,0,1-8-8H640A31.68,31.68,0,0,1,619,575Z"/><path class="cls-2" d="M592,183h17.5a7.5,7.5,0,0,1,7.5,7.5v0a7.5,7.5,0,0,1-7.5,7.5H592a0,0,0,0,1,0,0V183a0,0,0,0,1,0,0Z"/><path class="cls-1" d="M706.26,156V126.76a36.76,36.76,0,1,0-73.52,0V156"/><rect class="cls-1" x="204.94" y="532.45" width="35" height="35" transform="translate(-323.75 318.43) rotate(-45.01)"/><rect class="cls-1" x="465.42" y="436.53" width="55.67" height="55.68" transform="translate(-183.89 484.87) rotate(-45.01)"/><rect class="cls-1" x="294.14" y="281.45" width="50.46" height="50.46" transform="translate(-123.32 315.7) rotate(-45.01)"/><rect class="cls-1" x="318.55" y="53.54" width="82.76" height="82.77" transform="translate(17.59 241.09) rotate(-37.89)"/><rect class="cls-1" x="79.96" y="98.12" width="35.13" height="35.13" transform="translate(-53.24 102.86) rotate(-45.01)"/><rect class="cls-1" x="651.95" y="43.91" width="34.62" height="34.63" transform="translate(152.78 491.23) rotate(-45.01)"/><line class="cls-1" x1="640" y1="567" x2="640" y2="543"/></g><g id="diecut"><line class="cls-3" x1="36" x2="36" y2="2"/><line class="cls-4" x1="36" y1="10" x2="36" y2="606"/><line class="cls-3" x1="36" y1="610" x2="36" y2="612"/></g><g id="frame"><path d="M755,37V575H72.94V37H755m1-1H71.94V576H756V36Z"/></g></svg>