<svg xmlns="http://www.w3.org/2000/svg" xmlns:xlink="http://www.w3.org/1999/xlink" viewBox="0 0 792 612"><defs><style>.cls-1,.cls-4,.cls-6,.cls-7,.cls-8{fill:none;}.cls-2{fill:#fff;}.cls-2,.cls-4,.cls-6{stroke:#000;}.cls-2,.cls-4,.cls-6,.cls-7,.cls-8{stroke-linecap:round;}.cls-2,.cls-4,.cls-7,.cls-8{stroke-linejoin:round;}.cls-3{clip-path:url(#clip-path);}.cls-5{clip-path:url(#clip-path-2);}.cls-6{stroke-miterlimit:10;}.cls-7,.cls-8{stroke:#dddede;stroke-width:0.5px;}.cls-8{stroke-dasharray:4 8;}</style><clipPath id="clip-path"><polygon class="cls-1" points="540.88 -55 71.94 -54 73.08 -254.47 482.53 -254.47 540.88 -55"/></clipPath><clipPath id="clip-path-2"><path class="cls-1" d="M465.27,262.06s0,8.07-10.25,8.07c-9.62,0-10.25-8.07-10.25-8.07Z"/></clipPath></defs><g id="art"><path class="cls-2" d="M188,236V174.58a4.49,4.49,0,0,1,4.5-4.5h0a4.49,4.49,0,0,1,4.5,4.5V230"/><rect class="cls-2" x="625" y="414" width="29" height="44" rx="14.5"/><line class="cls-2" x1="639" y1="447" x2="639" y2="467"/><line class="cls-2" x1="639" y1="463" x2="645" y2="457"/><g class="cls-3"><path class="cls-4" d="M73.08-4.18c87.67-51,150.13-53,192.21-44C317.85-36.89,339-8.27,395.42-1.39,455.21,5.9,508.3-16.86,545-38.4"/></g><line class="cls-4" x1="72" y1="467" x2="755" y2="467"/><polyline class="cls-4" points="175 423 175 246 378 246 378 467"/><polyline class="cls-4" points="378 246 442 199 506 246 505 356"/><polyline class="cls-2" points="505 356 570 309 634 356 634 467"/><line class="cls-2" x1="239" y1="199" x2="442" y2="199"/><line class="cls-2" x1="230" y1="205.71" x2="432.86" y2="205.71"/><line class="cls-2" x1="221" y1="212.43" x2="423.71" y2="212.43"/><line class="cls-2" x1="212" y1="219.14" x2="414.57" y2="219.14"/><line class="cls-2" x1="203" y1="225.86" x2="405.43" y2="225.86"/><line class="cls-2" x1="194" y1="232.57" x2="396.29" y2="232.57"/><line class="cls-2" x1="185" y1="239.29" x2="387.14" y2="239.29"/><line class="cls-2" x1="176" y1="246" x2="378" y2="246"/><line class="cls-2" x1="506" y1="309" x2="569" y2="309"/><line class="cls-2" x1="505.86" y1="315.71" x2="559.86" y2="315.71"/><line class="cls-2" x1="505.71" y1="322.43" x2="550.71" y2="322.43"/><line class="cls-2" x1="505.57" y1="329.14" x2="541.57" y2="329.14"/><line class="cls-2" x1="505.43" y1="335.86" x2="532.43" y2="335.86"/><line class="cls-2" x1="505.29" y1="342.57" x2="523.29" y2="342.57"/><line class="cls-2" x1="505.14" y1="349.29" x2="514.14" y2="349.29"/><line class="cls-2" x1="505" y1="356" x2="505" y2="356"/><line class="cls-4" x1="175" y1="356" x2="378" y2="356"/><polyline class="cls-4" points="505 356 570 309 507 309"/><rect class="cls-2" x="364" y="414" width="29" height="44" rx="14.5"/><line class="cls-2" x1="378" y1="447" x2="378" y2="467"/><line class="cls-2" x1="378" y1="463" x2="384" y2="457"/><rect class="cls-2" x="393" y="414" width="29" height="44" rx="14.5"/><line class="cls-2" x1="407" y1="447" x2="407" y2="467"/><line class="cls-2" x1="407" y1="463" x2="413" y2="457"/><rect class="cls-2" x="463" y="414" width="29" height="44" rx="14.5"/><line class="cls-2" x1="477" y1="447" x2="477" y2="467"/><line class="cls-2" x1="477" y1="463" x2="483" y2="457"/><rect class="cls-2" x="335" y="414" width="29" height="44" rx="14.5"/><line class="cls-2" x1="349" y1="447" x2="349" y2="467"/><line class="cls-2" x1="349" y1="463" x2="355" y2="457"/><rect class="cls-2" x="306" y="414" width="29" height="44" rx="14.5"/><line class="cls-2" x1="320" y1="447" x2="320" y2="467"/><line class="cls-2" x1="320" y1="463" x2="326" y2="457"/><rect class="cls-2" x="277" y="414" width="29" height="44" rx="14.5"/><line class="cls-2" x1="291" y1="447" x2="291" y2="467"/><line class="cls-2" x1="291" y1="463" x2="297" y2="457"/><rect class="cls-2" x="248" y="414" width="29" height="44" rx="14.5"/><line class="cls-2" x1="262" y1="447" x2="262" y2="467"/><line class="cls-2" x1="262" y1="463" x2="268" y2="457"/><rect class="cls-2" x="219" y="414" width="29" height="44" rx="14.5"/><line class="cls-2" x1="233" y1="447" x2="233" y2="467"/><line class="cls-2" x1="233" y1="463" x2="239" y2="457"/><rect class="cls-2" x="190" y="414" width="29" height="44" rx="14.5"/><line class="cls-2" x1="204" y1="447" x2="204" y2="467"/><line class="cls-2" x1="204" y1="463" x2="210" y2="457"/><rect class="cls-2" x="161" y="414" width="29" height="44" rx="14.5"/><line class="cls-2" x1="175" y1="447" x2="175" y2="467"/><line class="cls-2" x1="175" y1="463" x2="181" y2="457"/><line class="cls-2" x1="233" y1="356" x2="233" y2="414"/><line class="cls-2" x1="320" y1="356" x2="320" y2="414"/><line class="cls-2" x1="291" y1="356" x2="291" y2="414"/><line class="cls-2" x1="262" y1="356" x2="262" y2="414"/><line class="cls-2" x1="205" y1="356" x2="205" y2="414"/><line class="cls-2" x1="349" y1="356" x2="349" y2="414"/><polyline class="cls-4" points="515 467 515 365 625 365 625 467"/><rect class="cls-4" x="203" y="275" width="57" height="57"/><rect class="cls-4" x="291" y="275" width="57" height="57"/><line class="cls-2" x1="378" y1="390" x2="175" y2="390"/><path class="cls-2" d="M442,365h0a17.5,17.5,0,0,1,17.5,17.5V442a0,0,0,0,1,0,0h-35a0,0,0,0,1,0,0V382.5A17.5,17.5,0,0,1,442,365Z"/><rect class="cls-2" x="424.5" y="449.69" width="45.5" height="8.65"/><rect class="cls-2" x="424.5" y="441" width="38.5" height="8.65"/><rect class="cls-2" x="424.5" y="458.35" width="52.5" height="8.65"/><rect class="cls-2" x="492" y="414" width="29" height="44" rx="14.5"/><line class="cls-2" x1="506" y1="447" x2="506" y2="467"/><line class="cls-2" x1="506" y1="463" x2="512" y2="457"/><line class="cls-2" x1="425" y1="382" x2="459" y2="382"/><polyline class="cls-4" points="429 370.86 442 382 442 365"/><line class="cls-4" x1="454.83" y1="371" x2="442" y2="382"/><line class="cls-4" x1="231.5" y1="332" x2="231.5" y2="275"/><line class="cls-4" x1="319.5" y1="331" x2="319.5" y2="275"/><circle class="cls-4" cx="569.5" cy="336" r="9"/><circle class="cls-4" cx="442" cy="307" r="34"/><line class="cls-4" x1="569.5" y1="327" x2="569.5" y2="345"/><line class="cls-4" x1="560.5" y1="336" x2="578.5" y2="336"/><rect class="cls-4" x="452" y="406" width="5" height="17"/><line class="cls-4" x1="454.5" y1="410" x2="454.5" y2="419"/><path class="cls-4" d="M442,388h0a8.5,8.5,0,0,1,8.5,8.5v.5a0,0,0,0,1,0,0h-17a0,0,0,0,1,0,0v-.5A8.5,8.5,0,0,1,442,388Z"/><line class="cls-4" x1="442" y1="388" x2="442" y2="397"/><line class="cls-4" x1="521" y1="433.5" x2="625" y2="433.5"/><line class="cls-4" x1="515" y1="398.5" x2="625" y2="398.5"/><line class="cls-4" x1="564" y1="460" x2="576" y2="460"/><line class="cls-2" x1="152" y1="487" x2="258" y2="487"/><polyline class="cls-2" points="198 479 198 487 203 482"/><line class="cls-2" x1="313" y1="540" x2="338" y2="540"/><polyline class="cls-2" points="320 532 320 540 325 535"/><line class="cls-2" x1="682" y1="540" x2="707" y2="540"/><polyline class="cls-2" points="689 532 689 540 694 535"/><rect class="cls-2" x="96.97" y="284" width="69" height="104.69" rx="34.5"/><line class="cls-2" x1="130.28" y1="362.52" x2="130.28" y2="466"/><line class="cls-2" x1="130.28" y1="411.1" x2="144.56" y2="396.83"/><rect class="cls-2" x="661.97" y="196" width="69" height="146.59" rx="34.5"/><line class="cls-2" x1="695.28" y1="295" x2="695.28" y2="466"/><line class="cls-2" x1="695.28" y1="365" x2="709.56" y2="350.72"/><polygon class="cls-4" points="527.18 273.17 527.6 286.18 540 291.23 527.95 295.86 526.78 309 518.78 298.08 505.8 301.92 512.83 290.76 506.05 279.77 518.97 283.27 527.18 273.17"/><path class="cls-4" d="M527.31,289.64a5.39,5.39,0,1,1-10.21-3.44"/><line class="cls-4" x1="625" y1="576" x2="625" y2="467"/><line class="cls-4" x1="515" y1="467" x2="515" y2="576"/><path class="cls-2" d="M515,512H458.85a34.35,34.35,0,0,1-34.35-34.35V467H477v45"/><line class="cls-4" x1="691" y1="135.95" x2="530.27" y2="135.95"/><line class="cls-4" x1="632.87" y1="147" x2="497.24" y2="147"/><path class="cls-4" d="M595.44,123.68a46.68,46.68,0,0,1,93.36,0H548.88a23.28,23.28,0,0,1,46.56,0"/><path class="cls-4" d="M222.61,143.68a24.68,24.68,0,0,1,49.36,0H198a12.31,12.31,0,1,1,24.61,0"/><line class="cls-4" x1="222" y1="149" x2="85" y2="149"/><line class="cls-2" x1="239" y1="199" x2="175" y2="246"/><path class="cls-4" d="M188,174.87h0a5.76,5.76,0,0,0,8.52.47l.48-.47"/><line class="cls-4" x1="413.97" y1="84.7" x2="413.97" y2="163"/><line class="cls-4" x1="374.82" y1="123.85" x2="453.12" y2="123.85"/><line class="cls-4" x1="386.29" y1="151.53" x2="441.66" y2="96.16"/><line class="cls-4" x1="441.66" y1="151.53" x2="386.28" y2="96.16"/><circle class="cls-2" cx="413.97" cy="122.91" r="15.69"/><circle class="cls-4" cx="413.97" cy="122.91" r="23.9"/><path class="cls-2" d="M464.35,295,492,271.7,435,213l3,20.09a58.29,58.29,0,0,1-1.78,25.42h0a96.3,96.3,0,0,1-25.49,41.82L408,303"/><path class="cls-2" d="M444.77,262.06s0,8.07,10.25,8.07,10.25-8.07,10.25-8.07"/><path class="cls-2" d="M465.27,262.06s0-8.06-10.25-8.06c-9.62,0-10.25,8.06-10.25,8.06"/><path class="cls-4" d="M444.77,262.06h22a2,2,0,0,0,2-2h0a2,2,0,0,0-2-2h-.12"/><g class="cls-5"><circle cx="454.99" cy="262.06" r="4.96" transform="translate(-18.85 488.27) rotate(-55.46)"/></g><path class="cls-4" d="M439,262.06h31a2,2,0,0,0,2-2h0a2,2,0,0,0-2-2h-.12"/><path class="cls-6" d="M471,267.7h0a4,4,0,0,0,4,4h17"/><path class="cls-4" d="M424.5,336V319a17.5,17.5,0,0,1,35,0v17"/><line class="cls-2" x1="478" y1="258" x2="478" y2="283"/><circle class="cls-6" cx="472.5" cy="354.5" r="5.5"/><path class="cls-6" d="M472.5,349H443a5.5,5.5,0,0,0-5.5,5.5h0A5.5,5.5,0,0,0,443,360h30"/></g><g id="diecut"><line class="cls-7" x1="36" x2="36" y2="2"/><line class="cls-8" x1="36" y1="10" x2="36" y2="606"/><line class="cls-7" x1="36" y1="610" x2="36" y2="612"/></g><g id="frame"><path d="M755,37V575H72.94V37H755m1-1H71.94V576H756V36Z"/></g></svg>