<svg xmlns="http://www.w3.org/2000/svg" xmlns:xlink="http://www.w3.org/1999/xlink" viewBox="0 0 792 612"><defs><style>.cls-1,.cls-2,.cls-5,.cls-6{fill:none;}.cls-2,.cls-3{stroke:#000;}.cls-2,.cls-3,.cls-5,.cls-6{stroke-linecap:round;stroke-linejoin:round;}.cls-3{fill:#fff;}.cls-4{clip-path:url(#clip-path);}.cls-5,.cls-6{stroke:#dddede;stroke-width:0.5px;}.cls-6{stroke-dasharray:4 8;}</style><clipPath id="clip-path"><path class="cls-1" d="M425.52,137.66s0,14.94,19,14.94c17.83,0,19-14.94,19-14.94Z"/></clipPath></defs><g id="art"><path class="cls-2" d="M477.75,386.06c14.76-38.83,52.42-66.61,96.26-66.61h45c56.61,0,102.92,46.32,102.92,102.92v64.12a59.26,59.26,0,0,1-59.26,59.26h0"/><path class="cls-2" d="M488.74,526.81h0a93.22,93.22,0,0,1-37.09-7.61c-41.23-17.83-62.51-63.85-50.84-107.22l4.49-16.69"/><polyline class="cls-2" points="546.78 511.55 546.78 545.75 488.74 545.75 488.74 511.55"/><path class="cls-2" d="M604.64,511.55v34.2h58v-34.2h0a30.89,30.89,0,0,0,30.9-30.89V459"/><line class="cls-2" x1="546.78" y1="526.81" x2="604.82" y2="526.81"/><line class="cls-2" x1="546.78" y1="545.75" x2="604.82" y2="545.75"/><path class="cls-2" d="M431.07,545.75H294.16a11,11,0,0,1-11-11h0a11,11,0,0,1,9.68-10.93l138.25-16.88v38.83h58"/><path class="cls-2" d="M459.68,188.42h0a35.5,35.5,0,0,1-1.22,9.23L405.3,395.29"/><path class="cls-2" d="M482.48,149a9.09,9.09,0,0,1-9.1,9.09H374.79a30.31,30.31,0,0,0,30.3,30.31h61.75A17.54,17.54,0,0,1,484,209.8L436.73,420.66A71.62,71.62,0,0,0,435,436.31h0a71.63,71.63,0,0,0,24.71,54.12l29,25.15"/><path class="cls-2" d="M399.73,158.11h0a47.52,47.52,0,0,1,47.51-47.51h44.69a31.45,31.45,0,0,1,31.45,31.45h0a389.15,389.15,0,0,1-8,78.43l-31.31,152"/><path class="cls-2" d="M467.33,110.6a14.21,14.21,0,0,1,14.2,14.21"/><path class="cls-2" d="M475.41,149.18a6.93,6.93,0,0,1,13.86,0"/><polygon class="cls-2" points="396.1 158.12 387.17 158.12 391.64 149.18 396.1 158.12"/><path class="cls-3" d="M463.49,137.66s0,14.94-19,14.94-19-14.94-19-14.94"/><path class="cls-3" d="M425.52,137.66s0-14.93,19-14.93c17.83,0,19,14.93,19,14.93"/><path class="cls-2" d="M463.49,137.66H422.8a3.73,3.73,0,0,1-3.74-3.74h0a3.72,3.72,0,0,1,3.72-3.72H423"/><g class="cls-4"><circle cx="425.52" cy="137.66" r="12.71"/></g><path class="cls-2" d="M457.49,137.66H416.8a3.73,3.73,0,0,1-3.74-3.74h0a3.71,3.71,0,0,1,3.72-3.72H417"/><circle class="cls-2" cx="438.19" cy="542.55" r="3.19"/><circle class="cls-2" cx="444.58" cy="542.55" r="3.19"/><circle class="cls-2" cx="496.94" cy="542.55" r="3.19"/><circle class="cls-2" cx="503.33" cy="542.55" r="3.19"/><circle class="cls-2" cx="611.16" cy="542.55" r="3.19"/><circle class="cls-2" cx="617.55" cy="542.55" r="3.19"/><circle class="cls-2" cx="554.19" cy="542.55" r="3.19"/><circle class="cls-2" cx="560.57" cy="542.55" r="3.19"/><path class="cls-2" d="M381.48,512.83a13.17,13.17,0,0,1-26,3.58"/><circle class="cls-2" cx="529.42" cy="406.7" r="19.49"/><circle class="cls-2" cx="581.63" cy="351.79" r="19.49"/><circle class="cls-2" cx="633.84" cy="406.7" r="19.49"/><path class="cls-2" d="M705.69,367.05A19.49,19.49,0,0,1,679,338.86"/><circle class="cls-2" cx="529.42" cy="351.99" r="4.46"/><circle class="cls-2" cx="633.84" cy="351.99" r="4.46"/><circle class="cls-2" cx="581.63" cy="406.7" r="4.46"/><path class="cls-2" d="M414,509.41a4.46,4.46,0,0,1-8.89.8"/><circle class="cls-2" cx="693.57" cy="406.7" r="4.46"/><line class="cls-2" x1="458.46" y1="197.65" x2="482.28" y2="197.65"/><line class="cls-2" x1="444.85" y1="250.64" x2="474.81" y2="250.64"/><line class="cls-2" x1="451.68" y1="224.15" x2="480.64" y2="224.15"/><line class="cls-2" x1="430.2" y1="303.63" x2="462.94" y2="303.63"/><line class="cls-2" x1="415.49" y1="356.62" x2="451.07" y2="356.62"/><line class="cls-2" x1="402.31" y1="409.61" x2="438.69" y2="409.61"/><line class="cls-2" x1="401.57" y1="462.59" x2="440" y2="462.59"/><line class="cls-2" x1="397.39" y1="436.1" x2="434.82" y2="436.1"/><line class="cls-2" x1="409.04" y1="381.36" x2="445.53" y2="381.36"/><line class="cls-2" x1="423.14" y1="330.12" x2="457.01" y2="330.12"/><line class="cls-2" x1="437.34" y1="277.14" x2="468.87" y2="277.14"/><line class="cls-2" x1="444.58" y1="515.58" x2="488.74" y2="515.58"/><line class="cls-2" x1="416.61" y1="491.8" x2="460.77" y2="491.8"/><circle class="cls-2" cx="203.35" cy="421.15" r="69.36"/><circle class="cls-2" cx="203.35" cy="301.31" r="50.67"/><line class="cls-2" x1="203.35" y1="306" x2="203.35" y2="351.99"/><line class="cls-2" x1="203.35" y1="332.3" x2="217.37" y2="318.28"/><line class="cls-2" x1="323.24" y1="462.59" x2="337.26" y2="448.57"/><line class="cls-2" x1="84.99" y1="462.59" x2="99.01" y2="448.57"/><circle class="cls-2" cx="203.35" cy="167.48" r="44.4"/><line class="cls-2" x1="203.35" y1="167.48" x2="203.35" y2="212"/><line class="cls-2" x1="203.35" y1="185.51" x2="194.26" y2="176.42"/><line class="cls-2" x1="203.35" y1="490.57" x2="203.35" y2="545.75"/><line class="cls-2" x1="203.35" y1="508.59" x2="194.26" y2="499.51"/><line class="cls-2" x1="73" y1="545.75" x2="755" y2="545.75"/><line class="cls-2" x1="631.04" y1="94.78" x2="631.04" y2="223.08"/><line class="cls-2" x1="566.9" y1="158.93" x2="695.19" y2="158.93"/><line class="cls-2" x1="585.69" y1="204.29" x2="676.4" y2="113.57"/><line class="cls-2" x1="676.41" y1="204.29" x2="585.68" y2="113.57"/><circle class="cls-3" cx="631.04" cy="157.4" r="25.71"/><circle class="cls-2" cx="631.04" cy="157.4" r="39.15"/><polygon class="cls-2" points="203.35 212 208.67 226.26 224.28 227.21 212.67 236.84 216.29 251.82 203.35 242.73 190.41 251.82 194.02 236.84 182.41 227.21 198.02 226.26 203.35 212"/><path class="cls-2" d="M209.64,230.2a6.3,6.3,0,0,1-12.59,0"/><path class="cls-2" d="M272.7,413.15a50.94,50.94,0,0,1,101.7,4.33"/><path class="cls-2" d="M721.48,413.17A50.69,50.69,0,0,1,756,369.41"/><path class="cls-2" d="M73,367.92a50.68,50.68,0,0,1,61,49.56"/><path class="cls-2" d="M374.4,413.17a50.66,50.66,0,0,1,38.13-44.8"/><line class="cls-2" x1="323.24" y1="421.15" x2="323.24" y2="519.75"/><line class="cls-2" x1="84.99" y1="421.15" x2="84.99" y2="545.75"/><path class="cls-2" d="M465,72.13h0a18.93,18.93,0,0,1,18.93,18.93V110a0,0,0,0,1,0,0H446.07a0,0,0,0,1,0,0V91.07A18.93,18.93,0,0,1,465,72.13Z"/><line class="cls-2" x1="398" y1="110" x2="532" y2="110"/><line class="cls-2" x1="447" y1="101" x2="483" y2="101"/></g><g id="diecut"><line class="cls-5" x1="36" x2="36" y2="2"/><line class="cls-6" x1="36" y1="10" x2="36" y2="606"/><line class="cls-5" x1="36" y1="610" x2="36" y2="612"/></g><g id="frame"><path d="M755,37V575H72.94V37H755m1-1H71.94V576H756V36Z"/></g></svg>