<svg xmlns="http://www.w3.org/2000/svg" xmlns:xlink="http://www.w3.org/1999/xlink" viewBox="0 0 792 612"><defs><style>.cls-1,.cls-3,.cls-7,.cls-8{fill:none;}.cls-2,.cls-6{fill:#fff;}.cls-2,.cls-3{stroke:#000;}.cls-2,.cls-3,.cls-7,.cls-8{stroke-linecap:round;stroke-linejoin:round;}.cls-4{clip-path:url(#clip-path);}.cls-5{clip-path:url(#clip-path-2);}.cls-7,.cls-8{stroke:#dddede;stroke-width:0.5px;}.cls-8{stroke-dasharray:4 8;}</style><clipPath id="clip-path"><path class="cls-1" d="M596.21,181.35s0,14.93,19,14.93c17.83,0,19-14.93,19-14.93Z"/></clipPath><clipPath id="clip-path-2"><path class="cls-1" d="M299.66,246.94s0,26.07-33.13,26.07c-31.12,0-33.14-26.07-33.14-26.07Z"/></clipPath></defs><g id="art"><path class="cls-2" d="M518.12,575.16l99.54-350.9-8.51,1.28c-49.74,7.49-102,3.7-149.55-12.67a264.57,264.57,0,0,1-57.53-28.22h0L633.18,157.1"/><path class="cls-2" d="M743.79,575.16l-87.4-350.23,2.51-.05A34,34,0,0,0,692.25,190h0a34,34,0,0,0-34-33.14h-5.81"/><path class="cls-2" d="M613.31,156.83a25.76,25.76,0,1,1,51.52,0H521.48"/><line class="cls-2" x1="638.41" y1="156.83" x2="638.41" y2="127.07"/><line class="cls-2" x1="438.12" y1="180.73" x2="433.94" y2="202.42"/><path class="cls-2" d="M589,205.87a22.9,22.9,0,0,1-22.9,22.9"/><path class="cls-2" d="M638.41,156.83,625.71,388a38.26,38.26,0,0,0,8.79,26.57h0a38.26,38.26,0,0,0,59.54-.9l.83-1.07a38.29,38.29,0,0,0,7.5-30.48L661,156.83Z"/><path class="cls-3" d="M579.53,208a9.33,9.33,0,1,1,18.65,0"/><rect class="cls-2" x="519.73" y="510.88" width="218.91" height="20.56" rx="5.32"/><circle class="cls-2" cx="558.85" cy="551.74" r="12.68"/><circle class="cls-2" cx="555.04" cy="551.74" r="12.68"/><circle class="cls-2" cx="558.85" cy="535.25" r="3.81"/><path class="cls-2" d="M634.18,181.35s0,14.93-19,14.93-19-14.93-19-14.93"/><path class="cls-2" d="M596.21,181.35s0-14.94,19-14.94c17.83,0,19,14.94,19,14.94"/><path class="cls-3" d="M634.18,181.35H593.49a3.75,3.75,0,0,1-3.74-3.75h0a3.73,3.73,0,0,1,3.72-3.72h.22"/><g class="cls-4"><circle cx="596.21" cy="181.35" r="12.71"/></g><path class="cls-3" d="M628.18,181.35H587.49a3.75,3.75,0,0,1-3.74-3.75h0a3.73,3.73,0,0,1,3.72-3.72h.22"/><polygon class="cls-3" points="402.7 128.63 403.35 148.98 422.74 156.87 403.89 164.11 402.07 184.65 389.56 167.58 369.26 173.58 380.26 156.14 369.65 138.96 389.86 144.43 402.7 128.63"/><path class="cls-3" d="M402.9,154.39a8.42,8.42,0,1,1-16-5.38"/><polyline class="cls-2" points="198.48 223.01 167.45 239.42 199.19 254.4"/><polyline class="cls-2" points="199.19 254.4 168.16 270.81 199.91 285.79"/><path class="cls-2" d="M265.5,91.48h0a34.16,34.16,0,0,1,34.16,34.16v15.49a0,0,0,0,1,0,0H231.35a0,0,0,0,1,0,0V125.64A34.16,34.16,0,0,1,265.5,91.48Z"/><path class="cls-2" d="M199.2,285.53v10.84a4,4,0,0,1-4,4H193a4,4,0,0,0-4,4h0a4,4,0,0,0,4,4h2.65a2.65,2.65,0,0,1,2.64,2.65h0a2.64,2.64,0,0,1-2.64,2.64h-4a2.64,2.64,0,0,0-2.64,2.64V318a2.64,2.64,0,0,0,2.64,2.64h0a4,4,0,0,1,3.68,5.64L85.52,575.16"/><path class="cls-2" d="M411.79,575.16,332.53,329.91a4.72,4.72,0,0,1,4.5-6.18h0a4.41,4.41,0,0,0,4.41-4.41V318a4.4,4.4,0,0,0-4.41-4.4H332.3a1.76,1.76,0,0,1-1.76-1.76h0a1.76,1.76,0,0,1,1.76-1.77H337a4.4,4.4,0,0,0,4.41-4.4h0a4.4,4.4,0,0,0-4.41-4.4h0a6.5,6.5,0,0,1-6.49-6.5V257.45a4.51,4.51,0,0,1,4.51-4.51h0a2.42,2.42,0,0,0,2.42-2.42h0a2.42,2.42,0,0,0-2.42-2.43h0a4.51,4.51,0,0,1-4.51-4.51V220.67A65.67,65.67,0,0,0,264.87,155h0a65.67,65.67,0,0,0-65.67,65.66v2.69"/><path class="cls-2" d="M338.22,259.64a22.24,22.24,0,0,1,22.24,22.24h0a12.78,12.78,0,0,1-12.78,12.78H302.33a12.78,12.78,0,0,1-12.77-12.78h0a22.24,22.24,0,0,1,20.37-22.16"/><path class="cls-2" d="M352,270.63a30.43,30.43,0,0,1-43,0"/><path class="cls-2" d="M233.39,246.94s0,26.07,33.14,26.07,33.13-26.07,33.13-26.07"/><path class="cls-2" d="M299.66,246.94s0-26.07-33.13-26.07c-31.12,0-33.14,26.07-33.14,26.07"/><path class="cls-3" d="M233.39,246.94h71a6.53,6.53,0,0,0,6.53-6.54h0a6.5,6.5,0,0,0-6.49-6.5h-.39"/><g class="cls-5"><circle cx="299.66" cy="246.94" r="22.17"/></g><path class="cls-3" d="M243.86,246.94h71a6.54,6.54,0,0,0,6.54-6.54h0a6.5,6.5,0,0,0-6.5-6.5h-.38"/><rect x="319.93" y="252.54" width="21.2" height="8.44" rx="4.22"/><polyline class="cls-3" points="191.25 335.66 266.53 335.66 176.06 370.06"/><polyline class="cls-3" points="162.19 401.47 266.53 401.47 138.72 454.64"/><polyline class="cls-3" points="100 542.34 266.53 478.29 126.72 481.82"/><rect class="cls-2" x="214.03" y="141.13" width="101.47" height="27.75" rx="13.87"/><line class="cls-2" x1="265.5" y1="91.48" x2="265.5" y2="141.13"/><line class="cls-2" x1="285.07" y1="97.65" x2="285.07" y2="141.13"/><line class="cls-2" x1="245.88" y1="97.65" x2="245.88" y2="141.13"/><circle class="cls-2" cx="265.5" cy="81.14" r="10.35"/><line class="cls-2" x1="330.54" y1="260.98" x2="330.54" y2="268.96"/><line class="cls-2" x1="199.6" y1="270.1" x2="198.88" y2="238.71"/><path class="cls-2" d="M336.76,343.05h0a32.46,32.46,0,0,0-32.06,27.38L272.3,575.16"/><path class="cls-6" d="M214.18,150c8.43,0,8.43,10.08,16.86,10.08S239.47,150,247.9,150s8.44,10.08,16.87,10.08S273.2,150,281.64,150s8.43,10.08,16.87,10.08S306.94,150,315.38,150"/><path class="cls-3" d="M214.18,150c8.43,0,8.43,10.08,16.86,10.08S239.47,150,247.9,150s8.44,10.08,16.87,10.08S273.2,150,281.64,150s8.43,10.08,16.87,10.08S306.94,150,315.38,150"/><polyline class="cls-2" points="670 148 667 158 672 154"/><circle class="cls-2" cx="623.5" cy="145.5" r="6.5"/></g><g id="diecut"><line class="cls-7" x1="36" x2="36" y2="2"/><line class="cls-8" x1="36" y1="10" x2="36" y2="606"/><line class="cls-7" x1="36" y1="610" x2="36" y2="612"/></g><g id="frame"><path d="M755,37V575H72.94V37H755m1-1H71.94V576H756V36Z"/></g></svg>