<svg xmlns="http://www.w3.org/2000/svg" viewBox="0 0 792 612"><defs><style>.cls-1,.cls-3,.cls-5,.cls-6{fill:none;}.cls-1,.cls-2{stroke:#000;}.cls-1,.cls-2,.cls-3,.cls-4,.cls-5,.cls-6{stroke-linecap:round;stroke-linejoin:round;}.cls-2{fill:#fff;}.cls-3,.cls-4{stroke:#fff;}.cls-5,.cls-6{stroke:#dddede;stroke-width:0.5px;}.cls-6{stroke-dasharray:4 8;}</style></defs><g id="art"><path d="M467.49,548.38h5a0,0,0,0,1,0,0v27.5a2.5,2.5,0,0,1-2.5,2.5h0a2.5,2.5,0,0,1-2.5-2.5v-27.5A0,0,0,0,1,467.49,548.38Z" transform="translate(-241.21 383.16) rotate(-35.94)"/><rect class="cls-1" x="199.44" y="222.36" width="85" height="53" transform="translate(-100.01 189.4) rotate(-35.94)"/><path class="cls-1" d="M210.83,179.45h0a42.5,42.5,0,0,1,42.5,42.5v10.5a0,0,0,0,1,0,0h-85a0,0,0,0,1,0,0v-10.5A42.5,42.5,0,0,1,210.83,179.45Z" transform="translate(-80.75 162.97) rotate(-35.94)"/><line class="cls-1" x1="202.95" y1="266.63" x2="270.95" y2="217.32"/><line class="cls-1" x1="212.34" y1="279.58" x2="280.34" y2="230.27"/><line class="cls-1" x1="258.08" y1="271.12" x2="415.4" y2="488.09"/><circle class="cls-2" cx="281.85" cy="303.91" r="16.5" transform="translate(-40.97 563.88) rotate(-86)"/><rect class="cls-1" x="293.95" y="244.7" width="85" height="269" transform="translate(-158.53 269.7) rotate(-35.94)"/><polygon class="cls-1" points="449.81 463.14 380.99 513.04 462.94 553.66 449.81 463.14"/><rect class="cls-1" x="497" y="132" width="69" height="30"/><rect x="489" y="185" width="85" height="29"/><rect x="489" y="459" width="85" height="29"/><rect class="cls-1" x="497" y="511" width="69" height="19"/><polygon class="cls-1" points="555 530 508 530 519 575 544 575 555 530"/><rect class="cls-2" x="517" y="265.5" width="29" height="142" rx="14.5"/><path class="cls-3" d="M488,194.46c7.25,0,7.25,10.08,14.5,10.08s7.25-10.08,14.49-10.08,7.25,10.08,14.5,10.08,7.25-10.08,14.5-10.08,7.25,10.08,14.5,10.08,7.26-10.08,14.51-10.08"/><path class="cls-3" d="M488,468.46c7.25,0,7.25,10.08,14.5,10.08s7.25-10.08,14.49-10.08,7.25,10.08,14.5,10.08,7.25-10.08,14.5-10.08,7.25,10.08,14.5,10.08,7.26-10.08,14.51-10.08"/><rect class="cls-1" x="489" y="162" width="85" height="349"/><path class="cls-1" d="M623.23,210.57h22.88a0,0,0,0,1,0,0V574.18a11.44,11.44,0,0,1-11.44,11.44h0a11.44,11.44,0,0,1-11.44-11.44V210.57A0,0,0,0,1,623.23,210.57Z" transform="translate(174.43 -193.06) rotate(20)"/><rect class="cls-1" x="687.3" y="199.68" width="30.84" height="22.88" transform="translate(114.59 -227.61) rotate(20)"/><path class="cls-1" d="M701.34,119.33h38.87a3.09,3.09,0,0,1,3.09,3.09v65.21A15.26,15.26,0,0,1,728,202.89H713.8a15.26,15.26,0,0,1-15.26-15.26v-65.5a2.8,2.8,0,0,1,2.8-2.8Z" transform="translate(98.58 -236.85) rotate(20)"/><line class="cls-1" x1="706.16" y1="200.2" x2="734.74" y2="121.68"/><line class="cls-1" x1="717.38" y1="204.29" x2="745.96" y2="125.76"/><line class="cls-1" x1="695.88" y1="196.46" x2="724.46" y2="117.93"/><rect class="cls-2" x="681.51" y="221.54" width="30.84" height="10.94" transform="translate(119.67 -224.67) rotate(20)"/><path class="cls-2" d="M718.34,134.76l-1.87,5.14a5.48,5.48,0,0,1-7,3.27h0a5.47,5.47,0,0,1-3.27-7l1.87-5.14"/><path class="cls-2" d="M719.43,163.74l-1.87,5.15a5.47,5.47,0,0,1-7,3.27h0a5.48,5.48,0,0,1-3.27-7l1.87-5.14"/><path class="cls-2" d="M738.21,179.05l-1.87,5.14a5.47,5.47,0,0,1-7,3.27h0a5.46,5.46,0,0,1-3.27-7l1.87-5.14"/><path class="cls-2" d="M720.45,160.94l2-5.61a6,6,0,0,1,7.65-3.57h0a6,6,0,0,1,3.56,7.65l-2,5.61"/><path class="cls-1" d="M170,64.5h5a0,0,0,0,1,0,0V126a2.5,2.5,0,0,1-2.5,2.5h0A2.5,2.5,0,0,1,170,126V64.5A0,0,0,0,1,170,64.5Z" transform="translate(269 -76) rotate(90)"/><path class="cls-1" d="M214.78,129a5.78,5.78,0,0,1-5.78-5.78V69.78A5.78,5.78,0,0,1,214.78,64H430v65Z"/><path class="cls-2" d="M430,111H317a14.5,14.5,0,0,1-14.5-14.5h0A14.5,14.5,0,0,1,317,82H430"/><rect class="cls-2" x="158" y="83" width="5" height="28" rx="2.5"/><rect class="cls-2" x="165.67" y="80.83" width="5" height="32.33" rx="2.5"/><rect class="cls-2" x="173.33" y="78.67" width="5" height="36.67" rx="2.5"/><rect class="cls-2" x="181" y="76.5" width="5" height="41" rx="2.5"/><rect class="cls-2" x="188.67" y="74.33" width="5" height="45.33" rx="2.5"/><rect class="cls-2" x="196.33" y="72.17" width="5" height="49.67" rx="2.5"/><rect class="cls-2" x="204" y="70" width="5" height="54" rx="2.5"/><path class="cls-1" d="M619,132a7,7,0,0,0,7-7V68a7,7,0,0,0-7-7H430v71Z"/><path class="cls-1" d="M374,56v2a6,6,0,0,1-6,6h0a6,6,0,0,1-6-6V54H587v7"/><line class="cls-2" x1="302.5" y1="96.5" x2="430" y2="96"/><circle cx="144.5" cy="96.5" r="2.5"/><path class="cls-4" d="M181.2,462.55h29a0,0,0,0,1,0,0v105.8a7.2,7.2,0,0,1-7.2,7.2H188.4a7.2,7.2,0,0,1-7.2-7.2V462.55A0,0,0,0,1,181.2,462.55Z" transform="translate(-101.94 50.95) rotate(-11.79)"/><rect class="cls-2" x="117.34" y="228.25" width="85" height="238" transform="translate(-67.59 39.99) rotate(-11.79)"/><path class="cls-1" d="M121,90.26h0a42.5,42.5,0,0,1,42.5,42.5v99.5a0,0,0,0,1,0,0h-85a0,0,0,0,1,0,0v-99.5A42.5,42.5,0,0,1,121,90.26Z" transform="translate(-30.4 28.13) rotate(-11.79)"/><rect class="cls-2" x="118.16" y="146.06" width="29" height="142" rx="14.5" transform="translate(-41.56 31.69) rotate(-11.79)"/><path class="cls-2" d="M171.46,468.73h45a0,0,0,0,1,0,0V539.6a13.12,13.12,0,0,1-13.12,13.12H184.59a13.12,13.12,0,0,1-13.12-13.12V468.73a0,0,0,0,1,0,0Z" transform="translate(-100.28 50.42) rotate(-11.79)"/><path class="cls-2" d="M219.52,527.87l-42.12,8.79a10.66,10.66,0,0,1-12.09-6.53l-22.76-57.71,83.21-17.37,2.23,62A10.66,10.66,0,0,1,219.52,527.87Z"/><line class="cls-2" x1="149.41" y1="297.33" x2="174.14" y2="415.77"/><polygon class="cls-1" points="611.38 321 598.99 341.3 574.75 338.13 589.72 356.36 579.72 378.28 602.27 368.15 619.43 385.95 618.32 361.88 639 350.55 615.32 344.46 611.38 321"/><path class="cls-1" d="M596.33,347.06a9.83,9.83,0,0,0,19.31,3.73"/><circle class="cls-1" cx="295" cy="508" r="67"/><circle class="cls-1" cx="117.5" cy="530.5" r="44.5"/><circle class="cls-1" cx="632.5" cy="191.5" r="57.5"/><circle class="cls-1" cx="684" cy="504" r="71"/><circle class="cls-1" cx="395.78" cy="229.22" r="93.22"/><line class="cls-2" x1="531.5" y1="279" x2="531.5" y2="394"/></g><g id="diecut"><line class="cls-5" x1="36" x2="36" y2="2"/><line class="cls-6" x1="36" y1="10" x2="36" y2="606"/><line class="cls-5" x1="36" y1="610" x2="36" y2="612"/></g><g id="frame"><path d="M755,37V575H72.94V37H755m1-1H71.94V576H756V36Z"/></g></svg>