<svg xmlns="http://www.w3.org/2000/svg" xmlns:xlink="http://www.w3.org/1999/xlink" viewBox="0 0 792 612"><defs><style>.cls-1,.cls-4,.cls-7,.cls-8{fill:none;}.cls-2{fill:#fff;}.cls-2,.cls-4{stroke:#000;}.cls-2,.cls-4,.cls-7,.cls-8{stroke-linecap:round;stroke-linejoin:round;}.cls-3{clip-path:url(#clip-path);}.cls-5{clip-path:url(#clip-path-2);}.cls-6{clip-path:url(#clip-path-3);}.cls-7,.cls-8{stroke:#dddede;stroke-width:0.5px;}.cls-8{stroke-dasharray:4 8;}</style><clipPath id="clip-path"><rect class="cls-1" x="143.97" y="-36.03" width="540" height="684.06" transform="translate(719.97 -107.97) rotate(90)"/></clipPath><clipPath id="clip-path-2"><path class="cls-1" d="M344.52,126.13s0,24.13,30.68,24.13c28.8,0,30.67-24.13,30.67-24.13Z"/></clipPath><clipPath id="clip-path-3"><circle class="cls-1" cx="696.5" cy="144.5" r="30.5"/></clipPath></defs><g id="art"><circle class="cls-2" cx="305.5" cy="336.5" r="3.5"/><g class="cls-3"><circle class="cls-2" cx="51" cy="600" r="189"/><circle class="cls-4" cx="51" cy="600" r="179"/><circle class="cls-4" cx="51" cy="600" r="130"/><circle class="cls-4" cx="51" cy="600" r="116"/><circle class="cls-4" cx="568.88" cy="585.09" r="58.12"/><line class="cls-4" x1="435.68" y1="548.88" x2="498.75" y2="470.86"/><line class="cls-4" x1="443.72" y1="555.4" x2="506.79" y2="477.38"/><line class="cls-4" x1="451.76" y1="561.92" x2="514.83" y2="483.91"/><line class="cls-4" x1="459.8" y1="568.45" x2="522.87" y2="490.43"/><line class="cls-4" x1="467.84" y1="574.97" x2="530.92" y2="496.95"/><line class="cls-4" x1="475.89" y1="581.49" x2="538.96" y2="503.48"/><line class="cls-4" x1="483.93" y1="588.02" x2="547" y2="510"/><circle class="cls-4" cx="568.88" cy="585.09" r="39.75"/><path class="cls-4" d="M389.22,470H494.87a0,0,0,0,1,0,0V518.8a0,0,0,0,1,0,0H378a0,0,0,0,1,0,0V481.3A11.26,11.26,0,0,1,389.22,470Z" transform="translate(-222.49 521.9) rotate(-50.95)"/><polyline class="cls-2" points="632 396 709 591 619.62 591 529.62 363"/></g><line class="cls-2" x1="198" y1="420" x2="383.92" y2="575.1"/><line class="cls-2" x1="275" y1="457" x2="416.92" y2="575.1"/><path class="cls-2" d="M489,457H278.5A56.51,56.51,0,0,1,222,400.5h0A56.51,56.51,0,0,1,278.5,344H489a56.5,56.5,0,0,1,56.5,56h0A56.51,56.51,0,0,1,489,457Z"/><polyline class="cls-2" points="73.44 575.1 153 411 197 411 116.44 575.1"/><path class="cls-2" d="M405.87,126.13s0,24.13-30.67,24.13-30.68-24.13-30.68-24.13"/><path class="cls-2" d="M344.52,126.13s0-24.13,30.68-24.13c28.8,0,30.67,24.13,30.67,24.13"/><path class="cls-4" d="M334.08,120.08a6.05,6.05,0,0,0,6.05,6h65.74"/><g class="cls-5"><circle cx="344.52" cy="126.13" r="20.52"/></g><line class="cls-4" x1="612" y1="109.5" x2="574" y2="109.5"/><line class="cls-4" x1="574" y1="222" x2="627" y2="169"/><path class="cls-4" d="M518,61.42a107.17,107.17,0,0,0-47.64-11.17H400A86.89,86.89,0,0,0,338.55,75.7l-59.36,59.36a11.1,11.1,0,0,0,.72,16.35h0A11.12,11.12,0,0,0,287,154h46.71a17.5,17.5,0,0,1,12.38,5.13l29,29A115.72,115.72,0,0,0,456.94,222"/><line class="cls-4" x1="574" y1="109.5" x2="549" y2="83"/><circle class="cls-4" cx="373" cy="119" r="44"/><polygon class="cls-2" points="319 85 339 85 334 91 319 91 319 85"/><path class="cls-2" d="M340.68,66a113.14,113.14,0,0,1,18.86-29.31H525.46A113.14,113.14,0,0,1,544.32,66"/><rect class="cls-2" x="333" y="66" width="223" height="5" rx="2.5"/><polyline class="cls-4" points="411 71 466 143 534 71"/><rect class="cls-4" x="451" y="147" width="32" height="12"/><rect class="cls-2" x="451" y="159" width="32" height="63"/><rect class="cls-2" x="454" y="128" width="26" height="19"/><path class="cls-4" d="M396,170a13,13,0,0,1-13,13"/><polyline class="cls-2" points="406 84 549 83 574 109.5 420 109"/><circle class="cls-4" cx="373" cy="119" r="48"/><path class="cls-4" d="M546.5,71A6.5,6.5,0,0,1,550,83"/><path class="cls-4" d="M574,109.5c0,11.32-15.89,20.5-35.5,20.5S503,120.82,503,109.5"/><path class="cls-4" d="M354.22,43.07a8,8,0,1,1-7.6,12.73"/><path class="cls-2" d="M675.31,221.69l-37-37a62.49,62.49,0,0,1,88.38-88.38l28.5,28.5"/><polyline class="cls-2" points="694 222 330 222 330 312 755.19 312"/><line class="cls-2" x1="705" y1="82" x2="755" y2="89"/><line class="cls-2" x1="686" y1="212" x2="675" y2="222"/><polyline class="cls-4" points="500 222 634 88 648 88"/><line class="cls-2" x1="634" y1="88" x2="605" y2="109"/><line class="cls-2" x1="584" y1="57" x2="740" y2="57"/><line class="cls-2" x1="593" y1="61" x2="749" y2="61"/><line class="cls-2" x1="150" y1="183" x2="279" y2="183"/><line class="cls-2" x1="109" y1="178" x2="177" y2="178"/><line class="cls-2" x1="159" y1="187" x2="288" y2="187"/><line class="cls-2" x1="129" y1="67" x2="231" y2="67"/><line class="cls-2" x1="145" y1="71" x2="240" y2="71"/><circle class="cls-2" cx="696.5" cy="144.5" r="30.5"/><g class="cls-6"><rect class="cls-4" x="664.5" y="112.5" width="64" height="64"/><line class="cls-4" x1="664.5" y1="165.83" x2="728.5" y2="165.83"/><line class="cls-4" x1="664.5" y1="155.17" x2="728.5" y2="155.17"/><line class="cls-4" x1="664.5" y1="144.5" x2="728.5" y2="144.5"/><line class="cls-4" x1="664.5" y1="133.83" x2="728.5" y2="133.83"/><line class="cls-4" x1="664.5" y1="123.17" x2="728.5" y2="123.17"/><line class="cls-4" x1="717.83" y1="112.5" x2="717.83" y2="176.5"/><line class="cls-4" x1="707.17" y1="112.5" x2="707.17" y2="176.5"/><line class="cls-4" x1="696.5" y1="112.5" x2="696.5" y2="176.5"/><line class="cls-4" x1="685.83" y1="112.5" x2="685.83" y2="176.5"/><line class="cls-4" x1="675.17" y1="112.5" x2="675.17" y2="176.5"/></g><polyline class="cls-2" points="243.95 307.47 223 337.64 199 331 228.46 290.45"/><path class="cls-4" d="M269,245a24,24,0,0,1,0,48"/><path class="cls-4" d="M269,314.5a45.5,45.5,0,0,1,0-91h60"/><path class="cls-4" d="M269,293h9a10.75,10.75,0,0,1,0,21.5h-9"/><path class="cls-4" d="M269,245a24,24,0,0,0,0,48"/><path class="cls-4" d="M281,290h9a10.75,10.75,0,0,1,0,21.5h-4.55"/><path class="cls-4" d="M285,287h14a10.75,10.75,0,0,1,0,21.5h-1.55"/><line class="cls-4" x1="293" y1="287" x2="330" y2="287"/><path class="cls-4" d="M229,246.5H219a21.31,21.31,0,0,0-15.06,6.24l-10,10a11.66,11.66,0,0,1-16.5,0h0a11.66,11.66,0,0,1,0-16.5l8.62-8.63a48.25,48.25,0,0,1,34.1-14.12h47"/><path class="cls-2" d="M207,263c1-1,18-6,18-6l4-10.5L204,256"/><circle class="cls-2" cx="197" cy="263" r="10"/><circle class="cls-2" cx="269" cy="269" r="10"/><rect class="cls-2" x="173" y="331" width="72" height="12"/><rect class="cls-2" x="193.52" y="313.76" width="47.71" height="17.24"/><path class="cls-2" d="M118,297a42,42,0,0,1,0,84"/><path class="cls-2" d="M100,290h10.62a7.38,7.38,0,0,1,7.38,7.38v82.23a7.38,7.38,0,0,1-7.38,7.38H100a0,0,0,0,1,0,0V290A0,0,0,0,1,100,290Z"/><line class="cls-2" x1="380" y1="222" x2="380" y2="312"/><line class="cls-2" x1="157" y1="356" x2="244" y2="356"/><path class="cls-2" d="M152.13,508H101.21a2.64,2.64,0,0,1-2.37-3.79L177,343h59L156.26,505.42A4.59,4.59,0,0,1,152.13,508Z"/><line class="cls-2" x1="160" y1="338" x2="173" y2="338"/><line class="cls-2" x1="105.73" y1="490" x2="163.84" y2="490"/><line class="cls-4" x1="545" y1="410" x2="755" y2="410"/><line class="cls-4" x1="653" y1="369.99" x2="655.37" y2="410"/><line class="cls-4" x1="669.11" y1="369.99" x2="671.47" y2="410"/><line class="cls-4" x1="685.21" y1="369.99" x2="687.58" y2="410"/><line class="cls-4" x1="701.32" y1="369.99" x2="703.68" y2="410"/><line class="cls-4" x1="717.42" y1="369.99" x2="719.79" y2="410"/><line class="cls-4" x1="733.53" y1="369.99" x2="735.89" y2="410"/><line class="cls-4" x1="749.63" y1="369.99" x2="752" y2="410"/><polyline class="cls-4" points="755 273 380 273 380 249 755 249"/><line class="cls-4" x1="380" y1="261" x2="755" y2="261"/><rect class="cls-2" x="285" y="337" width="42" height="7"/><path class="cls-2" d="M333,385H489a15,15,0,0,1,15,15v0a15,15,0,0,1-15,15H333a0,0,0,0,1,0,0V385a0,0,0,0,1,0,0Z"/><rect class="cls-2" x="307" y="385" width="68" height="30"/><rect class="cls-4" x="359" y="385" width="68" height="30"/><circle class="cls-2" cx="285" cy="400.5" r="27"/><line class="cls-2" x1="312" y1="400" x2="504" y2="400"/><polyline class="cls-4" points="252 392 294 392 272 409 501 409"/><line class="cls-4" x1="312" y1="392" x2="501" y2="392"/><line class="cls-2" x1="291" y1="337" x2="291" y2="344"/><line class="cls-2" x1="305" y1="337" x2="305" y2="344"/><line class="cls-2" x1="321" y1="337" x2="321" y2="344"/><path class="cls-2" d="M633,346l67.08,169.88A18.37,18.37,0,0,1,683,541H590.5a18.37,18.37,0,0,1-17.09-11.63L488,313"/><polyline class="cls-2" points="648 352 642 369 755 369"/><line class="cls-2" x1="702" y1="522" x2="755" y2="522"/><path class="cls-2" d="M755,473H722.5A12.5,12.5,0,0,1,710,460.5h0A12.5,12.5,0,0,1,722.5,448H755"/><line class="cls-2" x1="722.95" y1="460.5" x2="755.19" y2="460.5"/><line class="cls-2" x1="708" y1="173" x2="755" y2="221"/><line class="cls-2" x1="718.22" y1="166.17" x2="755" y2="203"/><line class="cls-2" x1="725" y1="156" x2="755" y2="186"/><rect class="cls-4" x="606.99" y="551" width="43" height="14" rx="7"/><rect class="cls-4" x="636" y="551" width="43" height="14" rx="7"/><line class="cls-4" x1="630" y1="570" x2="658" y2="570"/><path class="cls-4" d="M669.5,540.5l2-2a34.75,34.75,0,0,0,7.49-38L609.17,333.37a2.64,2.64,0,0,1,4.31-2.89h0a2.65,2.65,0,0,0,4.52-1.87v-5a2.64,2.64,0,0,1,2.65-2.65H755"/><path class="cls-4" d="M413,91C424.92,91,424.92,101,436.83,101S448.75,91,460.66,91,472.58,101,484.5,101,496.41,91,508.33,91,520.25,101,532.16,101,544.08,91,556,91"/><line class="cls-4" x1="396" y1="537" x2="462" y2="457"/><line class="cls-4" x1="521" y1="447" x2="540" y2="447"/><line class="cls-2" x1="105.5" y1="290" x2="105.5" y2="387"/><polygon class="cls-4" points="354.94 275.45 359.02 286.38 371 287.12 362.09 294.51 364.87 306 354.94 299.02 345.01 306 347.79 294.51 338.88 287.12 350.85 286.38 354.94 275.45"/><path class="cls-4" d="M359.77,289.41a4.83,4.83,0,0,1-9.66,0"/><line class="cls-2" x1="483" y1="476.31" x2="540.85" y2="534.16"/><line class="cls-2" x1="434.45" y1="536.08" x2="481.02" y2="575.1"/><line class="cls-2" x1="284.01" y1="457" x2="425.54" y2="575.1"/></g><g id="diecut"><line class="cls-7" x1="36" x2="36" y2="2"/><line class="cls-8" x1="36" y1="10" x2="36" y2="606"/><line class="cls-7" x1="36" y1="610" x2="36" y2="612"/></g><g id="frame"><path d="M755,37V575H72.94V37H755m1-1H71.94V576H756V36Z"/></g></svg>