<svg xmlns="http://www.w3.org/2000/svg" xmlns:xlink="http://www.w3.org/1999/xlink" viewBox="0 0 792 612"><defs><style>.cls-1,.cls-2,.cls-6,.cls-7{fill:none;}.cls-2,.cls-3{stroke:#000;}.cls-2,.cls-3,.cls-6,.cls-7{stroke-linecap:round;stroke-linejoin:round;}.cls-3,.cls-5{fill:#fff;}.cls-4{clip-path:url(#clip-path);}.cls-6,.cls-7{stroke:#dddede;stroke-width:0.5px;}.cls-7{stroke-dasharray:4 8;}</style><clipPath id="clip-path"><path class="cls-1" d="M460,286.32s0,45.46,57.78,45.46c54.26,0,57.78-45.46,57.78-45.46Z"/></clipPath></defs><g id="art"><polyline class="cls-2" points="218.7 575 218.7 450.58 351.47 450.58 351.47 575"/><polyline class="cls-3" points="169.16 575 169.16 450.58 301.93 450.58 301.93 575"/><rect class="cls-2" x="185.95" y="336.58" width="98.62" height="114"/><rect class="cls-3" x="149.16" y="336.58" width="98.62" height="114"/><path class="cls-2" d="M124.24,271.88H301.93a0,0,0,0,1,0,0v0a64.69,64.69,0,0,1-64.69,64.69h-113a0,0,0,0,1,0,0V271.88A0,0,0,0,1,124.24,271.88Z"/><path class="cls-2" d="M293.68,271.85a64.7,64.7,0,0,1-64.35,58H117.63V309.46h6.61"/><rect class="cls-2" x="149.16" y="206.41" width="9.43" height="65.44"/><rect class="cls-2" x="173.24" y="228.34" width="82.24" height="9.18"/><polyline class="cls-2" points="184.02 271.32 184.02 237.64 244.7 237.64 244.7 271.32"/><line class="cls-3" x1="124.24" y1="289.64" x2="288.86" y2="289.64"/><rect class="cls-2" x="208.11" y="247.93" width="12.5" height="12.5" rx="6.25"/><circle class="cls-2" cx="157.27" cy="170.05" r="36.33"/><circle class="cls-2" cx="255.48" cy="192.01" r="36.33"/><rect class="cls-2" x="128.33" y="122.54" width="182.2" height="23.12" rx="11.56" transform="translate(34.62 -44.72) rotate(12.63)"/><path class="cls-2" d="M232.78,125l-52-11.64,16.76-16a8.54,8.54,0,0,1,7.76-2.16l24,5.37a6.67,6.67,0,0,1,5.18,7.17Z"/><polyline class="cls-2" points="213.08 96.89 200.98 151.67 219.15 155.68 221.28 146.36"/><circle class="cls-2" cx="157.27" cy="170.05" r="10.15"/><circle class="cls-2" cx="255.48" cy="192.01" r="10.15"/><line class="cls-2" x1="130.53" y1="114.18" x2="177.89" y2="124.79"/><line class="cls-2" x1="180.8" y1="113.35" x2="175.05" y2="136"/><line class="cls-2" x1="141.2" y1="116.57" x2="144.34" y2="105.43"/><path class="cls-2" d="M137,562.23a12.77,12.77,0,1,1-25.53,0"/><line class="cls-2" x1="124.24" y1="575" x2="124.24" y2="540.88"/><line class="cls-2" x1="119.4" y1="549.47" x2="129.08" y2="549.47"/><circle class="cls-2" cx="124.24" cy="534.06" r="6.61"/><line class="cls-2" x1="124.24" y1="336.58" x2="124.24" y2="527.45"/><polygon class="cls-2" points="288.86 231.18 294.18 245.44 309.8 246.4 298.18 256.03 301.8 271.01 288.86 261.91 275.92 271.01 279.54 256.03 267.92 246.4 283.54 245.44 288.86 231.18"/><path class="cls-2" d="M295.15,249.38a6.29,6.29,0,1,1-12.58,0"/><path class="cls-2" d="M421.4,343.83a14.86,14.86,0,0,1-14.86,14.86"/><path class="cls-3" d="M575.56,286.32s0,45.46-57.78,45.46S460,286.32,460,286.32"/><path class="cls-3" d="M460,286.32s0-45.46,57.78-45.46c54.26,0,57.78,45.46,57.78,45.46"/><path class="cls-2" d="M440.33,274.92a11.39,11.39,0,0,0,11.39,11.4H575.56"/><g class="cls-4"><circle cx="460" cy="286.32" r="38.67"/></g><path class="cls-5" d="M555.87,232a111,111,0,0,0-74.49,0c-7.23,2.55-15.73.16-19.3-6.47h0c-3.58-6.6.77-15.84,10.16-19.18a138.19,138.19,0,0,1,92.77,0c9.39,3.34,13.74,12.58,10.17,19.18h0C571.6,232.11,563.11,234.5,555.87,232Z"/><path class="cls-2" d="M555.87,232a111,111,0,0,0-74.49,0c-7.23,2.55-15.73.16-19.3-6.47h0c-3.58-6.6.77-15.84,10.16-19.18a138.19,138.19,0,0,1,92.77,0c9.39,3.34,13.74,12.58,10.17,19.18h0C571.6,232.11,563.11,234.5,555.87,232Z"/><path class="cls-2" d="M458.26,174.52a180.65,180.65,0,0,0-92.71,149.1,8.46,8.46,0,0,0,8.44,8.86H404.2A180.66,180.66,0,0,0,584.86,513.14H615"/><path class="cls-2" d="M500.7,157.55a179.22,179.22,0,0,0-42.44,17"/><path class="cls-2" d="M594.87,155.68a67.54,67.54,0,0,1-95.54,0l-3.76.37a24.91,24.91,0,1,1-2.35-49.71"/><path class="cls-2" d="M621.51,73.69a94.52,94.52,0,0,1,133.67,0"/><path class="cls-2" d="M493.22,106.34c41.24-41.24,96.37-65.07,128.4-33"/><path class="cls-2" d="M755,330.2a103.43,103.43,0,0,0-104.62,74.61L594.87,575"/><path class="cls-2" d="M645.75,206.13a35.67,35.67,0,1,1-50.44-50.45"/><path class="cls-2" d="M713.54,223a35.67,35.67,0,1,1-71.34,0V210.37"/><path class="cls-2" d="M332.38,372.24l-24,21.56a2.8,2.8,0,0,0-.87,1.3,8.82,8.82,0,0,0,13.89,9.44c9.88-7.71,20.75-14.05,31.6-20.31l15.92-9.17a22,22,0,0,1,6.5-2.58,23.58,23.58,0,1,1,9.94,46.09l-26.54,5.91c-8.88,2-17.92,3.07-26.91,4.44A8.82,8.82,0,0,0,330,445.83l52.32,10.6a217.2,217.2,0,0,0,23.93,3.47h0A58.7,58.7,0,0,1,448.6,484l67.9,91"/><path class="cls-2" d="M332.38,372.24l12.44-11.15a75,75,0,0,1,50.23-19.18h9.32"/><circle class="cls-2" cx="331.87" cy="437.57" r="5.21"/><path class="cls-2" d="M307.74,394.54a5.21,5.21,0,0,0,9.12-5,5.27,5.27,0,0,0-1.56-2"/><rect class="cls-2" x="314.46" y="408.69" width="18.15" height="18.15" transform="translate(149.66 -81.2) rotate(18.54)"/><path class="cls-2" d="M377.47,420.06a30.43,30.43,0,0,1-2.08-47.59"/><path class="cls-2" d="M676.86,288.23h17.66a21,21,0,0,1,21,21h0"/><path class="cls-2" d="M678.31,288.23H696a21,21,0,0,0,20.95-21h0"/><path d="M395.07,323.23a3,3,0,1,0,5.94,0"/><polyline class="cls-2" points="404.2 332.48 404.2 323.23 395.06 323.23"/><path class="cls-2" d="M709,240.88A47.37,47.37,0,0,1,755,289c-.44,26-22.16,46.55-48.14,46.55h-30"/></g><g id="diecut"><line class="cls-6" x1="36" x2="36" y2="2"/><line class="cls-7" x1="36" y1="10" x2="36" y2="606"/><line class="cls-6" x1="36" y1="610" x2="36" y2="612"/></g><g id="frame"><path d="M755,37V575H72.94V37H755m1-1H71.94V576H756V36Z"/></g></svg>