<svg xmlns="http://www.w3.org/2000/svg" xmlns:xlink="http://www.w3.org/1999/xlink" viewBox="0 0 792 612"><defs><style>.cls-1,.cls-10,.cls-11,.cls-4{fill:none;}.cls-2{clip-path:url(#clip-path);}.cls-3{fill:#fff;}.cls-3,.cls-4{stroke:#000;}.cls-10,.cls-11,.cls-3,.cls-4{stroke-linecap:round;stroke-linejoin:round;}.cls-5{clip-path:url(#clip-path-2);}.cls-6{clip-path:url(#clip-path-3);}.cls-7{clip-path:url(#clip-path-4);}.cls-8{clip-path:url(#clip-path-5);}.cls-9{clip-path:url(#clip-path-6);}.cls-10,.cls-11{stroke:#dddede;stroke-width:0.5px;}.cls-11{stroke-dasharray:4 8;}</style><clipPath id="clip-path"><rect class="cls-1" x="143.97" y="-666.03" width="540" height="684.06" transform="translate(89.97 -737.97) rotate(90)"/></clipPath><clipPath id="clip-path-2"><path class="cls-1" d="M310.82,381.91s0,18.91-24,18.91c-22.57,0-24-18.91-24-18.91Z"/></clipPath><clipPath id="clip-path-3"><path class="cls-1" d="M354.21,367.91s0,21.59,27.45,21.59c25.77,0,27.44-21.59,27.44-21.59Z"/></clipPath><clipPath id="clip-path-4"><path class="cls-1" d="M473.73,367.91s0,21.59-27.44,21.59c-25.77,0-27.45-21.59-27.45-21.59Z"/></clipPath><clipPath id="clip-path-5"><path class="cls-1" d="M521.56,381.91s0,18.91,24,18.91c22.57,0,24-18.91,24-18.91Z"/></clipPath><clipPath id="clip-path-6"><path class="cls-1" d="M626.23,381.91s0,18.91-24,18.91c-22.57,0-24-18.91-24-18.91Z"/></clipPath></defs><g id="art"><g class="cls-2"><circle class="cls-3" cx="51" cy="-30" r="189"/><circle class="cls-4" cx="51" cy="-30" r="179"/><circle class="cls-4" cx="51" cy="-30" r="130"/><circle class="cls-4" cx="51" cy="-30" r="116"/><circle class="cls-4" cx="568.88" cy="-44.91" r="58.12"/></g><polygon class="cls-3" points="238 449 252 502 263 502 250 451 238 449"/><path class="cls-3" d="M285,475l-6-25,13-5,5.38,30a8.33,8.33,0,0,1-7.52,9.78L238,489l-1.39-13.25L287,472"/><polygon class="cls-4" points="521.57 507 504.66 505.22 543.69 447.8 560.6 449.58 521.57 507"/><polygon class="cls-4" points="619.66 507 636.57 505.22 608.96 447.8 592.05 449.58 619.66 507"/><circle class="cls-3" cx="264" cy="374" r="85"/><path class="cls-3" d="M631.35,311.34c-17.2-6.53-36.94-2.94-54.32,8-16-22.31-38.76-35.29-60.74-31.81-33.66,5.32-52.71,47.15-42.56,93.43s45.67,79.48,79.32,74.16a43.21,43.21,0,0,0,7.49-1.88,49.13,49.13,0,0,0,5.05,2.28c31.8,12.07,72.3-10.42,90.46-50.24S663.15,323.42,631.35,311.34Z"/><line class="cls-4" x1="137.47" y1="525" x2="690.47" y2="525"/><polygon class="cls-4" points="308.4 236 307.65 259.77 285 268.99 307.01 277.44 309.14 301.44 323.76 281.5 347.47 288.51 334.62 268.13 347.01 248.07 323.41 254.45 308.4 236"/><path class="cls-4" d="M308.18,266.09a9.84,9.84,0,1,0,18.64-6.29"/><path class="cls-3" d="M212,394.82a19.36,19.36,0,0,1-5.85-12.91"/><path class="cls-3" d="M254.22,381.91s0,18.91-24,18.91A33.75,33.75,0,0,1,220,399.4"/><path class="cls-3" d="M206.15,381.91s0-18.91,24-18.91"/><path class="cls-4" d="M198,377.17a4.74,4.74,0,0,0,4.74,4.74l5.18,1a108.72,108.72,0,0,0,42.19-.17l4.14-.83"/><path class="cls-3" d="M262.75,381.91s0,18.91,24,18.91,24-18.91,24-18.91"/><path class="cls-3" d="M310.82,381.91s0-18.91-24-18.91c-22.57,0-24,18.91-24,18.91"/><path class="cls-4" d="M319,377.17a4.74,4.74,0,0,1-4.74,4.74H262.75"/><g class="cls-5"><circle cx="286.3" cy="381.91" r="11.7"/></g><path class="cls-3" d="M497.66,493l15,7,19-4-7.19,16a2.78,2.78,0,0,0,2.61,3.92l22.66-.55A19.75,19.75,0,0,1,568.66,528h-79L488,516.39a2.1,2.1,0,0,1,2.08-2.39h0a2.09,2.09,0,0,0,2-1.52Z"/><rect class="cls-4" x="377.73" y="448.5" width="17" height="68" transform="translate(52.69 -37.81) rotate(6.01)"/><rect class="cls-4" x="433.21" y="448.5" width="17" height="68" transform="translate(931.56 916.06) rotate(173.99)"/><path class="cls-3" d="M474.52,282.57a97.34,97.34,0,0,1,37,77.6c-.62,52.6-43.51,95.59-96.11,96.32a97.5,97.5,0,0,1-61.45-174.3,51.7,51.7,0,0,0,19.56-40.77V202.8c0-22.71,18.59-41.73,41.29-41.29A40.5,40.5,0,0,1,454.47,202v39.42A52.56,52.56,0,0,0,474.52,282.57Z"/><path class="cls-3" d="M409.1,367.91s0,21.59-27.44,21.59-27.45-21.59-27.45-21.59"/><path class="cls-3" d="M354.21,367.91s0-21.59,27.45-21.59c25.77,0,27.44,21.59,27.44,21.59"/><path class="cls-4" d="M344.87,362.49a5.42,5.42,0,0,0,5.41,5.42H409.1"/><g class="cls-6"><circle cx="382.21" cy="367.91" r="13.37"/></g><path class="cls-3" d="M418.84,367.91s0,21.59,27.45,21.59,27.44-21.59,27.44-21.59"/><path class="cls-3" d="M473.73,367.91s0-21.59-27.44-21.59c-25.77,0-27.45,21.59-27.45,21.59"/><path class="cls-4" d="M483.08,362.49a5.42,5.42,0,0,1-5.41,5.42H418.84"/><g class="cls-7"><circle cx="445.73" cy="367.91" r="13.37"/></g><path class="cls-3" d="M569.63,381.91s0,18.91-24,18.91-24-18.91-24-18.91"/><path class="cls-3" d="M521.56,381.91s0-18.91,24-18.91c22.57,0,24,18.91,24,18.91"/><path class="cls-4" d="M513.38,377.17a4.74,4.74,0,0,0,4.74,4.74h51.51"/><g class="cls-8"><circle cx="546.08" cy="381.91" r="11.7"/></g><path class="cls-3" d="M578.16,381.91s0,18.91,24,18.91,24-18.91,24-18.91"/><path class="cls-3" d="M626.23,381.91s0-18.91-24-18.91c-22.57,0-24,18.91-24,18.91"/><path class="cls-4" d="M634.41,377.17a4.74,4.74,0,0,1-4.74,4.74H578.16"/><g class="cls-9"><circle cx="601.71" cy="381.91" r="11.7"/></g><path class="cls-4" d="M454,82.5a40.5,40.5,0,0,0-40.5,40.5v38.5"/><path class="cls-4" d="M429.47,406.78c0,5.52-6.94,10-15.5,10s-15.5-4.48-15.5-10"/><path class="cls-4" d="M402.69,406.78c0-4,5.05-7.28,11.28-7.28s11.28,3.26,11.28,7.28"/><path class="cls-4" d="M381,402.78l7.7,1.81a111.38,111.38,0,0,0,52.51-.37l5.79-1.44"/><path class="cls-4" d="M563.09,410.41c0-4.25,5.33-7.69,11.91-7.69s11.91,3.44,11.91,7.69"/><path class="cls-4" d="M583.67,411.52c0,3.09-3.88,5.59-8.67,5.59s-8.67-2.5-8.67-5.59"/><path class="cls-4" d="M549.64,408l5.92,1.39a85.48,85.48,0,0,0,40.35-.28l4.45-1.11"/><path class="cls-3" d="M394.47,517.5l-46,4v2.73a4.83,4.83,0,0,0,5.26,4.81l40.74-3.54Z"/><line class="cls-4" x1="356.43" y1="520.61" x2="360.47" y2="528.5"/><polygon class="cls-3" points="368.47 519.5 373.47 481.5 380.47 487.5 398.47 482.5 394.47 517.5 368.47 519.5"/><polygon class="cls-4" points="394.47 525.5 383.47 526.5 383.47 529.5 394.47 529.5 394.47 525.5"/><polyline class="cls-4" points="397.47 487.5 383.47 493.5 379.47 518.5"/><polyline class="cls-4" points="372.47 489.5 376.47 493.5 372.47 519.5"/><path class="cls-3" d="M432.47,517.5l46,4v2.73a4.83,4.83,0,0,1-5.25,4.81l-40.75-3.54Z"/><line class="cls-4" x1="470.52" y1="520.61" x2="466.47" y2="528.5"/><polygon class="cls-3" points="458.47 519.5 453.47 481.5 446.47 487.5 428.47 482.5 432.47 517.5 458.47 519.5"/><polygon class="cls-4" points="432.47 525.5 443.47 526.5 443.47 529.5 432.47 529.5 432.47 525.5"/><polyline class="cls-4" points="429.47 487.5 443.47 493.5 447.47 518.5"/><polyline class="cls-4" points="454.47 489.5 450.47 493.5 454.47 519.5"/><rect class="cls-4" x="358.69" y="97.72" width="53" height="31" rx="15.5" transform="translate(192.88 -239.21) rotate(45)"/><line class="cls-4" x1="384.69" y1="112.72" x2="413.47" y2="142.5"/><line class="cls-4" x1="391.69" y1="119.72" x2="391.69" y2="97.72"/><circle class="cls-4" cx="434.47" cy="185.5" r="1"/><circle class="cls-4" cx="440.47" cy="185.5" r="1"/><circle class="cls-4" cx="437.47" cy="190.5" r="1"/><circle class="cls-3" cx="562.5" cy="259.5" r="21.5"/><path class="cls-3" d="M626,234l-12.25,8.54a68,68,0,0,0-27,39L577,319.37"/><line class="cls-3" x1="562.5" y1="259.5" x2="583" y2="295"/><path class="cls-3" d="M217,411l4.81,1a35.47,35.47,0,0,0,10.48.69l10.32-.86a80.25,80.25,0,0,1,20.65.94l7.66,1.35a36.38,36.38,0,0,0,9.55.42L287,414"/><path d="M260,412c0,2.81-3.53,5.08-7.87,5.08s-7.88-2.27-7.88-5.08"/><path class="cls-4" d="M261,420.2a14.3,14.3,0,0,1-17,0"/><path class="cls-3" d="M646.32,493l-15,7-19-4,7.19,16a2.78,2.78,0,0,1-2.61,3.92l-22.66-.55A19.75,19.75,0,0,0,575.32,528h79L656,516.39A2.1,2.1,0,0,0,653.9,514h0a2.09,2.09,0,0,1-2-1.52Z"/><line class="cls-3" x1="615" y1="506" x2="625" y2="506"/><line class="cls-3" x1="615" y1="509" x2="625" y2="509"/><line class="cls-3" x1="519" y1="506" x2="529" y2="506"/><line class="cls-3" x1="519" y1="509" x2="529" y2="509"/><line class="cls-3" x1="489" y1="525" x2="567" y2="525"/><line class="cls-3" x1="577" y1="525" x2="655" y2="525"/><line class="cls-3" x1="513" y1="528" x2="513" y2="525"/><line class="cls-3" x1="635" y1="528" x2="635" y2="525"/><path class="cls-3" d="M504.84,296c.68-.34,1.4-.68,2.16-1"/><path class="cls-3" d="M496,302a32.52,32.52,0,0,1,5.27-4"/><circle class="cls-4" cx="292" cy="309" r="1"/><circle class="cls-4" cx="298" cy="309" r="1"/><circle class="cls-4" cx="295" cy="314" r="1"/><path class="cls-3" d="M253.63,310.91l-.56-.23a1.14,1.14,0,0,0-1.52.74l-.17.58a1.14,1.14,0,0,1-2.14.13l-.24-.56a1.14,1.14,0,0,0-1.6-.55l-.53.29a1.14,1.14,0,0,1-1.61-1.43l.23-.56a1.14,1.14,0,0,0-.74-1.52l-.58-.17a1.15,1.15,0,0,1-.13-2.15l.56-.23a1.15,1.15,0,0,0,.56-1.6l-.29-.53a1.14,1.14,0,0,1,1.42-1.61l.56.23a1.15,1.15,0,0,0,1.53-.74l.17-.58a1.14,1.14,0,0,1,2.14-.13l.24.56a1.15,1.15,0,0,0,1.6.56l.53-.29a1.13,1.13,0,0,1,1.6,1.42l-.22.56a1.14,1.14,0,0,0,.73,1.53l.59.17a1.14,1.14,0,0,1,.12,2.14l-.56.24a1.13,1.13,0,0,0-.55,1.6l.29.53A1.14,1.14,0,0,1,253.63,310.91Z"/><circle class="cls-3" cx="249.93" cy="306.18" r="3"/><path class="cls-3" d="M250,502h24l-1,7.39a6.73,6.73,0,0,0,6.67,7.61h27.07a5.25,5.25,0,0,1,5.25,5.25V525H251Z"/><path class="cls-3" d="M216,525V473l23-1v24l-7.39-1a6.73,6.73,0,0,0-7.61,6.67V520"/><path class="cls-4" d="M221,517h12a8,8,0,0,1,8,8h0"/><path class="cls-3" d="M216,473v-.5a3.5,3.5,0,0,0-3.5-3.5h0a3.5,3.5,0,0,0-3.5,3.5v53a4.47,4.47,0,0,0,4.48,4.48h28a2.5,2.5,0,0,0,2.5-2.5h0a2.5,2.5,0,0,0-2.5-2.5H216Z"/><rect class="cls-3" x="246" y="525" width="71" height="5" rx="2.5"/><line class="cls-3" x1="233" y1="489" x2="233" y2="500"/><line class="cls-3" x1="268" y1="508" x2="278" y2="508"/><line class="cls-3" x1="567" y1="268" x2="582.5" y2="252.5"/></g><g id="diecut"><line class="cls-10" x1="36" x2="36" y2="2"/><line class="cls-11" x1="36" y1="10" x2="36" y2="606"/><line class="cls-10" x1="36" y1="610" x2="36" y2="612"/></g><g id="frame"><path d="M755,37V575H72.94V37H755m1-1H71.94V576H756V36Z"/><rect class="cls-3" x="235" y="191" width="49" height="98"/><line class="cls-3" x1="235" y1="269" x2="284" y2="269"/><line class="cls-3" x1="305" y1="289" x2="211" y2="289"/></g></svg>