<svg xmlns="http://www.w3.org/2000/svg" xmlns:xlink="http://www.w3.org/1999/xlink" viewBox="0 0 792 612"><defs><style>.cls-1,.cls-10,.cls-3,.cls-9{fill:none;}.cls-2,.cls-6{fill:#fff;}.cls-2,.cls-3{stroke:#000;}.cls-10,.cls-2,.cls-3,.cls-9{stroke-linecap:round;stroke-linejoin:round;}.cls-4{clip-path:url(#clip-path);}.cls-5{clip-path:url(#clip-path-2);}.cls-7{clip-path:url(#clip-path-3);}.cls-8{clip-path:url(#clip-path-4);}.cls-10,.cls-9{stroke:#dddede;stroke-width:0.5px;}.cls-10{stroke-dasharray:4 8;}</style><clipPath id="clip-path"><rect class="cls-1" x="311" y="323.44" width="223" height="99"/></clipPath><clipPath id="clip-path-2"><rect class="cls-1" x="344" y="205.44" width="157" height="99"/></clipPath><clipPath id="clip-path-3"><rect class="cls-1" x="334" y="186.44" width="180" height="19" rx="9.5"/></clipPath><clipPath id="clip-path-4"><rect class="cls-1" x="301" y="304.44" width="243" height="19" rx="9.5"/></clipPath></defs><g id="art"><rect class="cls-2" x="178" y="567.44" width="489" height="8" rx="4"/><rect class="cls-3" x="252" y="441.44" width="341" height="107"/><path class="cls-3" d="M252,466.14c21.31,0,21.31,57.6,42.62,57.6s21.31-57.6,42.62-57.6,21.31,57.6,42.62,57.6,21.32-57.6,42.63-57.6,21.31,57.6,42.62,57.6,21.32-57.6,42.63-57.6,21.31,57.6,42.63,57.6,21.31-57.6,42.63-57.6"/><rect class="cls-3" x="238" y="422.44" width="369" height="19" rx="9.5"/><rect class="cls-3" x="238" y="548.44" width="369" height="19" rx="9.5"/><line class="cls-3" x1="251" y1="548.44" x2="270" y2="567.44"/><line class="cls-3" x1="305.5" y1="548.44" x2="324.5" y2="567.44"/><line class="cls-3" x1="360" y1="548.44" x2="379" y2="567.44"/><line class="cls-3" x1="414.5" y1="548.44" x2="433.5" y2="567.44"/><line class="cls-3" x1="469" y1="548.44" x2="488" y2="567.44"/><line class="cls-3" x1="523.5" y1="548.44" x2="542.5" y2="567.44"/><line class="cls-3" x1="578" y1="548.44" x2="597" y2="567.44"/><rect class="cls-3" x="311" y="323.44" width="223" height="99"/><rect class="cls-3" x="301" y="304.44" width="243" height="19" rx="9.5"/><g class="cls-4"><path class="cls-3" d="M252,341.64c21.31,0,21.31,57.6,42.62,57.6s21.31-57.6,42.62-57.6,21.31,57.6,42.62,57.6,21.32-57.6,42.63-57.6,21.31,57.6,42.62,57.6,21.32-57.6,42.63-57.6,21.31,57.6,42.63,57.6,21.31-57.6,42.63-57.6"/></g><rect class="cls-3" x="334" y="186.44" width="180" height="19" rx="9.5"/><rect class="cls-3" x="344" y="205.44" width="157" height="99"/><g class="cls-5"><path class="cls-3" d="M252,223.64c21.31,0,21.31,57.6,42.62,57.6s21.31-57.6,42.62-57.6,21.31,57.6,42.62,57.6,21.32-57.6,42.63-57.6,21.31,57.6,42.62,57.6,21.32-57.6,42.63-57.6,21.31,57.6,42.63,57.6,21.31-57.6,42.63-57.6"/></g><path class="cls-6" d="M130.43,238.81l-9.32-7.65c4-20.88,28.57-28.07,32.58-48.95l10.66,5.66C160.17,209.59,134.6,217.08,130.43,238.81Z"/><path class="cls-3" d="M130.43,238.81l-9.32-7.65c4-20.88,28.57-28.07,32.58-48.95l10.66,5.66C160.17,209.59,134.6,217.08,130.43,238.81Z"/><path class="cls-6" d="M237,291.5l-11,4.94c-16.91-12.87-12.43-38.07-29.34-50.95l9.8-7C224.06,251.86,219.39,278.09,237,291.5Z"/><path class="cls-3" d="M237,291.5l-11,4.94c-16.91-12.87-12.43-38.07-29.34-50.95l9.8-7C224.06,251.86,219.39,278.09,237,291.5Z"/><path class="cls-6" d="M123.12,135q-1.89-5.73-3.79-11.45c14.54-15.51,39.15-8.47,53.69-24L179,110C163.87,126.17,138.26,118.84,123.12,135Z"/><path class="cls-3" d="M123.12,135q-1.89-5.73-3.79-11.45c14.54-15.51,39.15-8.47,53.69-24L179,110C163.87,126.17,138.26,118.84,123.12,135Z"/><path class="cls-6" d="M248,105.26l-10.71,5.55c-17.6-11.91-14.52-37.33-32.12-49.25L214.56,54C232.89,66.4,229.68,92.86,248,105.26Z"/><path class="cls-3" d="M248,105.26l-10.71,5.55c-17.6-11.91-14.52-37.33-32.12-49.25L214.56,54C232.89,66.4,229.68,92.86,248,105.26Z"/><path class="cls-6" d="M346.13,51.5l8.08,9C347.14,80.5,321.77,84,314.69,104L305,96.82C312.37,76,338.77,72.37,346.13,51.5Z"/><path class="cls-3" d="M346.13,51.5l8.08,9C347.14,80.5,321.77,84,314.69,104L305,96.82C312.37,76,338.77,72.37,346.13,51.5Z"/><path class="cls-6" d="M289,174q1.37,5.88,2.72,11.75c-15.91,14.09-39.76,4.8-55.68,18.9l-5-11C247.56,179,272.39,188.67,289,174Z"/><path class="cls-3" d="M289,174q1.37,5.88,2.72,11.75c-15.91,14.09-39.76,4.8-55.68,18.9l-5-11C247.56,179,272.39,188.67,289,174Z"/><path class="cls-6" d="M176.31,324.57l-7.09,9.75c-21.07-2.78-29.69-26.88-50.77-29.66q2.52-5.49,5-11C145.41,296.59,154.38,321.67,176.31,324.57Z"/><path class="cls-3" d="M176.31,324.57l-7.09,9.75c-21.07-2.78-29.69-26.88-50.77-29.66q2.52-5.49,5-11C145.41,296.59,154.38,321.67,176.31,324.57Z"/><path class="cls-6" d="M202.75,471.3l-10.58,5.78c-17.86-11.54-15.32-37-33.17-48.55l9.23-7.76C186.81,432.78,184.17,459.29,202.75,471.3Z"/><path class="cls-3" d="M202.75,471.3l-10.58,5.78c-17.86-11.54-15.32-37-33.17-48.55l9.23-7.76C186.81,432.78,184.17,459.29,202.75,471.3Z"/><path class="cls-6" d="M159.07,497l4.15,11.32c-14,16-38.86,9.7-52.9,25.66L104,523.73C118.62,507.12,144.45,513.63,159.07,497Z"/><path class="cls-3" d="M159.07,497l4.15,11.32c-14,16-38.86,9.7-52.9,25.66L104,523.73C118.62,507.12,144.45,513.63,159.07,497Z"/><path class="cls-6" d="M243.25,338.43l7.17,9.69c-9,19.27-34.57,20.24-43.56,39.5l-9-8.08C207.27,359.49,233.89,358.48,243.25,338.43Z"/><path class="cls-3" d="M243.25,338.43l7.17,9.69c-9,19.27-34.57,20.24-43.56,39.5l-9-8.08C207.27,359.49,233.89,358.48,243.25,338.43Z"/><path class="cls-6" d="M143.8,358.68l4.63,11.14c-13.37,16.53-38.43,11.3-51.8,27.83l-6.74-10C103.81,370.45,129.89,375.88,143.8,358.68Z"/><path class="cls-3" d="M143.8,358.68l4.63,11.14c-13.37,16.53-38.43,11.3-51.8,27.83l-6.74-10C103.81,370.45,129.89,375.88,143.8,358.68Z"/><path class="cls-6" d="M719.92,416l9.32-7.65c-4-20.88-28.58-28.07-32.59-48.95L686,365.1C690.17,386.83,715.74,394.31,719.92,416Z"/><path class="cls-3" d="M719.92,416l9.32-7.65c-4-20.88-28.58-28.07-32.59-48.95L686,365.1C690.17,386.83,715.74,394.31,719.92,416Z"/><path class="cls-6" d="M575,339l11,5c16.91-12.87,12.43-38.08,29.34-51l-9.8-7C587.94,299.4,592.61,325.63,575,339Z"/><path class="cls-3" d="M575,339l11,5c16.91-12.87,12.43-38.08,29.34-51l-9.8-7C587.94,299.4,592.61,325.63,575,339Z"/><path class="cls-6" d="M715.92,109l-10.42-6.08c-18.17,11-16.36,36.56-34.54,47.58l9,8C698.88,147,697,120.42,715.92,109Z"/><path class="cls-3" d="M715.92,109l-10.42-6.08c-18.17,11-16.36,36.56-34.54,47.58l9,8C698.88,147,697,120.42,715.92,109Z"/><path class="cls-6" d="M587,79.88l-4.19,11.31c14,16,38.84,9.81,52.83,25.81L642,106.74C627.43,90.09,601.58,96.53,587,79.88Z"/><path class="cls-3" d="M587,79.88l-4.19,11.31c14,16,38.84,9.81,52.83,25.81L642,106.74C627.43,90.09,601.58,96.53,587,79.88Z"/><path class="cls-6" d="M512.43,54.41,502,60.46c.61,21.25,23.71,32.29,24.32,53.54l11.42-3.87C537.11,88,513.07,76.52,512.43,54.41Z"/><path class="cls-3" d="M512.43,54.41,502,60.46c.61,21.25,23.71,32.29,24.32,53.54l11.42-3.87C537.11,88,513.07,76.52,512.43,54.41Z"/><path class="cls-6" d="M543.07,195.85,549.58,206c21.2-1.54,31.22-25.1,52.42-26.64q-2.19-5.61-4.37-11.24C575.57,169.73,565.14,194.24,543.07,195.85Z"/><path class="cls-3" d="M543.07,195.85,549.58,206c21.2-1.54,31.22-25.1,52.42-26.64q-2.19-5.61-4.37-11.24C575.57,169.73,565.14,194.24,543.07,195.85Z"/><path class="cls-6" d="M669.14,317.24q3.54,4.89,7.09,9.76c21.08-2.78,29.69-26.88,50.77-29.66q-2.5-5.49-5-11C700.05,289.26,691.08,314.35,669.14,317.24Z"/><path class="cls-3" d="M669.14,317.24q3.54,4.89,7.09,9.76c21.08-2.78,29.69-26.88,50.77-29.66q-2.5-5.49-5-11C700.05,289.26,691.08,314.35,669.14,317.24Z"/><path class="cls-6" d="M663.25,530.22,673.83,536c17.86-11.54,15.32-37,33.17-48.55l-9.23-7.76C679.19,491.7,681.83,518.21,663.25,530.22Z"/><path class="cls-3" d="M663.25,530.22,673.83,536c17.86-11.54,15.32-37,33.17-48.55l-9.23-7.76C679.19,491.7,681.83,518.21,663.25,530.22Z"/><path class="cls-6" d="M660,397.19,648.14,395c-13.36,16.53-3,39.94-16.37,56.48L643,456C656.87,438.76,646.09,414.4,660,397.19Z"/><path class="cls-3" d="M660,397.19,648.14,395c-13.36,16.53-3,39.94-16.37,56.48L643,456C656.87,438.76,646.09,414.4,660,397.19Z"/><path class="cls-6" d="M624.09,208l-4.62,11.14c13.37,16.53,38.42,11.3,51.79,27.83L678,237C664.08,219.8,638,225.23,624.09,208Z"/><path class="cls-3" d="M624.09,208l-4.62,11.14c13.37,16.53,38.42,11.3,51.79,27.83L678,237C664.08,219.8,638,225.23,624.09,208Z"/><circle class="cls-2" cx="380" cy="381.44" r="9"/><circle class="cls-2" cx="465" cy="381.44" r="9"/><circle class="cls-2" cx="380" cy="264.44" r="9"/><circle class="cls-2" cx="465" cy="264.44" r="9"/><circle class="cls-2" cx="422.5" cy="359.44" r="9"/><circle class="cls-2" cx="508" cy="359.44" r="9"/><circle class="cls-2" cx="337" cy="359.44" r="9"/><circle class="cls-2" cx="380" cy="506.44" r="9"/><circle class="cls-2" cx="465" cy="506.44" r="9"/><circle class="cls-2" cx="422.5" cy="483.44" r="9"/><circle class="cls-2" cx="508" cy="483.44" r="9"/><circle class="cls-2" cx="550" cy="506.44" r="9"/><circle class="cls-2" cx="294" cy="506.44" r="9"/><path class="cls-3" d="M593,492.44a9,9,0,0,1,0-18"/><path class="cls-3" d="M252,474.44a9,9,0,1,1,0,18"/><path class="cls-3" d="M344,235a9,9,0,0,1,0,15"/><path class="cls-3" d="M501,249.93a9,9,0,0,1,0-15"/><circle class="cls-2" cx="337" cy="483.44" r="9"/><line class="cls-2" x1="311" y1="331.44" x2="534" y2="331.44"/><line class="cls-2" x1="344" y1="212.44" x2="501" y2="212.44"/><line class="cls-2" x1="344" y1="297.44" x2="501" y2="297.44"/><line class="cls-2" x1="311" y1="414.44" x2="534" y2="414.44"/><line class="cls-2" x1="252" y1="447.44" x2="593" y2="447.44"/><line class="cls-2" x1="252" y1="541.44" x2="593" y2="541.44"/><line class="cls-3" x1="251" y1="422.44" x2="270" y2="441.44"/><line class="cls-3" x1="305.5" y1="422.44" x2="324.5" y2="441.44"/><line class="cls-3" x1="360" y1="422.44" x2="379" y2="441.44"/><line class="cls-3" x1="414.5" y1="422.44" x2="433.5" y2="441.44"/><line class="cls-3" x1="469" y1="422.44" x2="488" y2="441.44"/><line class="cls-3" x1="523.5" y1="422.44" x2="542.5" y2="441.44"/><line class="cls-3" x1="578" y1="422.44" x2="597" y2="441.44"/><g class="cls-7"><line class="cls-3" x1="278.74" y1="186.44" x2="297.74" y2="205.44"/><line class="cls-3" x1="333.24" y1="186.44" x2="352.24" y2="205.44"/><line class="cls-3" x1="387.74" y1="186.44" x2="406.74" y2="205.44"/><line class="cls-3" x1="442.24" y1="186.44" x2="461.24" y2="205.44"/><line class="cls-3" x1="496.74" y1="186.44" x2="515.74" y2="205.44"/><line class="cls-3" x1="551.24" y1="186.44" x2="570.24" y2="205.44"/><line class="cls-3" x1="605.74" y1="186.44" x2="624.74" y2="205.44"/></g><g class="cls-8"><line class="cls-3" x1="278.74" y1="304.44" x2="297.74" y2="323.44"/><line class="cls-3" x1="333.24" y1="304.44" x2="352.24" y2="323.44"/><line class="cls-3" x1="387.74" y1="304.44" x2="406.74" y2="323.44"/><line class="cls-3" x1="442.24" y1="304.44" x2="461.24" y2="323.44"/><line class="cls-3" x1="496.74" y1="304.44" x2="515.74" y2="323.44"/><line class="cls-3" x1="551.24" y1="304.44" x2="570.24" y2="323.44"/><line class="cls-3" x1="605.74" y1="304.44" x2="624.74" y2="323.44"/></g><rect class="cls-2" x="378.79" y="137.44" width="7" height="49"/><path class="cls-2" d="M386.29,126.44a4,4,0,0,1-8,0c0-2.2,4-15,4-15S386.29,124.24,386.29,126.44Z"/><line class="cls-2" x1="382.29" y1="125.44" x2="382.29" y2="137.44"/><line class="cls-2" x1="379.04" y1="142.44" x2="385.54" y2="148.94"/><line class="cls-2" x1="379.04" y1="172.94" x2="385.54" y2="179.44"/><line class="cls-2" x1="379.04" y1="156.94" x2="385.54" y2="163.44"/><rect class="cls-2" x="399.65" y="137.44" width="7" height="49"/><path class="cls-2" d="M407.15,126.44a4,4,0,0,1-8,0c0-2.2,4-15,4-15S407.15,124.24,407.15,126.44Z"/><line class="cls-2" x1="403.15" y1="125.44" x2="403.15" y2="137.44"/><line class="cls-2" x1="399.9" y1="142.44" x2="406.4" y2="148.94"/><line class="cls-2" x1="399.9" y1="172.94" x2="406.4" y2="179.44"/><line class="cls-2" x1="399.9" y1="156.94" x2="406.4" y2="163.44"/><rect class="cls-2" x="420.5" y="137.44" width="7" height="49"/><path class="cls-2" d="M428,126.44a4,4,0,1,1-8,0c0-2.2,4-15,4-15S428,124.24,428,126.44Z"/><line class="cls-2" x1="424" y1="125.44" x2="424" y2="137.44"/><line class="cls-2" x1="420.75" y1="142.44" x2="427.25" y2="148.94"/><line class="cls-2" x1="420.75" y1="172.94" x2="427.25" y2="179.44"/><line class="cls-2" x1="420.75" y1="156.94" x2="427.25" y2="163.44"/><rect class="cls-2" x="441.35" y="137.44" width="7" height="49"/><path class="cls-2" d="M448.85,126.44a4,4,0,0,1-8,0c0-2.2,4-15,4-15S448.85,124.24,448.85,126.44Z"/><line class="cls-2" x1="444.85" y1="125.44" x2="444.85" y2="137.44"/><line class="cls-2" x1="441.6" y1="142.44" x2="448.1" y2="148.94"/><line class="cls-2" x1="441.6" y1="172.94" x2="448.1" y2="179.44"/><line class="cls-2" x1="441.6" y1="156.94" x2="448.1" y2="163.44"/><rect class="cls-2" x="462.21" y="137.44" width="7" height="49"/><path class="cls-2" d="M469.71,126.44a4,4,0,0,1-8,0c0-2.2,4-15,4-15S469.71,124.24,469.71,126.44Z"/><line class="cls-2" x1="465.71" y1="125.44" x2="465.71" y2="137.44"/><line class="cls-2" x1="462.46" y1="142.44" x2="468.96" y2="148.94"/><line class="cls-2" x1="462.46" y1="172.94" x2="468.96" y2="179.44"/><line class="cls-2" x1="462.46" y1="156.94" x2="468.96" y2="163.44"/><polygon class="cls-3" points="422.68 231 426.06 240.06 435.98 240.67 428.6 246.79 430.9 256.31 422.68 250.53 414.45 256.31 416.75 246.79 409.37 240.67 419.29 240.06 422.68 231"/><path class="cls-3" d="M426.68,242.57a4,4,0,0,1-8,0"/></g><g id="diecut"><line class="cls-9" x1="36" x2="36" y2="2"/><line class="cls-10" x1="36" y1="10" x2="36" y2="606"/><line class="cls-9" x1="36" y1="610" x2="36" y2="612"/></g><g id="frame"><path d="M755,37V575H72.94V37H755m1-1H71.94V576H756V36Z"/></g></svg>