<svg xmlns="http://www.w3.org/2000/svg" viewBox="0 0 792 612"><defs><style>.cls-1{fill:none;}.cls-1,.cls-2{stroke:#000;stroke-linecap:round;stroke-linejoin:round;}.cls-2{fill:#fff;}.cls-3{font-size:8px;}.cls-3,.cls-4{font-family:Futura-Medium, Futura;font-weight:500;letter-spacing:0.02em;}.cls-4{font-size:14px;}.cls-5{letter-spacing:0.01em;}</style></defs><g id="art"><polygon class="cls-1" points="410.04 142.08 400.74 162.46 416 179.7 393.88 177.64 382.06 197 378.06 174.06 355.12 170.06 374.48 158.23 372.41 136.12 389.66 151.38 410.04 142.08"/><path class="cls-1" d="M397.65,167.57a9.26,9.26,0,0,1-13.1-13.1"/><rect class="cls-1" x="448.76" y="252.86" width="27.76" height="78.52" rx="13.88" transform="translate(754.76 -170.52) rotate(90)"/><rect class="cls-1" x="443.84" y="275.7" width="27.76" height="88.36" rx="13.88" transform="translate(777.59 -137.84) rotate(90)"/><rect class="cls-1" x="445.81" y="307.39" width="27.76" height="80.49" rx="13.88" transform="translate(807.32 -112.06) rotate(90)"/><rect class="cls-1" x="443.84" y="341.04" width="27.76" height="68.69" rx="13.88" transform="translate(833.11 -82.33) rotate(90)"/><path class="cls-1" d="M270,278.24h54.08a48.85,48.85,0,0,0,48.85-49.37l-.24-22.1a9,9,0,0,1,9-9.1h0a21.54,21.54,0,0,1,21.54,21.55v39.26A19.77,19.77,0,0,0,423,278.24h31"/><polyline class="cls-1" points="437.25 389.26 324.08 389.26 271 389.26"/><path class="cls-1" d="M408.33,292.12a38.55,38.55,0,0,1-38.55,38.55"/><path class="cls-1" d="M436.91,365.76A9.63,9.63,0,0,0,427.3,376a9.85,9.85,0,0,0,9.94,9h0a6.38,6.38,0,0,0,6.38-6.38v-6.5a6.38,6.38,0,0,0-6.38-6.38Z"/><path class="cls-1" d="M433,337.75A9.63,9.63,0,0,0,423.4,348a9.85,9.85,0,0,0,9.94,9h0a6.38,6.38,0,0,0,6.38-6.38v-6.5a6.38,6.38,0,0,0-6.38-6.38Z"/><path class="cls-1" d="M427.23,310.17a9.64,9.64,0,0,0-9.61,10.27,9.85,9.85,0,0,0,9.94,9h0a6.38,6.38,0,0,0,6.38-6.38v-6.5a6.38,6.38,0,0,0-6.38-6.38Z"/><path class="cls-1" d="M437.2,282.09a9.63,9.63,0,0,0-9.61,10.28,9.85,9.85,0,0,0,9.94,9h2.82a3.55,3.55,0,0,0,3.56-3.55V285.65a3.56,3.56,0,0,0-3.56-3.56Z"/><path class="cls-1" d="M372.86,228.87h0a7.81,7.81,0,0,0,7.81-7.81v-8.53a8,8,0,0,0-8-8h0"/><rect class="cls-1" x="197" y="271" width="73" height="131"/><circle class="cls-1" cx="233" cy="375" r="11"/><circle class="cls-2" cx="230" cy="372" r="1.27"/><circle class="cls-2" cx="236" cy="372" r="1.27"/><circle class="cls-2" cx="230" cy="378" r="1.27"/><circle class="cls-2" cx="236" cy="378" r="1.27"/><line class="cls-1" x1="233" y1="364" x2="233" y2="357.14"/><line class="cls-1" x1="233" y1="392.7" x2="233" y2="385.83"/></g><g id="copy"><text class="cls-3" transform="translate(597.89 499.85)">The End.</text><text class="cls-4" transform="translate(597.89 482.4)">G<tspan class="cls-5" x="12.07" y="0">r</tspan><tspan x="17.49" y="0">eat job!</tspan></text></g></svg>