<svg id="Layer_1" data-name="Layer 1" xmlns="http://www.w3.org/2000/svg" viewBox="0 0 48 48"><defs><style>.cls-1{fill:#fff;}.cls-2,.cls-3{fill:none;stroke:#fff;stroke-miterlimit:10;stroke-width:3px;}.cls-2{stroke-linecap:square;}</style></defs><title>icon_dribbble</title><path class="cls-1" d="M24,5A19,19,0,1,1,5,24,19,19,0,0,1,24,5m0-3h0A22,22,0,0,0,2,24H2A22,22,0,0,0,24,46h0A22,22,0,0,0,46,24h0A22,22,0,0,0,24,2Z"/><path class="cls-2" d="M8.44,34.44A21.93,21.93,0,0,1,24,28h0a22,22,0,0,1,15.5,6.38"/><path class="cls-3" d="M39.5,12a21.93,21.93,0,0,1-15.56,6.44h0a21.93,21.93,0,0,1-15.5-6.38"/><line class="cls-3" x1="24" y1="3.5" x2="24" y2="44.5"/></svg>