<svg id="Layer_1" data-name="Layer 1" xmlns="http://www.w3.org/2000/svg" viewBox="0 0 48 48"><defs><style>.cls-1{fill:#fff;}.cls-2{fill:none;stroke:#fff;stroke-miterlimit:10;stroke-width:3px;}</style></defs><title>icon_instagram</title><path class="cls-1" d="M37,5a6,6,0,0,1,6,6V37a6,6,0,0,1-6,6H11a6,6,0,0,1-6-6V11a6,6,0,0,1,6-6H37m0-3H11a9,9,0,0,0-9,9V37a9,9,0,0,0,9,9H37a9,9,0,0,0,9-9V11a9,9,0,0,0-9-9Z"/><circle class="cls-2" cx="24" cy="24" r="10"/><path class="cls-1" d="M36,10a2,2,0,1,0,2,2,2,2,0,0,0-2-2Z"/></svg>