<svg id="Layer_1" data-name="Layer 1" xmlns="http://www.w3.org/2000/svg" viewBox="0 0 48 48"><defs><style>.cls-1,.cls-2{fill:none;stroke:#fff;stroke-width:3px;}.cls-1{stroke-linejoin:round;}.cls-2{stroke-miterlimit:10;}</style></defs><title>icon_twitter</title><path class="cls-1" d="M2.9,36.23A23.19,23.19,0,0,0,41.1,18.56L41,16c-.49-4.73-4.58-8.74-9-8.74a8.16,8.16,0,0,0-8,8.63V16a7.31,7.31,0,0,0,1.41,3.54l2.56,3.2A29.92,29.92,0,0,1,6.88,11.05c-.55,2.79-.35,8.5,1.11,14.13v.06a19.47,19.47,0,0,0,4.15,7.69L13.5,34.5"/><line class="cls-2" x1="46" y1="10.69" x2="39.13" y2="14.13"/></svg>