<svg id="Layer_1" data-name="Layer 1" xmlns="http://www.w3.org/2000/svg" viewBox="0 0 48 48"><defs><style>.cls-1{fill:#fff;}.cls-2{fill:none;stroke:#fff;stroke-miterlimit:10;stroke-width:3px;}</style></defs><title>icon_linkedin</title><path class="cls-1" d="M37,5a6,6,0,0,1,6,6V37a6,6,0,0,1-6,6H11a6,6,0,0,1-6-6V11a6,6,0,0,1,6-6H37m0-3H11a9,9,0,0,0-9,9V37a9,9,0,0,0,9,9H37a9,9,0,0,0,9-9V11a9,9,0,0,0-9-9Z"/><path class="cls-2" d="M37,37.5v-10a7,7,0,0,0-14,0v10"/><line class="cls-2" x1="13" y1="37.5" x2="13" y2="21.5"/><path class="cls-1" d="M13,14a2,2,0,1,0,2,2,2,2,0,0,0-2-2Z"/></svg>